<svg id="Layer_6" data-name="Layer 6" xmlns="http://www.w3.org/2000/svg" viewBox="0 0 24 24"><g id="Layer_19" data-name="Layer 19"><path d="M14.88,16.09a.87.87,0,0,1-.58-.26,1.7,1.7,0,0,1-.53-.72.92.92,0,0,0-.15-.25,3.6,3.6,0,0,1-.39-.54,2.81,2.81,0,0,0-.64-.79,1.92,1.92,0,0,0-.69-.26,1.46,1.46,0,0,1-.29.35,2.55,2.55,0,0,0-.38.47,1,1,0,0,0-.2.46,1.41,1.41,0,0,1-.13.44,1.8,1.8,0,0,1-.08.21c-.11.32-.25.7-.65.79a.7.7,0,0,1-.66-.26c-.58,0-.87-.36-1-1.16a4,4,0,0,1-.12-1.16.44.44,0,0,0-.06-.29c-.25-.5-.25-.5-.57-.52A3.35,3.35,0,0,1,7,12.49a.92.92,0,0,1,0,.71.78.78,0,0,1-.46.37,1.89,1.89,0,0,0-.6.34l-.22.17a1.46,1.46,0,0,0-.21.16,1.64,1.64,0,0,1-1.33.56.43.43,0,0,0-.19,0,.83.83,0,0,1-.62-.1A1.19,1.19,0,0,1,3,13.87c-.13-.81-.18-1.08-.43-1.38l-.24-.24a1.32,1.32,0,0,1-.54-1.38q.06-.26.12-.45c-.51,0-1.06,0-1.26-.47a1.22,1.22,0,0,0-.12-.19A1.11,1.11,0,0,1,.42,8.4l0-.09c.3-.52.53-.57,1.1-.46l.37.06A6.72,6.72,0,0,1,3,8.17c.15,0,.39.15.44.11l0,0a1,1,0,0,1,1-.18.84.84,0,0,1,.45.7l0,.14C5,9,5,9.17,5,9.28l0,0a1.48,1.48,0,0,1,0-.29,1.51,1.51,0,0,1,.13-.48l-.09-.14C5,8.22,5,8.2,4.79,8.15a1.18,1.18,0,0,1-.87-.74c-.27-.69-.14-1.14.4-1.39,0,0,.22-.12.32-.19a1.59,1.59,0,0,1,.83-.35.75.75,0,0,1,.52.2s0,0,.14,0a1.93,1.93,0,0,1,.42,0h.11a.78.78,0,0,0,0-.21c0-.43.11-.84.92-1L8,4.46a1.35,1.35,0,0,1,1.28.16,2.1,2.1,0,0,0,.43.19.89.89,0,0,1,.74.85.86.86,0,0,0,.37.3,1.36,1.36,0,0,1,.43.11.51.51,0,0,0,.4.06,4.21,4.21,0,0,1,1-.13H13a.86.86,0,0,1,.92-.51,1.43,1.43,0,0,1,.94.37c.11.09.13.1.19.11l.5.06a1.69,1.69,0,0,0,.77,0A1.14,1.14,0,0,1,16.78,6a.41.41,0,0,0,0-.11c0-.7.48-.82,1-.84.9,0,1.15,0,1.41.84l0,.14c.16.48.39.46.51.46a.69.69,0,0,1,.75.34c.22.43-.14.9-.56,1.38l-.44.48A4.37,4.37,0,0,0,19.2,9l.1.13c.25.35.53.74.38,1.16a.7.7,0,0,1-.54.44c-.37.09-.71-.11-1-.58A1.27,1.27,0,0,1,18,9.64a.88.88,0,0,0,0-.24h-.19l-.25,0-.26,0a.52.52,0,0,0,0,.11,3.83,3.83,0,0,0,.21.67,2.46,2.46,0,0,1,.21.94.66.66,0,0,0,0,.21c.15.54-.07.82-.63,1.26l-.34.29a1.54,1.54,0,0,1-1.2.49l.08.09c.41.45.8.87.69,1.35a.75.75,0,0,1-.51.54.75.75,0,0,0-.36.31.8.8,0,0,1-.55.37Zm-3.1-3.83a2.56,2.56,0,0,1,1.38.46,3.58,3.58,0,0,1,.92,1.06,2.25,2.25,0,0,0,.28.41,1.66,1.66,0,0,1,.33.53.57.57,0,0,0,.14.23,1.56,1.56,0,0,1,.45-.37L15,14.2a2.87,2.87,0,0,1-.67-.92.77.77,0,0,1,.08-.79.72.72,0,0,1,.75-.13,1.35,1.35,0,0,0,.41.07c.32,0,.32,0,.64-.26l.36-.3a2.29,2.29,0,0,0,.28-.24,1.89,1.89,0,0,1-.06-.45,1.56,1.56,0,0,0-.15-.59,5.73,5.73,0,0,1-.25-.81,1.14,1.14,0,0,1,.07-1c.22-.3.55-.33,1.06-.37l.24,0a1.5,1.5,0,0,1,.65.07,3.43,3.43,0,0,1,.43-.5l.41-.45a1.31,1.31,0,0,1,.11-.12,1.57,1.57,0,0,1-1-1.08l0-.15L18.2,6h-.42a1.15,1.15,0,0,1-.07.39c-.16.49-.46.69-.91.58-.08,0-.1,0-.16,0a2.57,2.57,0,0,1-1.26,0L15,7a1.22,1.22,0,0,1-.75-.32.49.49,0,0,0-.35-.15.85.85,0,0,1-.75.51h-.39a3.48,3.48,0,0,0-.83.1,1.49,1.49,0,0,1-1-.11l-.1,0h0a1.53,1.53,0,0,1-1.3-1.17l-.08,0a3.28,3.28,0,0,1-.61-.27c-.23-.13-.23-.13-.51-.06a3.91,3.91,0,0,1-.47.12l-.13,0a1.83,1.83,0,0,1-.07.56,1,1,0,0,1-1.23.62,2.58,2.58,0,0,0-.29,0,1.18,1.18,0,0,1-.67-.21l-.23.16a4.35,4.35,0,0,1-.39.23s0,.08,0,.14,0,.1.22.15A1.38,1.38,0,0,1,6,7.82c.23.37.39.62.18,1a1.1,1.1,0,0,0-.08.28c-.1.74-.28,1-.86,1.15a.87.87,0,0,1-.77,0C4.09,10,4,9.59,4,9.12l-.14.08a1.49,1.49,0,0,1-1.1-.08,6.23,6.23,0,0,0-.92-.22L1.4,8.83H1.33l-.06.1a.35.35,0,0,0,.1.26c0,.08.11.15.15.23a3.31,3.31,0,0,0,.63,0c.37,0,.6,0,.79.15l.15.14v.23A1.42,1.42,0,0,1,3,10.4c-.05.17-.12.4-.19.7,0,.14,0,.16.23.41a3.43,3.43,0,0,1,.33.33A3.33,3.33,0,0,1,4,13.72s0,.06,0,.09a.91.91,0,0,1,.33,0c.13,0,.36-.17.54-.33s.19-.16.28-.22l.2-.15a3.21,3.21,0,0,1,.67-.41,2.06,2.06,0,0,1-.12-.6.64.64,0,0,1,.25-.54,1.13,1.13,0,0,1,1-.06,2.52,2.52,0,0,0,.56.1,1.43,1.43,0,0,1,1.38,1,1.49,1.49,0,0,1,.2.84,2.86,2.86,0,0,0,.1.91,1.06,1.06,0,0,0,.14.42.65.65,0,0,1,.32,0q0-.13.09-.24a.7.7,0,0,0,.06-.19,1.89,1.89,0,0,1,.33-.82,3,3,0,0,1,.53-.66l.08-.08a.59.59,0,0,1,.31-.46A.92.92,0,0,1,11.78,12.26Zm.2.6ZM1.59,9.53Z"/><path d="M19.91,13.23h-.1a.76.76,0,0,1-.61-.62,1.94,1.94,0,0,1,1-2.13l.29-.13a4,4,0,0,0,.78-.4V9.87c.1-.31.28-.89.79-1l0,0a.83.83,0,0,1,1.19-.2,1,1,0,0,1,.43.7,1.38,1.38,0,0,1-.34,1h0A3.36,3.36,0,0,0,23,11c0,.43-.51.71-.92.93a2.88,2.88,0,0,1-.66.24c-.13,0-.34.1-.4.13C20.63,12.93,20.28,13.23,19.91,13.23Zm2.14-2.63a3.25,3.25,0,0,1-1.13.66l-.27.11-.1.07a2.73,2.73,0,0,1,.55-.19,3.36,3.36,0,0,0,.45-.15,2.56,2.56,0,0,0,.42-.27C22,10.76,22,10.68,22.05,10.6Zm.31-.72a2,2,0,0,0-.1.29.56.56,0,0,0,0,.12,3.81,3.81,0,0,1,.37-.5A.79.79,0,0,1,22.36,9.88Z"/><path d="M17.52,18.61a.83.83,0,0,1-.5-.18,1.68,1.68,0,0,0-.81-.33L16,18.05a1.35,1.35,0,0,1-1-.7.79.79,0,0,1,.06-.7c.21-.35.32-.45.91-.79l.55-.33.45-.26a1.31,1.31,0,0,1,1.52.13h0a.82.82,0,0,1,.13.7,1.87,1.87,0,0,0,0,.27,2.79,2.79,0,0,1-.29,1.2.5.5,0,0,1,0,.14c-.07.28-.17.72-.57.87A.69.69,0,0,1,17.52,18.61ZM16.05,17l.18.06.2,0a3.12,3.12,0,0,1,.92.33,1,1,0,0,1,.1-.32,2,2,0,0,0,.18-.76,2.13,2.13,0,0,1,0-.27l-.18,0-.41.24-.55.33A2.65,2.65,0,0,0,16.05,17Zm-.08.1Z"/><path d="M14.62,19.63a1.89,1.89,0,0,1-.72-.19,2,2,0,0,0-.81-.17,1,1,0,0,1-1.07-.7,1.34,1.34,0,0,1-.15-.72l-.21-.21a3.78,3.78,0,0,0-.48-.41.79.79,0,0,1-.37-1c.09-.34.49-1.25,1.15-1.32h0c.8-.08,1,.31,1.12.66l.16.22a8.27,8.27,0,0,1,.78.92,1.83,1.83,0,0,1,.18.3c.11.2.18.32.28.36.37.15.82.34.73,1.08,0,0,0,.1,0,.15a.81.81,0,0,1-.18.86A.65.65,0,0,1,14.62,19.63Zm-1.55-1.36h0a3,3,0,0,1,1.1.22v-.13l-.11,0a1.64,1.64,0,0,1-.78-.81l-.13-.23a6.52,6.52,0,0,0-.68-.78l-.14-.15a1.11,1.11,0,0,1-.24-.43h0a1.63,1.63,0,0,0-.31.52,6,6,0,0,1,.57.48c.39.38.55.6.5,1a.61.61,0,0,0,.07.26l.07.13S13,18.27,13.07,18.27Z"/><path d="M21.62,19a.69.69,0,0,1-.32-.08,1.28,1.28,0,0,1-.62-.76h-.06l-.2,0a1.48,1.48,0,0,1-.77-.28.72.72,0,0,1-.64-.63,1.22,1.22,0,0,1,.3-1.1.83.83,0,0,1,.71-.27h0a.55.55,0,0,1,.33.19.9.9,0,0,1,.73-.1l.35.06a1.36,1.36,0,0,1,.84.33,1,1,0,0,1,.38.88,2.15,2.15,0,0,0,.06.29c.08.27.27,1-.39,1.22a.78.78,0,0,0-.2.11A.83.83,0,0,1,21.62,19Zm-1-1.87.2,0a.86.86,0,0,1,.81.66l0,.09.12-.07,0-.1a2,2,0,0,1-.1-.56v-.09L21.58,17a1.92,1.92,0,0,0-.3-.06l-.35-.06A.85.85,0,0,1,20.62,17.14Z"/></g></svg>