<svg id="Layer_6" data-name="Layer 6" xmlns="http://www.w3.org/2000/svg" viewBox="0 0 24 24"><g id="Layer_23" data-name="Layer 23"><path d="M11.31,19.88a1.87,1.87,0,0,1-1.07-.25,1.45,1.45,0,0,0-.4-.19,1.44,1.44,0,0,1-1-.93.91.91,0,0,0-.17-.3c-.19-.23-.24-.4-.29-1.13a8.08,8.08,0,0,1,0-1.07,4.55,4.55,0,0,0-.1-1.2l-.1-.46a6.14,6.14,0,0,0-.37-1.44.63.63,0,0,0-.7-.22s-.06.07-.11.19a.78.78,0,0,1-.51.55,1,1,0,0,1-.88-.29,4.48,4.48,0,0,0-.39-.29,5.2,5.2,0,0,1-.77-.37,7.23,7.23,0,0,0-.91-.39,1.72,1.72,0,0,1-1.18-.92C2.31,11,2.23,11,2,10.91a1.47,1.47,0,0,1-.89-.76L1,9.92A4.09,4.09,0,0,1,.54,8.25a1.23,1.23,0,0,0-.17-.5A1.26,1.26,0,0,1,.65,6.13,8.63,8.63,0,0,0,1.2,5.4a2,2,0,0,1,.9-.85,3,3,0,0,1,1.13-.26,3.94,3.94,0,0,0,.55-.07c.63-.14.83-.15,1.17.06H5a1.26,1.26,0,0,0,.27.13c.45-.19.65.27.79.62a1.41,1.41,0,0,0,.36.51,2,2,0,0,1,.59,1,1.9,1.9,0,0,0,.47.8,3.12,3.12,0,0,1,.34.45,2.48,2.48,0,0,1,.16.35c.19,0,.5,0,.73,0a5.37,5.37,0,0,1,.73,0,6.19,6.19,0,0,0,.89-.3,1.25,1.25,0,0,0,.21-.14,2.06,2.06,0,0,1,.93-.45L12.79,7a4.18,4.18,0,0,1,1.56.14A5.31,5.31,0,0,1,16.64,8.3c.15.17.27.3.37.43a5.51,5.51,0,0,0,.42.47,2,2,0,0,0,.37.32c.12.09.31.22.65.5a3.67,3.67,0,0,0,.79.51,3.82,3.82,0,0,1,.59.34,6.83,6.83,0,0,0,1.11.6,1.14,1.14,0,0,1,1.39.48c.15.2.33.39.49.57a2.16,2.16,0,0,1,.71,1.16.8.8,0,0,0,.08.17,1.12,1.12,0,0,1-.22,1.51,6.19,6.19,0,0,1-1.23.87,3.21,3.21,0,0,0-.58.38,6.13,6.13,0,0,1-1.66,1.06c-1.82.81-2.22.61-2.34.55-.29-.15-.63-.33-.82-.22a5.76,5.76,0,0,1-.9.34,5.11,5.11,0,0,0-1,.43,1.87,1.87,0,0,1-1.61.95,4.15,4.15,0,0,0-.69.06A10,10,0,0,1,11.31,19.88ZM4.39,5.11a2.62,2.62,0,0,1-.4.08,4.54,4.54,0,0,1-.67.1,2,2,0,0,0-.8.17c-.21.09-.27.18-.49.5a8.07,8.07,0,0,1-.61.81c-.26.31-.26.31-.15.54a2.19,2.19,0,0,1,.26.84,3.31,3.31,0,0,0,.4,1.34L2,9.73c.06.13.14.17.35.26a1.43,1.43,0,0,1,.88.76c.1.2.18.24.62.4a7.55,7.55,0,0,1,1,.45,3.07,3.07,0,0,0,.63.3,2.28,2.28,0,0,1,.61.41,1.18,1.18,0,0,1,.53-.53,1.49,1.49,0,0,1,.61-.13,1.66,1.66,0,0,1,1.32.68,5.43,5.43,0,0,1,.54,1.82l.1.46A5.29,5.29,0,0,1,9.39,16a6.66,6.66,0,0,0,0,1,3.87,3.87,0,0,0,.06.57,1.81,1.81,0,0,1,.32.55c.11.27.16.28.39.37a2.75,2.75,0,0,1,.63.31,4.21,4.21,0,0,0,1.58,0,4.66,4.66,0,0,1,.9-.07c.13,0,.36-.06.75-.57a3.14,3.14,0,0,1,1.5-.75,5.39,5.39,0,0,0,.74-.28,1.73,1.73,0,0,1,1.67.17h0a7.93,7.93,0,0,0,1.56-.53A5,5,0,0,0,20.83,16a3.42,3.42,0,0,1,.83-.59,5.17,5.17,0,0,0,1-.71c.12-.11.13-.17.13-.17l-.08-.15a1.48,1.48,0,0,1-.19-.55,2.37,2.37,0,0,0-.46-.59,6.08,6.08,0,0,1-.56-.66c-.12-.17-.14-.16-.29-.11a.77.77,0,0,1-.28.06,4.73,4.73,0,0,1-1.69-.79,3.57,3.57,0,0,0-.46-.26,4.71,4.71,0,0,1-1-.63l-.62-.48a2.72,2.72,0,0,1-.49-.41,7,7,0,0,1-.48-.54L15.9,9a4.54,4.54,0,0,0-1.8-.84A3.36,3.36,0,0,0,12.94,8h0l-1.36.21a1,1,0,0,0-.48.26,1.88,1.88,0,0,1-.42.26,3.11,3.11,0,0,1-1.51.36l-.47,0c-.45,0-.76,0-1,0A.83.83,0,0,1,7,8.5a1.33,1.33,0,0,0-.1-.23A2.2,2.2,0,0,0,6.68,8,2.83,2.83,0,0,1,6,6.8a1.06,1.06,0,0,0-.35-.56,2.61,2.61,0,0,1-.57-.83v0a1.57,1.57,0,0,1-.64-.26h0"/></g></svg>