<svg id="Layer_1" data-name="Layer 1" xmlns="http://www.w3.org/2000/svg" viewBox="0 0 24 24"><path d="M19.16,9.63H14V3a.5.5,0,0,0-.5-.5H4.84a.5.5,0,0,0-.5.5V21a.5.5,0,0,0,.5.5H19.16a.5.5,0,0,0,.5-.5V10.13A.5.5,0,0,0,19.16,9.63ZM5.34,3.52H13v17H5.34Zm8.63,17V10.63h4.69v1.93H17.14a.5.5,0,0,0-.5.5.5.5,0,0,0,.5.5h1.52v1.49H17.14a.5.5,0,0,0-.5.5.5.5,0,0,0,.5.5h1.52v1.49H17.14a.5.5,0,0,0-.5.5.5.5,0,0,0,.5.5h1.52v1.94Z"/><path d="M7,4.94a.5.5,0,0,0-.5.5v.77a.5.5,0,0,0,1,0V5.44A.5.5,0,0,0,7,4.94Z"/><path d="M9.15,4.94a.5.5,0,0,0-.5.5v.77a.5.5,0,0,0,1,0V5.44A.5.5,0,0,0,9.15,4.94Z"/><path d="M11.27,4.94a.51.51,0,0,0-.5.5v.77a.51.51,0,0,0,.5.5.5.5,0,0,0,.5-.5V5.44A.5.5,0,0,0,11.27,4.94Z"/><path d="M7,9.8a.5.5,0,0,0,.5-.5V8.54A.5.5,0,0,0,7,8a.5.5,0,0,0-.5.5V9.3A.5.5,0,0,0,7,9.8Z"/><path d="M9.15,9.8a.5.5,0,0,0,.5-.5V8.54a.5.5,0,0,0-.5-.5.5.5,0,0,0-.5.5V9.3A.5.5,0,0,0,9.15,9.8Z"/><path d="M11.27,9.8a.5.5,0,0,0,.5-.5V8.54a.5.5,0,0,0-1,0V9.3A.5.5,0,0,0,11.27,9.8Z"/><path d="M7,11.12a.5.5,0,0,0-.5.5v.76a.5.5,0,0,0,1,0v-.76A.5.5,0,0,0,7,11.12Z"/><path d="M9.15,11.12a.5.5,0,0,0-.5.5v.76a.5.5,0,0,0,.5.5.5.5,0,0,0,.5-.5v-.76A.5.5,0,0,0,9.15,11.12Z"/><path d="M11.27,11.12a.5.5,0,0,0-.5.5v.76a.5.5,0,0,0,.5.5.5.5,0,0,0,.5-.5v-.76A.5.5,0,0,0,11.27,11.12Z"/><path d="M7,16a.51.51,0,0,0,.5-.5v-.77a.51.51,0,0,0-.5-.5.5.5,0,0,0-.5.5v.77A.5.5,0,0,0,7,16Z"/><path d="M9.14,16a.5.5,0,0,0,.5-.5v-.77a.5.5,0,0,0-.5-.5.51.51,0,0,0-.5.5v.77A.51.51,0,0,0,9.14,16Z"/><path d="M11.27,16a.51.51,0,0,0,.5-.5v-.77a.51.51,0,0,0-.5-.5.5.5,0,0,0-.5.5v.77A.5.5,0,0,0,11.27,16Z"/><path d="M7,17.29a.5.5,0,0,0-.5.5v.77a.5.5,0,0,0,1,0v-.77A.5.5,0,0,0,7,17.29Z"/><path d="M9.15,17.29a.5.5,0,0,0-.5.5v.77a.5.5,0,0,0,.5.5.51.51,0,0,0,.5-.5v-.77A.51.51,0,0,0,9.15,17.29Z"/><path d="M11.27,17.29a.51.51,0,0,0-.5.5v.77a.51.51,0,0,0,.5.5.5.5,0,0,0,.5-.5v-.77A.5.5,0,0,0,11.27,17.29Z"/></svg>