<?xml version="1.0" encoding="utf-8"?>
<!-- Generator: Adobe Illustrator 24.2.3, SVG Export Plug-In . SVG Version: 6.00 Build 0)  -->
<svg version="1.1" id="Layer_1" xmlns="http://www.w3.org/2000/svg" xmlns:xlink="http://www.w3.org/1999/xlink" x="0px" y="0px"
	 viewBox="0 0 963.6 818.9" style="enable-background:new 0 0 963.6 818.9;" xml:space="preserve">
<style type="text/css">
	.st0{fill:none;}
</style>
<g id="fill">
	<path class="st0" d="M352.5,0C156.4,0,0.7,142.1,0.2,353.8C-0.4,612,219,819,479,819s484.8-215.6,484.8-473.7
		c0-150.5-83.4-243.8-143.1-291.2c-3.1-2.5-6.4-3.5-9.7-3.5c-10.5,0-19.7,11.2-14,22.7c33.1,66.3,67.8,181.1-1.8,298.2
		c-52.5,88.3-153.6,129.4-251.1,129.4c-43.9,0-87-8.3-124.6-24.4c-94.9-40.5-167-182.1-55.7-288.4c32.9-31.4,67.8-42.5,100.8-42.5
		c45.4,0,87.2,21.1,114.7,39.3c2.8,1.8,5.7,2.6,8.5,2.6c9.8,0,18.4-9.7,14.9-20.5C583.2,107.9,528,9.5,376.4,0.7
		C368.4,0.2,360.4,0,352.5,0L352.5,0z"/>
</g>
<g id="stroke">
	<path d="M352.3,30c7.9,0,15.1,0.2,22,0.6c0,0,0.1,0,0.1,0c59.5,3.5,107.9,22.4,143.9,56.2c17.3,16.2,30,34.3,39.2,51.4
		c-26.6-12.6-58.7-22.7-93.2-22.7c-45.3,0-86.2,17.1-121.5,50.8c-52.1,49.8-74.4,113-62.6,177.9c12.6,69.5,62.6,132.2,127.2,159.8
		c41,17.5,88.1,26.8,136.4,26.8c119.7,0,223.3-53.9,276.9-144.1c58.5-98.4,49.5-195.3,27.7-265.4c15.3,17.1,28.7,35.4,40.1,54.8
		c29.9,50.7,45,107.6,45,169c0,58.7-12.3,116.1-36.6,170.7c-23.4,52.6-56.8,100.2-99.2,141.4c-20.8,20.3-43.7,38.7-67.9,54.8
		c-24.4,16.2-50.4,30.2-77.3,41.4c-55.8,23.5-114.3,35.4-173.8,35.4c-61.3,0-121-12.1-177.5-35.9c-27.2-11.5-53.3-25.6-77.8-42.1
		c-24.3-16.4-47-35.1-67.6-55.7C74.5,573.5,29.7,466.4,30,353.8c0.1-47.7,8.7-92.5,25.4-133.2c15.9-38.7,38.9-72.9,68.3-101.6
		C182.5,61.6,263.7,30,352.3,30 M352.3,0C156.2,0,0.5,142.1,0,353.7C-0.6,612,218.8,818.9,478.8,818.9s484.8-215.6,484.8-473.7
		c0-150.5-83.4-243.8-143.1-291.2c-3.1-2.5-6.4-3.5-9.7-3.5c-10.5,0-19.7,11.2-14,22.7c33.1,66.3,67.8,181.1-1.8,298.2
		c-52.5,88.3-153.6,129.4-251.1,129.4c-43.9,0-87-8.3-124.6-24.4c-94.9-40.5-167-182.1-55.7-288.4c32.9-31.4,67.8-42.5,100.8-42.5
		c45.4,0,87.2,21.1,114.7,39.3c2.8,1.8,5.7,2.6,8.5,2.6c9.8,0,18.4-9.7,14.9-20.5C583,107.9,527.8,9.5,376.2,0.7
		C368.2,0.2,360.2,0,352.3,0L352.3,0z"/>
</g>
</svg>
