<svg id="Layer_6" data-name="Layer 6" xmlns="http://www.w3.org/2000/svg" viewBox="0 0 24 24"><g id="Layer_22" data-name="Layer 22"><path d="M16.58,20.91h-.12c-.34-.06-.54-.37-.7-.66a1.85,1.85,0,0,1-.28-.88l-.21-.13L14.79,19a5.41,5.41,0,0,0-1.19-.59,1.88,1.88,0,0,1-1.79.11,1.72,1.72,0,0,1-.28-.18s0,0-.27.07a8.06,8.06,0,0,1-2.09.55,4.86,4.86,0,0,0-.73.14,3.37,3.37,0,0,1-1,.15H7.33a1,1,0,0,1-1.08-.77,4,4,0,0,1-.19-.8,1.76,1.76,0,0,0-.15-.6l-.14-.3A2.15,2.15,0,0,0,5.32,16c-.12-.12-.24-.22-.36-.32A4.42,4.42,0,0,1,4.22,15,1,1,0,0,1,4,14.05c0-.1,0-.17-.09-.43C3.6,13,3.6,13,3.37,12.81l-.22-.22a1.05,1.05,0,0,0-.28-.2c-.48-.24-.55-.59-.51-1.17a4.46,4.46,0,0,1,.13-.74.79.79,0,0,0,0-.13l0-.07a4,4,0,0,1-.33-.46,1.87,1.87,0,0,0-.52-.59.83.83,0,0,1-.37-.89c.13-.53.76-.76,1.12-.81a5.85,5.85,0,0,1,1,0,8.54,8.54,0,0,0,.87,0,3.6,3.6,0,0,1,1,.12,1.6,1.6,0,0,0,.47.07,6.18,6.18,0,0,0,.94-.65l.18-.15h0a2.13,2.13,0,0,1,.51-.27c.16-.06.16-.07.18-.11a7.85,7.85,0,0,1,.34-.71l.16-.32c0-.11.1-.23.14-.34A2,2,0,0,1,9,4.05a1.85,1.85,0,0,0,.39-.33,1.8,1.8,0,0,1,.9-.56,3.35,3.35,0,0,1,1.35,0,2,2,0,0,1,1.6,1.16,2.68,2.68,0,0,1,.29.73,3.68,3.68,0,0,0,.12.36,4.23,4.23,0,0,0,.2.38,2.26,2.26,0,0,1,.37.86l.06.27a2.74,2.74,0,0,0,.34,1c.14.13.29.24.44.36s.41.32.63.52l.2.17a1.34,1.34,0,0,1,.64,1.29,1.22,1.22,0,0,1-.21.6s0,.08-.05.27v.24c0,.51,0,.61.14.78a1.84,1.84,0,0,0,.45.26c.37.17.87.4.91,1a1.49,1.49,0,0,0,.11.45l.16,0a1.33,1.33,0,0,0-.05-.19,1,1,0,0,1,.13-1,1.45,1.45,0,0,1,1.63-.53,1.24,1.24,0,0,1,.93.63,1,1,0,0,1-.18.92,2,2,0,0,1-.43.44l0,0c.46.09.69.36.82,1a1.48,1.48,0,0,1-.19,1.17,0,0,0,0,1,0,0,.62.62,0,0,0,.09.11,2.56,2.56,0,0,0,.58.5,2.29,2.29,0,0,1,.6.52,1.4,1.4,0,0,0,.33.29.77.77,0,0,1,.4,1,1.52,1.52,0,0,1-.72.72,1.79,1.79,0,0,0-.51.38l-.11.13c-.31.37-.64.75-1.09.69a.79.79,0,0,1-.63-.52,1.33,1.33,0,0,1-.13-.52l0,0a17.59,17.59,0,0,1-1.88.7,1.33,1.33,0,0,0-.44.28A.92.92,0,0,1,16.58,20.91Zm-3-3.55a4.14,4.14,0,0,1,1.74.73l.46.27c.49.28.71.47.72.93a.82.82,0,0,0,.15.46h0a2,2,0,0,1,.66-.37,17.73,17.73,0,0,0,1.8-.67l.14-.06a1,1,0,0,1,1,0,.82.82,0,0,1,.29.76v.05l.09-.11.11-.14a3.1,3.1,0,0,1,.75-.58l.15-.09a2.5,2.5,0,0,1-.42-.4,1.1,1.1,0,0,0-.35-.31,3.49,3.49,0,0,1-.8-.67,1,1,0,0,1-.19-1.3.51.51,0,0,0,.08-.46l-.06-.21a1,1,0,0,1-.72-.5,1.35,1.35,0,0,1-.17-.38.79.79,0,0,1-.3.46,1,1,0,0,1-.8.11l-.11.09-.36-.11c-.48-.21-.64-1.08-.67-1.37a1,1,0,0,1-.32-.12,2.57,2.57,0,0,1-.76-.47,1.78,1.78,0,0,1-.42-1.54l0-.23a1.34,1.34,0,0,1,.21-.77.36.36,0,0,0,0-.17c0-.13,0-.15-.29-.4L15,9.56a7,7,0,0,0-.57-.47,6.4,6.4,0,0,1-.5-.41,2.84,2.84,0,0,1-.65-1.56l-.05-.25A1.47,1.47,0,0,0,13,6.32a2.68,2.68,0,0,1-.29-.54,3,3,0,0,1-.15-.47,2.48,2.48,0,0,0-.21-.52,1,1,0,0,0-.87-.64,2.28,2.28,0,0,0-1,0,1.41,1.41,0,0,0-.39.3,2.73,2.73,0,0,1-.61.49c-.15.08-.25.33-.36.6A3.79,3.79,0,0,1,8.94,6l-.16.32a6.58,6.58,0,0,0-.31.65,1.16,1.16,0,0,1-.73.65.87.87,0,0,0-.27.14l-.17.13a5.18,5.18,0,0,1-1.22.81,1.78,1.78,0,0,1-1,0,2.59,2.59,0,0,0-.71-.1,7.73,7.73,0,0,1-1,0,5.93,5.93,0,0,0-.87,0,.58.58,0,0,0-.14,0,3.39,3.39,0,0,1,.6.73,3.62,3.62,0,0,0,.26.37,1,1,0,0,1,.22,1.07,3.53,3.53,0,0,0-.1.58,2,2,0,0,0,0,.21,1.87,1.87,0,0,1,.52.38l.2.21a2.92,2.92,0,0,1,.72,1.06A1.4,1.4,0,0,1,5,14.29a3.38,3.38,0,0,0,.63.63c.14.12.28.24.43.39a3.12,3.12,0,0,1,.65,1l.12.27a2.77,2.77,0,0,1,.25.91,2.81,2.81,0,0,0,.13.59.42.42,0,0,0,.07.13s.06,0,.11,0h.21a2.8,2.8,0,0,0,.63-.12,6.29,6.29,0,0,1,.91-.17,7,7,0,0,0,1.79-.48c.58-.22.89-.21,1.24.07l.11.07a.92.92,0,0,0,.78,0A.79.79,0,0,1,13.56,17.36Zm.11.95h0ZM20,14Zm-.73-.93a.28.28,0,0,0-.29.16v.11a2.64,2.64,0,0,1,.09.43,1.11,1.11,0,0,1,.36-.4,1.13,1.13,0,0,0,.26-.23l-.14,0A1.16,1.16,0,0,0,19.23,13.1Z"/></g></svg>