<svg xmlns="http://www.w3.org/2000/svg" viewBox="0 0 4746.55 815.91">
    <g id="card-travel-guides" data-name="card travel guides">
        <g id="tagline">
            <path d="M1685.58,585.89a47.5,47.5,0,0,0-25.43-7.18q-10.58,0-17.68,3.57a35.1,35.1,0,0,0-11.48,8.86,46,46,0,0,0-6.69,10.37h-1.55V580.35h-34.46V753.6h35V686.17h1.06a42.59,42.59,0,0,0,6.89,10.38A35.37,35.37,0,0,0,1642.8,705q7.1,3.36,17.27,3.36a47.16,47.16,0,0,0,26-7.42q11.61-7.43,18.38-21.91t6.77-35.56q0-21.64-7-36T1685.58,585.89Zm-13.16,76.86a29.11,29.11,0,0,1-9,13.12,24.5,24.5,0,0,1-28.79.09,28.76,28.76,0,0,1-9-13,56,56,0,0,1-3.12-19.6,55.32,55.32,0,0,1,3.12-19.52,28.08,28.08,0,0,1,9-12.8,22.9,22.9,0,0,1,14.4-4.51,22.66,22.66,0,0,1,14.51,4.67,28.67,28.67,0,0,1,9,13,62.59,62.59,0,0,1,0,38.6Z"/>
            <path d="M1830.4,584.41q-9.8-5.7-22.92-5.7-14.36,0-23.87,6.36a35.89,35.89,0,0,0-13.79,17.51h-1.47V538.35h-34v168h34.94V633.51a30,30,0,0,1,3.16-13.91,21.29,21.29,0,0,1,8.53-8.82,25.52,25.52,0,0,1,12.59-3q10.67,0,16.61,6.48t5.87,18.13v74h35V626.12q.07-14.76-5.38-25.39A39,39,0,0,0,1830.4,584.41Z"/>
            <path d="M1968.54,586.87q-13.9-8.16-33-8.16t-33,8.16a55.1,55.1,0,0,0-21.45,22.81q-7.56,14.64-7.55,34.16,0,19.36,7.55,34a55.1,55.1,0,0,0,21.45,22.81q13.9,8.16,33,8.16t33-8.16A55.1,55.1,0,0,0,1990,677.84q7.56-14.64,7.55-34,0-19.51-7.55-34.16A55.1,55.1,0,0,0,1968.54,586.87ZM1959,663.2a30.62,30.62,0,0,1-8.82,13.58,21.59,21.59,0,0,1-14.52,5,22.18,22.18,0,0,1-14.72-5,30.07,30.07,0,0,1-9-13.58,65.77,65.77,0,0,1,0-39.21,30.37,30.37,0,0,1,9-13.62,22.1,22.1,0,0,1,14.72-5,21.51,21.51,0,0,1,14.52,5A30.93,30.93,0,0,1,1959,624a65.77,65.77,0,0,1,0,39.21Z"/>
            <path d="M2080.39,679.48a26.43,26.43,0,0,1-4.92.46,16.58,16.58,0,0,1-6.19-1.07,8.13,8.13,0,0,1-4.15-3.73,15.75,15.75,0,0,1-1.47-7.51v-61h23.7V580.35h-23.7V550.16h-34.95v30.19h-17.22V606.6h17.22v65.62q-.07,12.39,5.17,20.51a30.88,30.88,0,0,0,14.72,12q9.48,3.85,22.11,3.36a61.26,61.26,0,0,0,11.57-1.35q4.75-1.11,7.38-1.93l-5.49-26Z"/>
            <path d="M2198.72,586.87q-13.91-8.16-33-8.16t-33,8.16a55.1,55.1,0,0,0-21.45,22.81q-7.56,14.64-7.55,34.16,0,19.36,7.55,34a55.1,55.1,0,0,0,21.45,22.81q13.91,8.16,33,8.16t33-8.16a55.1,55.1,0,0,0,21.45-22.81q7.54-14.64,7.55-34,0-19.51-7.55-34.16A55.1,55.1,0,0,0,2198.72,586.87Zm-9.51,76.33a30.62,30.62,0,0,1-8.82,13.58,21.62,21.62,0,0,1-14.52,5,22.22,22.22,0,0,1-14.73-5,30.14,30.14,0,0,1-8.94-13.58,65.77,65.77,0,0,1,0-39.21,30.44,30.44,0,0,1,8.94-13.62,22.15,22.15,0,0,1,14.73-5,21.55,21.55,0,0,1,14.52,5,30.93,30.93,0,0,1,8.82,13.62,65.77,65.77,0,0,1,0,39.21Z"/>
            <path d="M2334.2,601.51h-1.32a48.65,48.65,0,0,0-6.76-10.37,35.1,35.1,0,0,0-11.53-8.86q-7.14-3.57-17.72-3.57a47.69,47.69,0,0,0-25.47,7.14q-11.61,7.13-18.58,21.49t-7,35.76q0,20.92,6.85,34.58t18.45,20.26a51.28,51.28,0,0,0,25.8,6.6,45.36,45.36,0,0,0,17.23-2.95A34.69,34.69,0,0,0,2326,694a33.11,33.11,0,0,0,6.89-9.92h1.48v23.05q0,12.38-7.42,17.8t-18.83,5.41a37,37,0,0,1-12.92-2,24.21,24.21,0,0,1-8.49-5,20.3,20.3,0,0,1-4.68-6.52l-32.32,4.34a37.63,37.63,0,0,0,9.27,17.31q7.14,7.8,19.24,12.39t29.08,4.59q18,0,31.95-5.41T2361,734q7.88-10.62,7.87-26.37V580.35H2334.2Zm-2.83,60.42a26.7,26.7,0,0,1-9,12.14,23.81,23.81,0,0,1-14.31,4.22q-8.61,0-14.48-4.3a26.69,26.69,0,0,1-8.94-12.22,52,52,0,0,1-3.08-18.83,54.32,54.32,0,0,1,3-19,28.3,28.3,0,0,1,8.94-12.84,25.08,25.08,0,0,1,28.87-.12,28.08,28.08,0,0,1,9,12.67,54.09,54.09,0,0,1,3.11,19.24A51.36,51.36,0,0,1,2331.37,661.93Z"/>
            <path d="M2462.25,578.54a30.56,30.56,0,0,0-18.71,6q-8.11,6-11.56,17.76h-1.32v-22h-33.88v126h34.95V635.06a26.18,26.18,0,0,1,3.49-13.61,24.59,24.59,0,0,1,9.51-9.23,27.94,27.94,0,0,1,13.74-3.32,61.63,61.63,0,0,1,8,.57,45.59,45.59,0,0,1,6.81,1.31v-31a40.57,40.57,0,0,0-5.33-.9A52.66,52.66,0,0,0,2462.25,578.54Z"/>
            <path d="M2578.36,588.8a53,53,0,0,0-17.14-7.63,81.17,81.17,0,0,0-20.14-2.46q-15.1,0-26.54,4.55a47,47,0,0,0-18.66,13,44.27,44.27,0,0,0-9.68,19.89l32.32,2.63a19.44,19.44,0,0,1,7.38-10.38q5.58-4.14,15-4.14,8.94,0,13.83,4.27t4.88,12v.5a6.86,6.86,0,0,1-3,6.07q-3,2.05-9.76,3.07t-17.72,2.18a114.61,114.61,0,0,0-17.84,3.11,51,51,0,0,0-15.14,6.57,31.19,31.19,0,0,0-10.5,11.48q-3.85,7.14-3.85,17.64,0,12.47,5.45,20.79a34,34,0,0,0,14.89,12.55,52,52,0,0,0,21.49,4.23,49.93,49.93,0,0,0,16.49-2.5,36.79,36.79,0,0,0,12.23-7,35.22,35.22,0,0,0,8.12-10.37h1v17.47h33.14v-85q0-11.24-4.35-19.31A37.3,37.3,0,0,0,2578.36,588.8Zm-18.5,72.51a21.61,21.61,0,0,1-3.36,11.9,23.76,23.76,0,0,1-9.27,8.32,29,29,0,0,1-13.62,3.08q-8,0-13.25-3.73t-5.2-10.87a13.12,13.12,0,0,1,2.54-8.24,17.31,17.31,0,0,1,7.14-5.3,43.65,43.65,0,0,1,10.74-2.87q2.88-.4,6.4-.94t7.05-1.23a64.51,64.51,0,0,0,6.36-1.56,17.62,17.62,0,0,0,4.47-1.93Z"/>
            <path d="M2719,585.89a47.5,47.5,0,0,0-25.43-7.18q-10.58,0-17.68,3.57a35.1,35.1,0,0,0-11.48,8.86,46,46,0,0,0-6.69,10.37h-1.55V580.35h-34.46V753.6h34.95V686.17h1.06a42.59,42.59,0,0,0,6.89,10.38,35.37,35.37,0,0,0,11.61,8.49q7.09,3.36,17.27,3.36a47.16,47.16,0,0,0,26-7.42q11.61-7.43,18.38-21.91t6.76-35.56q0-21.64-7-36T2719,585.89Zm-13.16,76.86a29.11,29.11,0,0,1-9,13.12,24.5,24.5,0,0,1-28.79.09,28.76,28.76,0,0,1-9-13,56,56,0,0,1-3.12-19.6,55.32,55.32,0,0,1,3.12-19.52,28.08,28.08,0,0,1,9-12.8,22.9,22.9,0,0,1,14.4-4.51,22.66,22.66,0,0,1,14.51,4.67,28.67,28.67,0,0,1,9,13,62.59,62.59,0,0,1,0,38.6Z"/>
            <path d="M2863.82,584.41q-9.8-5.7-22.92-5.7-14.36,0-23.87,6.36a35.89,35.89,0,0,0-13.79,17.51h-1.47V538.35h-34v168h34.94V633.51a30,30,0,0,1,3.16-13.91,21.29,21.29,0,0,1,8.53-8.82,25.52,25.52,0,0,1,12.59-3q10.66,0,16.61,6.48t5.87,18.13v74h34.95V626.12q.08-14.76-5.38-25.39A39,39,0,0,0,2863.82,584.41Z"/>
            <path d="M2961.56,672.88h-1.31l-26.08-92.53h-36.75L2942.61,710l-2.05,5.33q-3.69,8.54-10,9.89t-15.62-1.52L2907,749.83a52.2,52.2,0,0,0,9.56,2.5,71.65,71.65,0,0,0,12.43,1q13,0,22.15-4.14a40.51,40.51,0,0,0,15.21-11.65,58.76,58.76,0,0,0,9.56-17.59l49-139.46-37-.16Z"/>
            <path d="M3214.71,673.66a74.93,74.93,0,0,0,9.35-21.49,105.39,105.39,0,0,0,3.37-27.77h-29a59.33,59.33,0,0,1-4.27,22.89,63.73,63.73,0,0,1-2.92,6.11l-27.68-31.75,9.85-7.09a59.68,59.68,0,0,0,16.45-17.27,40.6,40.6,0,0,0,5.86-21.53,38.13,38.13,0,0,0-5.29-19.73,39.24,39.24,0,0,0-15.09-14.44q-9.81-5.46-23.26-5.46-13.78,0-24.11,5.71a41.09,41.09,0,0,0-16,15.46,42.8,42.8,0,0,0-5.7,22,46.58,46.58,0,0,0,4.34,20.06,88.06,88.06,0,0,0,10.87,17.39l.87,1.07a148.55,148.55,0,0,0-15.76,12.38,50.68,50.68,0,0,0-11,14.07,37.62,37.62,0,0,0-3.93,17.47,43.85,43.85,0,0,0,6.76,23.92,46.84,46.84,0,0,0,19.4,16.94q12.63,6.23,30,6.23a81,81,0,0,0,22.76-3.36A59.47,59.47,0,0,0,3190.85,695L3201,706.35h36.42l-25.3-29C3213,676.14,3213.88,674.93,3214.71,673.66Zm-76.49-101.55a15.73,15.73,0,0,1,5.62-5.67,16.29,16.29,0,0,1,8.53-2.17q7.38-.07,11.4,4.18a13.31,13.31,0,0,1,4,9.27,17.23,17.23,0,0,1-2.95,9.72,30.37,30.37,0,0,1-9.27,8.5l-8.75,5.75a74.61,74.61,0,0,1-7.66-11.17,22.13,22.13,0,0,1-2.95-10.66A15.21,15.21,0,0,1,3138.22,572.11Zm28.87,104.58a40.81,40.81,0,0,1-17.51,4.07,27.79,27.79,0,0,1-12.72-2.75,20.56,20.56,0,0,1-8.36-7.51,19.93,19.93,0,0,1-3-10.74,19.13,19.13,0,0,1,3.33-10.14,39.09,39.09,0,0,1,10.29-10.37l1-.7L3172,674A47.42,47.42,0,0,1,3167.09,676.69Z"/>
            <path d="M3365.65,679.48a26.43,26.43,0,0,1-4.92.46,16.63,16.63,0,0,1-6.2-1.07,8.11,8.11,0,0,1-4.14-3.73,15.74,15.74,0,0,1-1.48-7.51v-61h23.71V580.35h-23.71V550.16H3314v30.19h-17.23V606.6H3314v65.62q-.09,12.39,5.17,20.51a30.83,30.83,0,0,0,14.72,12q9.48,3.85,22.11,3.36a61.14,61.14,0,0,0,11.56-1.35q4.77-1.11,7.39-1.93l-5.5-26Z"/>
            <path d="M3460.8,578.54a30.53,30.53,0,0,0-18.7,6q-8.11,6-11.57,17.76h-1.31v-22h-33.88v126h34.95V635.06a26.27,26.27,0,0,1,3.48-13.61,24.69,24.69,0,0,1,9.52-9.23A27.94,27.94,0,0,1,3457,608.9a61.63,61.63,0,0,1,8,.57,45.85,45.85,0,0,1,6.81,1.31v-31a40.75,40.75,0,0,0-5.34-.9A52.51,52.51,0,0,0,3460.8,578.54Z"/>
            <path d="M3576.92,588.8a53,53,0,0,0-17.15-7.63,81,81,0,0,0-20.13-2.46q-15.1,0-26.54,4.55a47,47,0,0,0-18.66,13,44.16,44.16,0,0,0-9.68,19.89l32.32,2.63a19.44,19.44,0,0,1,7.38-10.38q5.58-4.14,15-4.14,8.94,0,13.82,4.27t4.88,12v.5a6.86,6.86,0,0,1-3,6.07q-3,2.05-9.76,3.07t-17.72,2.18a114.41,114.41,0,0,0-17.84,3.11,51,51,0,0,0-15.14,6.57,31.19,31.19,0,0,0-10.5,11.48q-3.85,7.14-3.85,17.64,0,12.47,5.45,20.79a34,34,0,0,0,14.89,12.55,52,52,0,0,0,21.49,4.23,50,50,0,0,0,16.49-2.5,36.64,36.64,0,0,0,12.22-7,35.05,35.05,0,0,0,8.12-10.37h1v17.47h33.14v-85q0-11.24-4.35-19.31A37.3,37.3,0,0,0,3576.92,588.8Zm-18.5,72.51a21.61,21.61,0,0,1-3.36,11.9,23.9,23.9,0,0,1-9.27,8.32,29,29,0,0,1-13.62,3.08q-8,0-13.25-3.73T3513.71,670a13.12,13.12,0,0,1,2.55-8.24,17.34,17.34,0,0,1,7.13-5.3,43.85,43.85,0,0,1,10.75-2.87c1.91-.27,4.05-.58,6.4-.94s4.7-.76,7.05-1.23,4.47-1,6.36-1.56a17.62,17.62,0,0,0,4.47-1.93Z"/>
            <polygon points="3670.06 670.5 3668.75 670.5 3642.58 580.35 3605.67 580.35 3649.72 706.35 3689.09 706.35 3733.15 580.35 3696.15 580.35 3670.06 670.5"/>
            <path d="M3845,594.62a52.49,52.49,0,0,0-18.87-11.93,66.71,66.71,0,0,0-23.25-4q-18.54,0-32.28,8.2a55.71,55.71,0,0,0-21.29,22.89q-7.54,14.69-7.55,34.12,0,19.94,7.55,34.5a53.48,53.48,0,0,0,21.53,22.47q14,7.92,33.43,7.92,15.58,0,27.52-4.8a50.38,50.38,0,0,0,19.52-13.45,44.06,44.06,0,0,0,10.05-20.3L3829,668.12a21.21,21.21,0,0,1-5.25,8,22,22,0,0,1-8.28,4.92,32.9,32.9,0,0,1-10.67,1.64,29.83,29.83,0,0,1-15.17-3.69,25,25,0,0,1-9.89-10.5,35.08,35.08,0,0,1-3.48-16.16v-.08h85.8v-9.6q0-16.07-4.51-28.09A54.56,54.56,0,0,0,3845,594.62Zm-68.66,36a27.6,27.6,0,0,1,3.48-12.42,26.27,26.27,0,0,1,9.56-9.77,26.92,26.92,0,0,1,14.07-3.65,26.37,26.37,0,0,1,13.41,3.33,23.84,23.84,0,0,1,9.07,9.14,26.87,26.87,0,0,1,3.28,13.37Z"/>
            <rect x="3884.91" y="538.35" width="34.95" height="168"/>
            <path d="M4085,601.51h-1.31a49.1,49.1,0,0,0-6.77-10.37,35.1,35.1,0,0,0-11.53-8.86q-7.14-3.57-17.72-3.57a47.69,47.69,0,0,0-25.47,7.14q-11.61,7.13-18.58,21.49t-7,35.76q0,20.92,6.85,34.58t18.46,20.26a51.26,51.26,0,0,0,25.8,6.6,45.34,45.34,0,0,0,17.22-2.95,34.69,34.69,0,0,0,11.81-7.63,33.15,33.15,0,0,0,6.9-9.92h1.47v23.05q0,12.38-7.42,17.8t-18.83,5.41a37.08,37.08,0,0,1-12.92-2,24.21,24.21,0,0,1-8.49-5,20.11,20.11,0,0,1-4.67-6.52l-32.32,4.34a37.44,37.44,0,0,0,9.27,17.31q7.13,7.8,19.23,12.39t29.08,4.59q18,0,31.95-5.41t21.78-16q7.88-10.62,7.88-26.37V580.35H4085Zm-2.83,60.42a26.7,26.7,0,0,1-9,12.14,23.81,23.81,0,0,1-14.31,4.22q-8.61,0-14.48-4.3a26.69,26.69,0,0,1-8.94-12.22,52,52,0,0,1-3.08-18.83,54.55,54.55,0,0,1,3-19,28.3,28.3,0,0,1,8.94-12.84,25.1,25.1,0,0,1,28.88-.12,28.14,28.14,0,0,1,9,12.67,53.86,53.86,0,0,1,3.12,19.24A51.35,51.35,0,0,1,4082.15,661.93Z"/>
            <path d="M4228.37,652.7q.07,8.44-3.32,14.19a22.51,22.51,0,0,1-8.91,8.66,24.85,24.85,0,0,1-11.81,2.91q-9.91,0-15.83-6.48t-6-17.64v-74h-34.94v80.23q.08,14.76,5.45,25.34a39.18,39.18,0,0,0,15,16.33,42.45,42.45,0,0,0,22.23,5.74q14.19,0,24.08-6.73a37.2,37.2,0,0,0,14.15-17.8h1.31v22.89h33.55v-126h-34.94Z"/>
            <path d="M4308.76,528.75a18.82,18.82,0,0,0-13.29,5.21,16.72,16.72,0,0,0,0,24.94,19.71,19.71,0,0,0,26.7,0,16.8,16.8,0,0,0,0-24.94A18.87,18.87,0,0,0,4308.76,528.75Z"/>
            <rect x="4291.2" y="580.35" width="34.95" height="126"/>
            <path d="M4437.3,601.51h-1.07a46,46,0,0,0-6.69-10.37,35.1,35.1,0,0,0-11.48-8.86q-7.1-3.57-17.68-3.57a47.46,47.46,0,0,0-25.47,7.18q-11.61,7.17-18.58,21.57t-7,36q0,21.09,6.77,35.56T4374.5,701a47.16,47.16,0,0,0,26,7.42q10.17,0,17.27-3.36a34.88,34.88,0,0,0,11.57-8.49,45,45,0,0,0,6.93-10.38h1.48v20.18h34.45v-168H4437.3ZM4434.88,663a29.32,29.32,0,0,1-9,13,24.5,24.5,0,0,1-28.79-.09,29.18,29.18,0,0,1-8.94-13.12,56.3,56.3,0,0,1-3.08-19.4,55.58,55.58,0,0,1,3-19.2,28.58,28.58,0,0,1,8.94-13,25,25,0,0,1,28.87-.16,28,28,0,0,1,9,12.8,62.68,62.68,0,0,1,0,39.12Z"/>
            <path d="M4598.94,594.62a52.49,52.49,0,0,0-18.87-11.93,66.73,66.73,0,0,0-23.26-4q-18.54,0-32.28,8.2a55.69,55.69,0,0,0-21.28,22.89q-7.56,14.69-7.55,34.12,0,19.94,7.55,34.5a53.48,53.48,0,0,0,21.53,22.47q14,7.92,33.43,7.92,15.59,0,27.52-4.8a50.46,50.46,0,0,0,19.52-13.45,44.06,44.06,0,0,0,10.05-20.3L4583,668.12a21.21,21.21,0,0,1-5.25,8,22.1,22.1,0,0,1-8.28,4.92,32.94,32.94,0,0,1-10.67,1.64,29.83,29.83,0,0,1-15.17-3.69,25,25,0,0,1-9.89-10.5,35.08,35.08,0,0,1-3.49-16.16v-.08H4616v-9.6q0-16.07-4.51-28.09A54.56,54.56,0,0,0,4598.94,594.62Zm-68.66,36a27.47,27.47,0,0,1,3.48-12.42,26.2,26.2,0,0,1,9.56-9.77,26.92,26.92,0,0,1,14.07-3.65,26.42,26.42,0,0,1,13.41,3.33,23.82,23.82,0,0,1,9.06,9.14,26.76,26.76,0,0,1,3.28,13.37Z"/>
            <path d="M4737.53,645.32q-9-8.37-27.4-12.14l-22.81-4.6q-8.77-1.87-12.38-5a9.7,9.7,0,0,1-3.61-7.63q0-5.66,5.58-9.06a25.83,25.83,0,0,1,13.7-3.41,24.91,24.91,0,0,1,10.45,2,19.36,19.36,0,0,1,7.1,5.33,16.82,16.82,0,0,1,3.53,7.43l32-2q-2.3-17.38-16-27.48T4690,578.71q-16.15,0-28.18,4.76T4643.23,597a33.83,33.83,0,0,0-6.6,20.92q0,14.12,9,23.21t27.44,12.8l21.82,4.35q8.21,1.63,12.14,4.72a9.72,9.72,0,0,1,4,7.83q-.07,5.65-5.7,9.23t-14.81,3.57q-9.35,0-15.34-4a17.5,17.5,0,0,1-7.54-11.61l-34.37,1.81a40.35,40.35,0,0,0,17.35,28.5q14.8,10.46,39.82,10.46,16.41,0,29-5.21T4739.29,689a34.43,34.43,0,0,0,7.26-21.74Q4746.55,653.7,4737.53,645.32Z"/>
        </g>
        <g id="name">
            <path d="M1353.69,637.43q-44.12,0-75.54-11.93t-50-32.18q-18.54-20.24-24.08-45l84-11.3A52.16,52.16,0,0,0,1300.21,554q8.31,8,22,13.11t33.56,5.11q29.61,0,48.9-14.06T1424,511.93V452.06h-3.84a86.26,86.26,0,0,1-17.9,25.78q-11.92,12.15-30.68,19.82t-44.74,7.67q-36.87,0-67-17.15t-47.94-52.63q-17.79-35.48-17.79-89.81,0-55.61,18.11-92.9T1260.47,197a123.88,123.88,0,0,1,66.16-18.54q27.48,0,46,9.27t29.93,23a127.15,127.15,0,0,1,17.58,27h3.41v-55h90.13V513.21q0,40.9-20.45,68.5t-56.57,41.66Q1400.56,637.42,1353.69,637.43Zm1.91-200.28q21.95,0,37.18-11t23.44-31.53q8.21-20.56,8.2-49.33t-8.09-50q-8.1-21.19-23.44-32.92t-37.29-11.72q-22.36,0-37.71,12t-23.22,33.34q-7.89,21.32-7.89,49.22,0,28.35,8,48.9T1318,426Q1333.23,437.15,1355.6,437.15Z"/>
            <path d="M1676.91,73.65V510h-90.77V73.65Z"/>
            <path d="M1897.21,516.41q-49.65,0-85.76-21.2T1755.73,436q-19.61-38-19.6-88.31,0-50.71,19.6-88.75t55.72-59.23q36.12-21.19,85.76-21.2t85.76,21.2q36.12,21.21,55.72,59.23t19.6,88.75q0,50.28-19.6,88.31T1983,495.21Q1946.87,516.41,1897.21,516.41Zm.43-70.32q22.58,0,37.71-12.89t22.91-35.26Q1966,375.57,1966,347t-7.77-50.93q-7.79-22.36-22.91-35.36t-37.71-13q-22.8,0-38.25,13t-23.22,35.36q-7.79,22.38-7.78,50.93t7.78,50.92q7.77,22.38,23.22,35.26T1897.64,446.09Z"/>
            <path d="M2265.39,516.41q-49.65,0-85.76-21.2T2123.91,436q-19.6-38-19.6-88.31,0-50.71,19.6-88.75t55.72-59.23q36.12-21.19,85.76-21.2t85.76,21.2q36.12,21.21,55.72,59.23t19.6,88.75q0,50.28-19.6,88.31t-55.72,59.24Q2315,516.41,2265.39,516.41Zm.43-70.32q22.57,0,37.71-12.89t22.91-35.26q7.77-22.37,7.77-50.92t-7.77-50.93q-7.79-22.36-22.91-35.36t-37.71-13q-22.8,0-38.25,13t-23.22,35.36q-7.79,22.38-7.78,50.93t7.78,50.92q7.77,22.38,23.22,35.26T2265.82,446.09Z"/>
            <path d="M2485.7,510V182.74h86.51v57.74H2576q10.23-28.75,34.09-45.38t57.11-16.62q33.66,0,57.31,16.73t31.54,45.27h3.41q10-28.12,36.32-45.06t62.33-16.94q45.79,0,74.46,29.08t28.66,82.36V510h-90.55V307.81q0-27.27-14.49-40.91T2820,253.27q-24.72,0-38.57,15.66t-13.85,41.23V510h-88V305.9q0-24.07-13.74-38.36t-36.11-14.27a50,50,0,0,0-27.17,7.56,53.4,53.4,0,0,0-19.07,21.1q-7,13.53-7,31.64V510Z"/>
            <path d="M3078.67,140.55A49.05,49.05,0,0,1,3043.94,127q-14.49-13.51-14.49-32.49,0-18.75,14.49-32.28a48.83,48.83,0,0,1,34.52-13.53q20.45,0,34.83,13.53t14.38,32.28q0,19-14.38,32.49T3078.67,140.55ZM3032.86,510V182.74h90.77V510Z"/>
            <path d="M3343.93,516.41q-50.28,0-86.4-21.42t-55.4-59.55q-19.27-38.13-19.28-87.78,0-50.28,19.5-88.32t55.5-59.45q36-21.4,85.65-21.41,42.83,0,75,15.56t50.93,43.67q18.75,28.12,20.66,66.06h-85.65q-3.63-24.51-19.07-39.53t-40.37-15q-21.11,0-36.76,11.4t-24.4,33.13q-8.73,21.74-8.73,52.63,0,31.32,8.63,53.27t24.4,33.45q15.75,11.5,36.86,11.5a60.51,60.51,0,0,0,28-6.39,54.63,54.63,0,0,0,20.67-18.64q8.21-12.26,10.76-29.51h85.65q-2.13,37.5-20.34,65.94t-50.18,44.43Q3387.61,516.41,3343.93,516.41Z"/>
            <path d="M3594.28,140.55A49.07,49.07,0,0,1,3559.55,127q-14.49-13.51-14.48-32.49,0-18.75,14.48-32.28a48.85,48.85,0,0,1,34.52-13.53q20.46,0,34.84,13.53t14.38,32.28q0,19-14.38,32.49T3594.28,140.55ZM3548.47,510V182.74h90.77V510Z"/>
            <path d="M3859.55,516.41q-49.65,0-85.76-21.2T3718.07,436q-19.61-38-19.6-88.31,0-50.71,19.6-88.75t55.72-59.23q36.11-21.19,85.76-21.2t85.76,21.2q36.11,21.21,55.71,59.23t19.61,88.75q0,50.28-19.61,88.31t-55.71,59.24Q3909.19,516.41,3859.55,516.41Zm.42-70.32q22.59,0,37.72-12.89t22.9-35.26q7.77-22.37,7.78-50.92t-7.78-50.93q-7.78-22.36-22.9-35.36t-37.72-13q-22.8,0-38.24,13t-23.23,35.36q-7.77,22.38-7.78,50.93t7.78,50.92q7.78,22.38,23.23,35.26T3860,446.09Z"/>
            <path d="M4289.73,370.67V182.74h90.77V510h-87.15V450.57h-3.41a96.87,96.87,0,0,1-36.75,46.23q-25.68,17.47-62.54,17.48-32.81,0-57.74-14.92T4094,457q-14-27.48-14.17-65.84V182.74h90.76V374.93q.21,29,15.56,45.81t41.12,16.83A64.57,64.57,0,0,0,4258,430a58.53,58.53,0,0,0,23.12-22.48Q4289.93,392.62,4289.73,370.67Z"/>
            <path d="M4725.23,276.07l-83.09,5.11A43.76,43.76,0,0,0,4633,261.9a50.32,50.32,0,0,0-18.43-13.85q-11.4-5.22-27.17-5.22-21.09,0-35.58,8.84t-14.49,23.54q0,11.73,9.37,19.82t32.18,13L4638.09,320q47.73,9.8,71.17,31.53t23.43,57.1q0,32.18-18.85,56.47t-51.57,37.82q-32.7,13.53-75.32,13.53-65,0-103.44-27.17t-45.06-74l89.27-4.69q4.05,19.82,19.6,30.15T4587.17,451q23.85,0,38.46-9.26t14.8-24q-.21-12.36-10.44-20.35t-31.53-12.25l-56.68-11.3q-47.94-9.58-71.27-33.23t-23.33-60.3q0-31.53,17.15-54.33t48.37-35.16q31.22-12.36,73.19-12.36,62,0,97.69,26.21T4725.23,276.07Z"/>
        </g>
        <path id="logo" class="cls-2" d="M907.37,161.38c-23.69-40.21-55.21-76.11-93.66-106.69A25.1,25.1,0,0,0,798,49a25.71,25.71,0,0,0-21.66,12.22,24.51,24.51,0,0,0-.92,24.32c34.38,68.9,62,173.45-1.43,280.22-45,75.66-133,120.82-235.4,120.82-41.59,0-82.11-7.91-117.18-22.88C371.13,442.3,330.76,391.56,321,337.49c-6.38-35.15-3-87.56,49.36-137.56,26.78-25.58,57.4-38.55,91-38.55,41.84,0,80.69,19.84,105.93,36.51a24.92,24.92,0,0,0,13.89,4.26,25.48,25.48,0,0,0,20.57-10.61A24.75,24.75,0,0,0,605.12,169C585.56,110,529.8,9.63,376.23.7c-7.93-.47-16-.7-23.83-.7C256,0,167.41,34.66,102.92,97.59A331.57,331.57,0,0,0,27.65,209.46C9.42,253.76.12,302.3,0,353.74c-.27,120,47.29,233.88,133.93,320.71a482.58,482.58,0,0,0,341.4,141.46,472.53,472.53,0,0,0,184.08-37.44A494.21,494.21,0,0,0,812.64,677c44.83-43.54,80.14-93.87,104.94-149.6a444.71,444.71,0,0,0,39-181.83C956.54,278.72,940,216.76,907.37,161.38ZM474.83,766.68a433.69,433.69,0,0,1-306.08-127C91.43,562.15,49,460.64,49.23,353.85c.1-45,8.16-87.3,24-125.67a281.1,281.1,0,0,1,64.11-95.32c55.23-53.93,131.62-83.63,215.1-83.63,6.9,0,14,.21,21,.61,55.37,3.22,100.28,20.68,133.46,51.87a189.76,189.76,0,0,1,19.37,21.43c-22.06-7.3-43.78-11-64.89-11-46.71,0-88.78,17.55-125,52.17-53.22,50.83-75.87,115.45-63.79,182C285.33,417,336.19,480.91,402.07,509.07c41.13,17.54,88.33,26.82,136.49,26.82,120,0,223.77-54.15,277.71-144.85,26.66-44.85,41.51-93.24,44.14-143.84a334.1,334.1,0,0,0-4.9-75.85q4.93,7.38,9.44,15c28.1,47.69,42.35,101.23,42.35,159.14a392.9,392.9,0,0,1-34.7,161.84,431,431,0,0,1-94.29,134.29,451.82,451.82,0,0,1-64.64,52.06,447.17,447.17,0,0,1-73.45,39.4,421.06,421.06,0,0,1-164.93,33.58Z"/>
    </g>
</svg>