<svg id="Layer_1" data-name="Layer 1" xmlns="http://www.w3.org/2000/svg" viewBox="0 0 24 24"><path d="M12,1.86A6.49,6.49,0,0,0,5.52,8.34a7.63,7.63,0,0,0,2.05,5.28,4.11,4.11,0,0,1,.9,1.44,12.32,12.32,0,0,1,.47,3,1.21,1.21,0,0,0-.33.82v.21a1.23,1.23,0,0,0,.33.82,1.21,1.21,0,0,0-.33.82v.2a1.24,1.24,0,0,0,1.23,1.24h4.32a1.24,1.24,0,0,0,1.23-1.24v-.2a1.21,1.21,0,0,0-.33-.82,1.23,1.23,0,0,0,.33-.82v-.21a1.21,1.21,0,0,0-.33-.82,12.54,12.54,0,0,1,.47-3,4.11,4.11,0,0,1,.9-1.44,7.63,7.63,0,0,0,2.05-5.28A6.49,6.49,0,0,0,12,1.86Zm2.39,17v.21a.23.23,0,0,1-.23.23H9.84a.24.24,0,0,1-.23-.23v-.21a.23.23,0,0,1,.23-.23h4.32A.23.23,0,0,1,14.39,18.85Zm0,2a.24.24,0,0,1-.23.24H9.84a.24.24,0,0,1-.23-.24v-.2a.23.23,0,0,1,.23-.23h4.32a.23.23,0,0,1,.23.23ZM15.65,13a4.77,4.77,0,0,0-1.09,1.83,18.18,18.18,0,0,0-.49,2.79H9.93a18.18,18.18,0,0,0-.49-2.79A4.77,4.77,0,0,0,8.35,13,6.6,6.6,0,0,1,6.52,8.34a5.48,5.48,0,0,1,11,0A6.6,6.6,0,0,1,15.65,13Z"/></svg>