<svg id="Layer_1" data-name="Layer 1" xmlns="http://www.w3.org/2000/svg" viewBox="0 0 24 24"><path d="M12,5.64a5.13,5.13,0,0,0-5.13,5.12A6.05,6.05,0,0,0,8.49,15a3.29,3.29,0,0,1,.72,1.14,9,9,0,0,1,.36,2.35,1,1,0,0,0-.25.65v.16a1,1,0,0,0,.25.65,1,1,0,0,0-.25.65v.17a1,1,0,0,0,1,1h3.42a1,1,0,0,0,1-1v-.17a1,1,0,0,0-.26-.65,1,1,0,0,0,.26-.65v-.16a1,1,0,0,0-.25-.65,9.23,9.23,0,0,1,.36-2.35A3.29,3.29,0,0,1,15.51,15a6.05,6.05,0,0,0,1.62-4.19A5.13,5.13,0,0,0,12,5.64Zm1.89,13.45v.16a.19.19,0,0,1-.18.19H10.29a.19.19,0,0,1-.18-.19v-.16a.18.18,0,0,1,.18-.18h3.42A.18.18,0,0,1,13.89,19.09Zm0,1.63a.18.18,0,0,1-.18.18H10.29a.18.18,0,0,1-.18-.18v-.17a.18.18,0,0,1,.18-.18h3.42a.18.18,0,0,1,.18.18Zm1-6.27A3.93,3.93,0,0,0,14,15.9a15.25,15.25,0,0,0-.38,2.21H10.36A15.25,15.25,0,0,0,10,15.9a3.93,3.93,0,0,0-.87-1.45,5.19,5.19,0,0,1-1.45-3.69,4.34,4.34,0,0,1,8.68,0A5.19,5.19,0,0,1,14.89,14.45Z"/><path d="M12,4.15a.5.5,0,0,0,.5-.5V2.31a.5.5,0,0,0-1,0V3.65A.5.5,0,0,0,12,4.15Z"/><path d="M20.35,10.46H19a.5.5,0,0,0-.5.5.5.5,0,0,0,.5.5h1.34a.5.5,0,0,0,.5-.5A.5.5,0,0,0,20.35,10.46Z"/><path d="M5,10.46H3.65a.5.5,0,0,0-.5.5.5.5,0,0,0,.5.5H5a.5.5,0,0,0,.5-.5A.5.5,0,0,0,5,10.46Z"/><path d="M18.42,4.53a.5.5,0,0,0-.7,0l-.95,1a.5.5,0,0,0,0,.71.47.47,0,0,0,.35.14.46.46,0,0,0,.35-.14l1-1A.5.5,0,0,0,18.42,4.53Z"/><path d="M7.23,6.19a.5.5,0,0,0,0-.71l-1-1a.5.5,0,0,0-.7,0,.5.5,0,0,0,0,.71l.94,1a.5.5,0,0,0,.36.14A.47.47,0,0,0,7.23,6.19Z"/></svg>