<svg id="Layer_1" data-name="Layer 1" xmlns="http://www.w3.org/2000/svg" viewBox="0 0 24 24"><path d="M17.09,9.77a.51.51,0,0,0,.31-.11l2.31-1.88a.51.51,0,0,0,.19-.39A.49.49,0,0,0,19.71,7L17.4,5.19a.51.51,0,0,0-.31-.11H12.5V3.45a.5.5,0,1,0-1,0V5.08H7.31a.5.5,0,0,0-.5.5V9.27a.5.5,0,0,0,.5.5H11.5v.91H6.91a.4.4,0,0,0-.31.11L4.29,12.61A.49.49,0,0,0,4.1,13a.53.53,0,0,0,.19.41L6.6,15.25a.51.51,0,0,0,.31.11H11.5v4.69H4.76a.46.46,0,0,0-.42.5h0a.47.47,0,0,0,.42.5H19.24a.47.47,0,0,0,.42-.5.46.46,0,0,0-.42-.5H12.5V15.36h4.19a.5.5,0,0,0,.5-.5V11.18a.5.5,0,0,0-.5-.5H12.5V9.77Zm-.9,1.91v2.68H7.08L5.4,13l1.68-1.32ZM7.81,8.77V6.08h9.11L18.6,7.43,16.92,8.77Z"/></svg>