<svg id="Layer_6" data-name="Layer 6" xmlns="http://www.w3.org/2000/svg" viewBox="0 0 24 24"><g id="Layer_18" data-name="Layer 18"><path d="M17.52,21.7A2,2,0,0,1,16,21a1.34,1.34,0,0,0-.93-.35,4.25,4.25,0,0,1-.62-.12,1.75,1.75,0,0,1-1-.78,1.35,1.35,0,0,0-.29-.32,1.8,1.8,0,0,1-1-1.2,2.68,2.68,0,0,0-.53-.86l-.3-.41a1.14,1.14,0,0,0-.46-.29A1.75,1.75,0,0,1,9.93,16a1.72,1.72,0,0,0-.3-.35,1.52,1.52,0,0,1-.57-1C9,14.36,9,14.19,9,14a6.2,6.2,0,0,1-.12-1.34c0-.57,0-.57-.34-1a1.11,1.11,0,0,0-.44-.28,1.4,1.4,0,0,1-.89-.86A4.59,4.59,0,0,1,7,9.89a3,3,0,0,0-.25-.73,1.74,1.74,0,0,0-1.31-.85,3,3,0,0,1-.64-.21A.66.66,0,0,0,4.57,8s-.11,0-.34.34c-.44.6-1.11,1.3-1.79,1.3h0a.91.91,0,0,1-.75-.39l-.35-.45a2.21,2.21,0,0,1-.46-.73c-.25-.85-.08-1.41.5-1.7l.07,0a1,1,0,0,1-.68-.71,1.09,1.09,0,0,1,.15-.84A.65.65,0,0,0,1,4.62a.56.56,0,0,0,0-.34A2.65,2.65,0,0,1,1,4c0-.52.22-.77.72-1.08a3,3,0,0,1,1.6-.63h0a2.57,2.57,0,0,1,1.2.44,3,3,0,0,0,.72.13,2.33,2.33,0,0,1,1,.26,2.76,2.76,0,0,0,.6.26c.17,0,.19.06.46-.07l.35-.15a5.92,5.92,0,0,1,.8-.3,1.23,1.23,0,0,1,1,.21,2.15,2.15,0,0,1,.29.24c.06.07.1.11.43.21a3.4,3.4,0,0,1,1.11.53.72.72,0,0,0,.67.11A1.28,1.28,0,0,0,12.26,4a1.07,1.07,0,0,1,.79-.19,1.16,1.16,0,0,1,.68.33l.09.07a2.66,2.66,0,0,1,.52,0h0a.65.65,0,0,1-.12-.55.74.74,0,0,1,.45-.47c.5-.22,1.05-.45,1.59.3l.1.14a.69.69,0,0,1,.38-.41A1,1,0,0,1,18,3.82a1.58,1.58,0,0,1,.12,1.4,2,2,0,0,1-1,1c-.45.2-.45.2-.63.56a2.11,2.11,0,0,1-.58.69c-.13.12-.18.17-.2.23a2.74,2.74,0,0,1-.15.38,2.06,2.06,0,0,0-.09.22,1.5,1.5,0,0,1,.12.36,1.51,1.51,0,0,1,.67.12l.26.1c.6.21,1,.37,1.21.76v0l.11-.13a2.44,2.44,0,0,0,.27-.37s0,0-.06-.09l-.18-.18c-.36-.33-.35-.62-.21-1.1,0-.06,0-.09-.06-.23a.71.71,0,0,1-.07-.66.81.81,0,0,1,.56-.43c.54-.15,1.36-.39,1.84.45a1,1,0,0,0,.19.25,1,1,0,0,1,.28.51.69.69,0,0,1,.53-.32.72.72,0,0,1,.62.35,1,1,0,0,1,.19.85.72.72,0,0,0,.07.46c.18.45.22.48.44.62a2.85,2.85,0,0,1,.31.21l.09.06a1.13,1.13,0,0,1,.61,1.21.83.83,0,0,1-.67.92,1,1,0,0,0-.26.11,3.41,3.41,0,0,1-.45.24.82.82,0,0,0-.18.11l0,.1a1.15,1.15,0,0,1-1,.91,1.84,1.84,0,0,1-.56,0l-.05.08-.07.11a11.67,11.67,0,0,1-.7,1,.53.53,0,0,0-.16.34,2.19,2.19,0,0,1-.05.31,1.34,1.34,0,0,1-.55.77,1.28,1.28,0,0,0-.2.18,1.23,1.23,0,0,0,0,.28,3.07,3.07,0,0,1,.09.49c0,.6.09,1.16-.35,1.37a.62.62,0,0,1-.73-.15,4.08,4.08,0,0,1-.54-.72,4.31,4.31,0,0,0-.41-.57.74.74,0,0,0-.45-.06l-.29.19c-.09.05-.19.1-.2.13a2.08,2.08,0,0,1-.13.3c-.1.19-.11.23-.09.31a1.42,1.42,0,0,1,0,.52h0a.81.81,0,0,0,.34,0,.86.86,0,0,1,.81-.51c.17,0,.61.11.77.79a1.45,1.45,0,0,0,.3.56,1.6,1.6,0,0,1,.37.81,2,2,0,0,0,.24.4c.18.27.38.54.24.87l-.11.25-.35.09ZM4.56,7a1.55,1.55,0,0,1,.66.18,1.9,1.9,0,0,0,.4.14,2.67,2.67,0,0,1,2,1.4A3.27,3.27,0,0,1,8,9.68c0,.15.07.32.15.55s.1.16.35.27a2.1,2.1,0,0,1,.79.54,1.76,1.76,0,0,1,.59,1.66,5.7,5.7,0,0,0,.1,1.16c0,.17.06.36.09.58a.59.59,0,0,0,.26.44,2.57,2.57,0,0,1,.49.58c.08.14.22.21.46.31a1.89,1.89,0,0,1,.87.63,4.15,4.15,0,0,0,.28.36,4,4,0,0,1,.67,1.13c.19.48.19.48.52.67a1.92,1.92,0,0,1,.64.63c.16.23.26.36.43.4a2.54,2.54,0,0,0,.48.09,2.24,2.24,0,0,1,1.54.68,1,1,0,0,0,.33.24,1.08,1.08,0,0,1-.13-.43,1,1,0,0,0-.19-.32,3,3,0,0,1-.39-.68,1.38,1.38,0,0,1-1.38.15.88.88,0,0,1-.64-1,.52.52,0,0,0,0-.22,1.35,1.35,0,0,1,.17-1,.89.89,0,0,0,.08-.17,1.27,1.27,0,0,1,.64-.67,2,2,0,0,0,.19-.12,1.57,1.57,0,0,1,1.48,0,1.42,1.42,0,0,1,.49.44,1.07,1.07,0,0,1,.14-.78,2.05,2.05,0,0,1,.41-.42c.13-.1.2-.16.21-.21a2.11,2.11,0,0,0,0-.21,1.51,1.51,0,0,1,.36-.84c.26-.34.37-.5.65-.93L19.2,13a.9.9,0,0,1,1-.54.93.93,0,0,0,.29,0,.44.44,0,0,0,.21-.07l0-.15,0-.13a1.17,1.17,0,0,1,.69-.68l.34-.19a1.62,1.62,0,0,1,.47-.21,1.08,1.08,0,0,0,0-.27s-.1,0-.19-.11L22,10.6l-.25-.17a1.8,1.8,0,0,1-.84-1.09,2,2,0,0,1-.14-.49l-.11.09a.77.77,0,0,1-.78.12c-.34-.17-.36-.52-.39-.9V8a.61.61,0,0,0,0-.19,2,2,0,0,1-.35-.47c-.06-.1-.09-.14-.47,0a1.1,1.1,0,0,1,0,.7.35.35,0,0,0,0,.12,2.05,2.05,0,0,1,.24.26c.58.74.14,1.28-.22,1.71l-.13.18s0,0,0,.07a4.24,4.24,0,0,1-.05.77c0,.21-.1.77-.59.82s-.7-.5-.92-1.19l-.05-.15A1.27,1.27,0,0,1,16.8,10l-.62-.22-.27-.1-.23-.07a.68.68,0,0,1-.57-.08.87.87,0,0,1-.5-.7.66.66,0,0,0,0-.15,1.17,1.17,0,0,1,.08-1,1.69,1.69,0,0,0,.11-.27,1.41,1.41,0,0,1,.49-.68,1.23,1.23,0,0,0,.35-.4,1.66,1.66,0,0,1,1-1c.43-.19.49-.3.59-.49a.58.58,0,0,0,0-.38.8.8,0,0,1-.5.6c-.53.16-.81-.32-1-.64-.06-.1-.13-.22-.21-.33a.6.6,0,0,0-.1-.11.77.77,0,0,1,0,.73,1,1,0,0,1-1,.52,1.68,1.68,0,0,0-.31,0,1,1,0,0,1-.94-.29C13,4.83,13,4.83,13,4.83l-.15,0a2.84,2.84,0,0,1-.54.25,1.71,1.71,0,0,1-1.56-.24,2.13,2.13,0,0,0-.83-.39A1.73,1.73,0,0,1,9,4a.61.61,0,0,0-.14-.11c-.13-.09-.13-.09-.24-.07A4.76,4.76,0,0,0,8,4.09l-.33.14a1.33,1.33,0,0,1-1.13.12A4,4,0,0,1,5.7,4a1.35,1.35,0,0,0-.58-.12,2.56,2.56,0,0,1-1.21-.33,1.74,1.74,0,0,0-.62-.24,2.24,2.24,0,0,0-1,.47A2.29,2.29,0,0,0,2,4V4s0,.08,0,.12A1.59,1.59,0,0,1,1.94,5a1.76,1.76,0,0,1-.17.34l0,.08.17.06A1,1,0,0,1,2.64,6c.27.72-.3,1-.81,1.28-.07,0-.13.07,0,.47l0,.13.26.32c.12.15.26.32.38.5a3.21,3.21,0,0,0,.94-.92C3.85,7.19,4.22,7,4.56,7Z"/></g></svg>