<svg id="Layer_1" data-name="Layer 1" xmlns="http://www.w3.org/2000/svg" viewBox="0 0 24 24"><path d="M20.9,7.54H18L16.79,4.81a.5.5,0,0,0-.46-.29H11.88a.49.49,0,0,0-.45.29L10.21,7.54H3.1A1.45,1.45,0,0,0,1.65,9v9A1.45,1.45,0,0,0,3.1,19.48H20.9A1.45,1.45,0,0,0,22.35,18V9A1.45,1.45,0,0,0,20.9,7.54Zm-8.69-2H16l.91,2H11.3ZM8,13.51a5.57,5.57,0,0,0,3.05,5H7.35V8.54h3.72A5.57,5.57,0,0,0,8,13.51ZM13.6,8.92A4.59,4.59,0,1,1,9,13.51,4.6,4.6,0,0,1,13.6,8.92ZM2.65,18V9a.45.45,0,0,1,.45-.45H6.35v9.94H3.1A.45.45,0,0,1,2.65,18Zm18.7,0a.45.45,0,0,1-.45.45H16.14a5.57,5.57,0,0,0,0-9.94H20.9a.45.45,0,0,1,.45.45Z"/><path d="M13.6,17.4a3.89,3.89,0,1,0-3.89-3.89A3.9,3.9,0,0,0,13.6,17.4Zm0-6.78a2.89,2.89,0,1,1-2.89,2.89A2.9,2.9,0,0,1,13.6,10.62Z"/></svg>