<svg id="Layer_1" data-name="Layer 1" xmlns="http://www.w3.org/2000/svg" viewBox="0 0 24 24"><path d="M5,21.85a.83.83,0,0,1-.34-.07A.85.85,0,0,1,4.09,21L4,18.58a1.88,1.88,0,0,0-.89-1.51L1,15.77A.85.85,0,0,1,.61,15a.84.84,0,0,1,.55-.72l2.3-.87a1.87,1.87,0,0,0,1.16-1.31l.59-2.38a.85.85,0,0,1,.65-.63.87.87,0,0,1,.86.3l1.53,1.92a1.91,1.91,0,0,0,1.6.7l2.45-.17a.8.8,0,0,1,.8.42.85.85,0,0,1,0,.91l-1.35,2a1.88,1.88,0,0,0-.17,1.74l.92,2.27a.83.83,0,0,1-.15.89.84.84,0,0,1-.87.26h0L9.09,19.7a1.87,1.87,0,0,0-1.71.37L5.51,21.65A.89.89,0,0,1,5,21.85ZM1.78,15.07l1.84,1.15A2.89,2.89,0,0,1,5,18.54l.1,2.16,1.66-1.4a2.88,2.88,0,0,1,2.62-.57l2.09.58-.82-2a2.89,2.89,0,0,1,.27-2.66l1.19-1.82L9.93,13a2.89,2.89,0,0,1-2.46-1.08L6.11,10.2l-.52,2.1a2.9,2.9,0,0,1-1.78,2Zm9.94,4.31Z"/><path d="M20.48,17A.69.69,0,0,1,20,16.8h0l-1.1-1a.93.93,0,0,0-.83-.21L16.65,16a.73.73,0,0,1-.72-.24.71.71,0,0,1-.1-.75l.59-1.34a.94.94,0,0,0-.06-.86l-.77-1.25a.71.71,0,0,1,.68-1.09l1.46.15a.94.94,0,0,0,.8-.32l.95-1.12a.71.71,0,0,1,.72-.23.7.7,0,0,1,.53.54L21,10.89a.94.94,0,0,0,.55.66l1.36.56a.68.68,0,0,1,.44.61.7.7,0,0,1-.35.67l-1.27.74a.91.91,0,0,0-.46.73l-.11,1.46a.71.71,0,0,1-.45.61A.62.62,0,0,1,20.48,17Zm-2.19-2.4a2,2,0,0,1,1.29.5l.67.59.06-.89a1.94,1.94,0,0,1,1-1.52l.77-.45-.83-.34a1.92,1.92,0,0,1-1.15-1.37l-.19-.88-.58.68a1.91,1.91,0,0,1-1.66.67l-.89-.09.47.76A1.93,1.93,0,0,1,17.33,14l-.36.82.87-.21A1.74,1.74,0,0,1,18.29,14.58Zm4.25-2.06h0Zm-6.37-1.09Zm.27-.44Z"/><path d="M11.81,8.13h-.07a.65.65,0,0,1-.54-.44l-.35-1a.52.52,0,0,0-.36-.33l-1-.27A.66.66,0,0,1,9,5.6.64.64,0,0,1,9.26,5l.83-.64a.53.53,0,0,0,.2-.44l-.06-1a.66.66,0,0,1,1-.58l.86.6a.51.51,0,0,0,.48.05l1-.37a.66.66,0,0,1,.68.13.67.67,0,0,1,.18.67l-.3,1a.5.5,0,0,0,.1.47l.65.82a.67.67,0,0,1,.09.69.65.65,0,0,1-.58.37l-1.05,0a.53.53,0,0,0-.42.24l-.57.87A.64.64,0,0,1,11.81,8.13Zm.33-.77h0Zm0,0Zm-1.72-2,.33.09a1.51,1.51,0,0,1,1,1l.12.32.19-.29a1.5,1.5,0,0,1,1.23-.69h.35l-.22-.27a1.49,1.49,0,0,1-.28-1.38l.1-.34L13,3.85a1.52,1.52,0,0,1-1.4-.17l-.29-.2,0,.35a1.52,1.52,0,0,1-.6,1.28Zm3.52-1.85Z"/></svg>