<svg id="Layer_1" data-name="Layer 1" xmlns="http://www.w3.org/2000/svg" viewBox="0 0 24 24"><path d="M22.35,4.55a.56.56,0,0,0-.66-.11,5.93,5.93,0,0,1-2.31.79A4.68,4.68,0,0,0,18,3.46a4.83,4.83,0,0,0-4.13-.91,4.78,4.78,0,0,0-1.66,8.53,5.54,5.54,0,0,1-3,2,5.68,5.68,0,0,1-5.92-1.6.88.88,0,0,0-.83-.31.86.86,0,0,0-.66.56h0a7.53,7.53,0,0,0,.65,5.75,8,8,0,0,0,7.16,4.13,5.81,5.81,0,0,0,.59,0,8.5,8.5,0,0,0,8-5.64,6.81,6.81,0,0,0-.2-5,4.24,4.24,0,0,0,1.66-2.4,3.25,3.25,0,0,0,2.28-1.43C22.37,6.53,22.78,5,22.35,4.55Zm-5.26,5.86a.52.52,0,0,0-.2.67,6,6,0,0,1,.33,4.44,7.53,7.53,0,0,1-7.12,5A7.13,7.13,0,0,1,3.32,17a6.74,6.74,0,0,1-.68-4.76A6.48,6.48,0,0,0,9.46,14c2.64-.83,3.56-2,3.84-3a.5.5,0,0,0-.22-.58A3.8,3.8,0,0,1,17,3.9a4.15,4.15,0,0,1,.43.3A3.43,3.43,0,0,1,18.7,6.31a9,9,0,0,1,.1,1.05A3.38,3.38,0,0,1,17.09,10.41Zm4-3.77a2.31,2.31,0,0,1-1.25.94,8,8,0,0,0-.12-1.38,7.59,7.59,0,0,0,1.76-.52,2.73,2.73,0,0,1-.4,1Z"/><path d="M16,5a1.36,1.36,0,0,0-1.27,1,.52.52,0,0,0,1,.28s.1-.3.31-.3a.36.36,0,0,1,.34.22.51.51,0,0,0,.5.44.5.5,0,0,0,.5-.5A1.32,1.32,0,0,0,16,5Z"/><path d="M10,18.73A4.68,4.68,0,0,1,5.88,15.9.54.54,0,0,1,6,15.37a.52.52,0,0,1,.51-.15,7.88,7.88,0,0,0,3.77.07,5.55,5.55,0,0,0,2.8-1.9.5.5,0,0,1,.69-.14.49.49,0,0,1,.22.34c.24,1.5-.08,4.5-3,5.05A5.52,5.52,0,0,1,10,18.73ZM7.37,16.41a3.4,3.4,0,0,0,3.39,1.25A2.78,2.78,0,0,0,13,14.9a7,7,0,0,1-2.45,1.35A7.59,7.59,0,0,1,7.37,16.41Z"/></svg>