<svg id="Layer_1" data-name="Layer 1" xmlns="http://www.w3.org/2000/svg" viewBox="0 0 24 24"><path d="M23.33,9.58,21,7.18a.5.5,0,0,0-.19-.13l-.33-.12a.49.49,0,0,0-.45.07.84.84,0,0,0,.19-.51.83.83,0,0,0-.83-.83.78.78,0,0,0-.48.17.61.61,0,0,0,0-.3l-.12-.45a.54.54,0,0,0-.16-.26L16.15,2.64a.49.49,0,0,0-.82.37v.12a.54.54,0,0,0,.13.35l2.31,2.4A.5.5,0,0,0,18,6l.33.12a.47.47,0,0,0,.17,0,.43.43,0,0,0,.22-.06,1,1,0,0,0-.11.38.57.57,0,0,0-.29,0L14.57,7.72l-.1-2.58a.55.55,0,0,0-.21-.39l-.8-.57a.5.5,0,0,0-.29-.09h-2.5a.5.5,0,0,0-.29.09l-.8.57a.55.55,0,0,0-.21.39l-.1,2.58L5.56,6.48a.57.57,0,0,0-.29,0,1,1,0,0,0-.11-.38.43.43,0,0,0,.22.06.47.47,0,0,0,.17,0L5.88,6a.5.5,0,0,0,.19-.13l2.31-2.4a.54.54,0,0,0,.13-.35V3a.49.49,0,0,0-.82-.37L5.17,4.82A.56.56,0,0,0,5,5.07l-.12.46a.61.61,0,0,0,0,.3.78.78,0,0,0-.48-.17.83.83,0,0,0-.83.83A.82.82,0,0,0,3.79,7a.49.49,0,0,0-.45-.07L3,7.05a.5.5,0,0,0-.19.13L.51,9.58a.54.54,0,0,0-.13.35V10a.5.5,0,0,0,.29.46.49.49,0,0,0,.21,0,.49.49,0,0,0,.32-.12L3.72,8.23A.47.47,0,0,0,3.88,8L4,7.53a.54.54,0,0,0-.09-.41.8.8,0,0,0,.52.2.78.78,0,0,0,.5-.18.48.48,0,0,0,.27.27l4,1.77a.48.48,0,0,0,.08.16l.55.71v2.8l-.27.63s0,.06,0,.1a.37.37,0,0,0-.14.07L6,16.47a.46.46,0,0,0-.17.3.79.79,0,0,0-.37-.1.81.81,0,0,0-.53.2.48.48,0,0,0,.09-.4L4.89,16a.47.47,0,0,0-.16-.25L2.22,13.57a.51.51,0,0,0-.54-.08.5.5,0,0,0-.29.46v.12a.48.48,0,0,0,.14.34l2.3,2.41a.62.62,0,0,0,.19.12l.33.12.17,0A.49.49,0,0,0,4.8,17a.81.81,0,0,0-.19.5.85.85,0,0,0,.84.84.77.77,0,0,0,.47-.17.48.48,0,0,0,0,.29l.12.46a.5.5,0,0,0,.15.25L8.7,21.35a.46.46,0,0,0,.33.13.46.46,0,0,0,.2-.05.5.5,0,0,0,.3-.45v-.12a.52.52,0,0,0-.14-.35l-2.31-2.4A.35.35,0,0,0,6.89,18l-.33-.13a.47.47,0,0,0-.4.05.82.82,0,0,0,.12-.41,1.1,1.1,0,0,0,0-.16l.06,0a.51.51,0,0,0,.28-.09l3-2v.21a.48.48,0,0,0,.13.32l.84.92a.51.51,0,0,0,.37.16h2a.51.51,0,0,0,.37-.16l.84-.92a.48.48,0,0,0,.13-.32v-.23l3,2.06a.47.47,0,0,0,.28.09l.06,0a1.24,1.24,0,0,0,0,.16.83.83,0,0,0,.13.41.5.5,0,0,0-.41-.05L17,18a.44.44,0,0,0-.19.12l-2.3,2.4a.52.52,0,0,0-.14.35V21a.49.49,0,0,0,.29.45.54.54,0,0,0,.21.05.48.48,0,0,0,.33-.13l2.51-2.18a.51.51,0,0,0,.16-.25l.12-.46a.48.48,0,0,0,0-.29.82.82,0,0,0,.48.17.84.84,0,0,0,.83-.84.8.8,0,0,0-.18-.5.44.44,0,0,0,.27.09.47.47,0,0,0,.17,0l.33-.12a.52.52,0,0,0,.19-.12l2.31-2.41a.48.48,0,0,0,.14-.34V14a.51.51,0,0,0-.3-.46.49.49,0,0,0-.53.08l-2.52,2.19A.46.46,0,0,0,19,16l-.12.46a.45.45,0,0,0,.09.4.85.85,0,0,0-.53-.2.83.83,0,0,0-.38.1.46.46,0,0,0-.17-.3l-3.44-2.82a.66.66,0,0,0-.19-.09.22.22,0,0,0,0-.08L14,12.85v-2.8l.55-.71a.8.8,0,0,0,.08-.16l4-1.77a.48.48,0,0,0,.27-.27.78.78,0,0,0,.5.18.8.8,0,0,0,.52-.2.54.54,0,0,0-.09.41L20,8a.47.47,0,0,0,.16.25l2.52,2.19a.49.49,0,0,0,.32.12.52.52,0,0,0,.21,0,.5.5,0,0,0,.29-.46V9.93A.54.54,0,0,0,23.33,9.58ZM4.27,6.49a.17.17,0,0,1,.16-.17.17.17,0,0,1,.17.17C4.6,6.67,4.27,6.67,4.27,6.49Zm1,11a.16.16,0,0,1,.17-.16.16.16,0,0,1,.16.16C5.61,17.69,5.28,17.69,5.28,17.5Zm13.15-.16a.16.16,0,0,1,.16.16c0,.19-.33.19-.33,0A.17.17,0,0,1,18.43,17.34Zm-5.19-2.11-.56.61H11.16l-.56-.61,0-1.46.27-.62a.65.65,0,0,0,0-.2V9.88a.46.46,0,0,0-.11-.3l-.53-.7.13-3.45.47-.34H13l.47.34.13,3.45-.53.7a.46.46,0,0,0-.11.3V13a.65.65,0,0,0,0,.2l.27.62Zm6-8.74a.17.17,0,0,1,.17-.17.17.17,0,0,1,.16.17C19.57,6.67,19.24,6.67,19.24,6.49Z"/></svg>