<svg id="Layer_1" data-name="Layer 1" xmlns="http://www.w3.org/2000/svg" viewBox="0 0 24 24"><path d="M20.29,6.66l-2.48-2a.58.58,0,0,0-.34-.11H12.54V2.81a.54.54,0,0,0-1.08,0V4.57H7a.54.54,0,0,0-.54.53v4A.54.54,0,0,0,7,9.6h4.5v1H6.53a.58.58,0,0,0-.34.11l-2.48,2a.55.55,0,0,0-.2.42.52.52,0,0,0,.2.42l2.48,2a.52.52,0,0,0,.34.12h4.93v5.58a.54.54,0,0,0,1.08,0V15.61H17a.54.54,0,0,0,.54-.54v-4a.54.54,0,0,0-.54-.53h-4.5v-1h4.93a.52.52,0,0,0,.34-.12l2.48-2a.52.52,0,0,0,.2-.42A.55.55,0,0,0,20.29,6.66Zm-3.78,5v2.89H6.71l-1.8-1.45,1.8-1.44Zm.78-3.12H7.49V5.64h9.8l1.8,1.44Z"/></svg>