<svg id="Layer_6" data-name="Layer 6" xmlns="http://www.w3.org/2000/svg" viewBox="0 0 24 24"><g id="Layer_21" data-name="Layer 21"><path d="M16.36,20.57a2.08,2.08,0,0,1-1.11-.38,5.1,5.1,0,0,0-.62-.31,3.32,3.32,0,0,0-1.92-.24l-.35.05a2.09,2.09,0,0,1-2.07-.39l-.23-.22A4,4,0,0,1,9.43,19l-.36-.09c-.86-.21-1.75-.43-2-1.1A3.36,3.36,0,0,1,7,17.3c0-.26-.06-.32-.32-.47l-.32-.19a2.52,2.52,0,0,0-1.39-.49c-.37,0-2.2,0-2.55-.78l-.09-.23a4,4,0,0,0-.47-.84A2,2,0,0,0,1.56,14a1.35,1.35,0,0,1-.38-1.44,2,2,0,0,0,0-.69,1.16,1.16,0,0,1,.48-1.33,3.07,3.07,0,0,1,.57-.29.85.85,0,0,0,.54-.47,4.92,4.92,0,0,1,.49-.72,2,2,0,0,0,.42-.75,3.08,3.08,0,0,0,.12-.62A1.21,1.21,0,0,1,4,7.11H4a1.22,1.22,0,0,1,1.07-.65,1.66,1.66,0,0,0,.43-.06l.62-.14a3.32,3.32,0,0,0,.74-.21,3.27,3.27,0,0,0,.83-.65,2.61,2.61,0,0,1,1.14-.83c.13-.06.26-.1.37-.14a2.35,2.35,0,0,0,.67-.34,1.61,1.61,0,0,1,1.73-.43,2.13,2.13,0,0,0,.59.14c.15,0,.3.05.43.09l.2,0a1.56,1.56,0,0,1,.84.37l.11.09a1.53,1.53,0,0,1,1.05-.84c.24-.19.54-.14,1,0a1.82,1.82,0,0,1,.68.4A5.79,5.79,0,0,1,18,3.53a.84.84,0,0,1,.3.06l.65.19a6.48,6.48,0,0,1,1.59.58A2,2,0,0,1,21.7,5.45a3.06,3.06,0,0,0,.2.33,3.89,3.89,0,0,1,.39.78,5.05,5.05,0,0,0,.26.55,2,2,0,0,1,.29.76,2.74,2.74,0,0,1-.33,1.71,3.78,3.78,0,0,0-.19.63,2.45,2.45,0,0,1-.46,1.09l-.31.32a1.67,1.67,0,0,0-.39.48,2,2,0,0,1-.12.42,1.28,1.28,0,0,0-.09.73,2.69,2.69,0,0,0,.23,1.28c.2.37.66,1.24.11,1.87a1.79,1.79,0,0,1-.74.48.68.68,0,0,0-.17.08v0a2.34,2.34,0,0,1-.74.9c-.31.25-.83.79-1.09,1.06a2.08,2.08,0,0,1-.66.6,1.94,1.94,0,0,0-.44.41A1.41,1.41,0,0,1,16.36,20.57ZM13.3,18.52a4.55,4.55,0,0,1,1.71.36,5.47,5.47,0,0,1,.77.39,1.22,1.22,0,0,0,.58.24c.06,0,.09,0,.29-.25a3.34,3.34,0,0,1,.63-.59l.25-.18.16-.17A15.34,15.34,0,0,1,19,17.06a1.39,1.39,0,0,0,.46-.55l.06-.13a1.28,1.28,0,0,1,.66-.49.84.84,0,0,0,.34-.19s0-.17-.25-.67a3.87,3.87,0,0,1-.36-1.72,2.47,2.47,0,0,1,.17-1.18c0-.08.05-.14.07-.21a2,2,0,0,1,.68-1.05l.26-.27a1.84,1.84,0,0,0,.23-.64,4.13,4.13,0,0,1,.25-.81,1.69,1.69,0,0,0,.25-1.09,1.06,1.06,0,0,0-.16-.43A4.13,4.13,0,0,1,21.3,7a2.6,2.6,0,0,0-.3-.6c-.06-.11-.14-.22-.24-.42-.2-.39-.21-.41-.65-.63a5.73,5.73,0,0,0-1.39-.5c-.44-.12-.62-.18-.71-.21A6.06,6.06,0,0,0,16.89,5a.81.81,0,0,1-1.06-.17.84.84,0,0,0-.35-.22l-.23-.07a.81.81,0,0,1-.29.1s-.22.13-.37.5a.89.89,0,0,1-.6.57.89.89,0,0,1-.79-.34,1.23,1.23,0,0,0-.2-.19A.56.56,0,0,0,12.64,5l-.28-.06L12,4.85a3.18,3.18,0,0,1-.89-.24s-.27,0-.57.3a3.06,3.06,0,0,1-1,.52l-.33.13a1.4,1.4,0,0,0-.71.51A4.46,4.46,0,0,1,7.38,7a3.64,3.64,0,0,1-1,.33l-.59.14a3.29,3.29,0,0,1-.64.09H5s0,0-.15.19l-.43-.31.43.31a.46.46,0,0,1,0,.1,5.24,5.24,0,0,1-.16.78,2.94,2.94,0,0,1-.6,1.11,3.86,3.86,0,0,0-.39.58,1.85,1.85,0,0,1-1.07.94,3,3,0,0,0-.4.2c0,.05,0,.19,0,.28a2.91,2.91,0,0,1,0,1c-.07.34-.07.34.09.5a4.64,4.64,0,0,1,.36.42,4.31,4.31,0,0,1,.58,1.06l.05.11a4.8,4.8,0,0,0,1.61.24,3.47,3.47,0,0,1,1.93.64l.3.17A1.5,1.5,0,0,1,8,17.12a1,1,0,0,0,.07.28,3.88,3.88,0,0,0,1.26.44l.37.1c.22.06.35.07.44.09a1.3,1.3,0,0,1,.91.52c.21.22.4.21,1.14.09l.36-.06A5.25,5.25,0,0,1,13.3,18.52Zm-10-3.7ZM4.85,7.73l-.43-.31.43.31Z"/></g></svg>