<svg id="Layer_1" data-name="Layer 1" xmlns="http://www.w3.org/2000/svg" viewBox="0 0 24 24"><path d="M19.49,4A2.8,2.8,0,0,0,16.7,6.79a3.52,3.52,0,0,0,.22,1.06,25.16,25.16,0,0,0,2.21,4.23.41.41,0,0,0,.36.2h0a.42.42,0,0,0,.35-.19,25.71,25.71,0,0,0,2.22-4.23,3.58,3.58,0,0,0,.22-1.08A2.8,2.8,0,0,0,19.49,4Zm1.94,2.78a2.49,2.49,0,0,1-.17.81A21.76,21.76,0,0,1,19.49,11a23,23,0,0,1-1.77-3.47,2.78,2.78,0,0,1-.16-.79,1.94,1.94,0,0,1,3.87,0Z"/><path d="M19.49,5.38a1.25,1.25,0,1,0,1.25,1.25A1.25,1.25,0,0,0,19.49,5.38Zm0,1.73A.49.49,0,1,1,20,6.63.49.49,0,0,1,19.49,7.11Z"/><path d="M19.5,12.78a1,1,0,0,1-.51-.15V19l-3.38-1.56V7.29l.72.33a3.61,3.61,0,0,1-.13-.81c0-.12,0-.22,0-.34l-.91-.42h-.09l-.12,0L15,6H14.9L10.73,8,6.55,6.05H6.47L6.34,6,6.23,6H6.14l-4.39,2a.51.51,0,0,0-.29.45V19.77a.52.52,0,0,0,.23.42.53.53,0,0,0,.27.08.54.54,0,0,0,.21-.05L6.35,18.3l4.17,1.92a.47.47,0,0,0,.42,0l4.17-1.92,4.17,1.92a.54.54,0,0,0,.21.05.5.5,0,0,0,.27-.08.49.49,0,0,0,.23-.42V12.63A.84.84,0,0,1,19.5,12.78Zm-17-3.94L5.85,7.29V17.43L2.46,19ZM6.85,7.29l3.38,1.55V19L6.85,17.43Zm4.38,1.55,3.38-1.55V17.43L11.23,19Z"/></svg>