<svg id="Layer_6" data-name="Layer 6" xmlns="http://www.w3.org/2000/svg" viewBox="0 0 24 24"><g id="Layer_13" data-name="Layer 13"><path d="M4.77,23.5H4.65c-.84-.1-1.87-.53-2-1.45a2.87,2.87,0,0,1,.26-1.65c-.48-.16-.82-.29-.77-.79s.25-.66.68-.81c-.35-.12-.55-.28-.53-.61a1,1,0,0,0,0-.25,1.29,1.29,0,0,1,.47-1.13,2.55,2.55,0,0,0,.38-.53c.2-.32.42-.69.85-.73l.22-.21a1.72,1.72,0,0,1,1-.56,1.43,1.43,0,0,0,.57-.16A2.83,2.83,0,0,1,6.4,13a11.22,11.22,0,0,0,1-1.49l.22-.34a4.11,4.11,0,0,0,.26-.88,2.43,2.43,0,0,1,.44-1.18,10.68,10.68,0,0,0,1.1-1.32,2.63,2.63,0,0,0,.15-.49c0-.16.08-.32.13-.47A.6.6,0,0,0,9.43,7c-.51.57-.95.35-1.07.27-.53-.36-.45-1.43-.27-1.78A2.45,2.45,0,0,1,10,4.6h.18a3.71,3.71,0,0,1,1.28.23.83.83,0,0,0,.08-.18c0-.27.27-1.67,1-1.82a1.83,1.83,0,0,0,.36-.1,2,2,0,0,1,1.24-.13,1,1,0,0,0,.22-.23,1.62,1.62,0,0,0,.11-.3A1.32,1.32,0,0,1,15.3,1a1.17,1.17,0,0,0,.3-.12A3.22,3.22,0,0,1,16.69.55c.66-.12,1,0,1.29.35a5.53,5.53,0,0,0,1.66,0,2.09,2.09,0,0,1,1.85.34.77.77,0,0,1,.36.83,3.78,3.78,0,0,1-.37.9,3.27,3.27,0,0,0-.14.3s0,0,.07.12a1.86,1.86,0,0,1,.14.75c0,.45-.45.67-.77.85a1.58,1.58,0,0,0-.42.29.68.68,0,0,1-.77.37c-.47-.13-.57-.75-.57-1.24,0-.15,0-.3,0-.42a1.33,1.33,0,0,0,0-.27,1.11,1.11,0,0,0-.74.09,15.48,15.48,0,0,0-.4,1.78,1.11,1.11,0,0,1-.37.82,1.23,1.23,0,0,1-1,.16c-.19,0-.37-.05-.54-.07-.57,0-1.22-.11-1.44-.74l-.09-.25c0-.12-.09-.28-.13-.39a.8.8,0,0,0-.34.29c0,.07,0,.1,0,.12a1.32,1.32,0,0,1-.05,1.31.9.9,0,0,1-.91.27,1,1,0,0,0-.87.33l-.05,0c-.68.56-.8.78-.81.86a5.6,5.6,0,0,1-.88,2.43,1.87,1.87,0,0,0-.21.71,3.64,3.64,0,0,1-.15.63c-.05.15-.13.34-.22.54a4.68,4.68,0,0,0-.32.89,2,2,0,0,1-1,1.49c-.11.06-.13.39-.15.8a7.05,7.05,0,0,0,.15,2.23,1.62,1.62,0,0,1,0,1.11.73.73,0,0,0,0,.33,2.75,2.75,0,0,1-.43,2.13c-.3.33-.68.75-1.16.64A.65.65,0,0,1,6.47,22a1.44,1.44,0,0,1-.2.33l-.08.11C5.93,22.82,5.45,23.5,4.77,23.5Zm-.88-4,.33.53L4,20.34a.68.68,0,0,0-.1.2,2.32,2.32,0,0,0-.29,1.36c0,.3.62.54,1.13.6,0,0,.2-.06.6-.63,0-.08.1-.14.13-.18a1.79,1.79,0,0,0,.24-.82A.94.94,0,0,1,6.26,20a.6.6,0,0,1,.67.08.58.58,0,0,1,.12.68.94.94,0,0,0,.06.18l.09.22L7.28,21a1.84,1.84,0,0,0,.23-1.22,1.61,1.61,0,0,1,0-.86c.07-.23.09-.34,0-.45a8.3,8.3,0,0,1-.23-2.68c0-.64.07-1.29.67-1.62a1.19,1.19,0,0,0,.48-.62,3.9,3.9,0,0,1,.4-1.29c.08-.17.15-.34.2-.47a3,3,0,0,0,.1-.47,2.39,2.39,0,0,1,.43-1.18,5,5,0,0,0,.65-1.79c0-.05,0-.09,0-.14A11.35,11.35,0,0,1,9.05,9.79a5.7,5.7,0,0,0-.18.69,3.76,3.76,0,0,1-.39,1.2L8.27,12A10.75,10.75,0,0,1,7.1,13.68a2,2,0,0,0-.36,1.08c0,.66-.91,1-1.48,1a2,2,0,0,0-.38.3,1.69,1.69,0,0,1-.71.45c0,.06-.12.18-.18.27a3.79,3.79,0,0,1-.52.72c-.19.18-.18.18-.18.38h0l.35.09c.67.17,1.2.3,1.1.84-.07.37-.42.55-.87.7Zm-.77-.15Zm1-2.83ZM9.86,5.78a1.15,1.15,0,0,1,.7.22.7.7,0,0,1,.17,1,2.67,2.67,0,0,0-.17.54l-.06.25a4.2,4.2,0,0,1,1-1l.35.35-.3-.39a2,2,0,0,1,1.6-.56c0-.06,0-.15-.08-.26a1.18,1.18,0,0,1,.11-.95,2,2,0,0,1,1.17-.82c.73-.13,1,.65,1.12,1.12l.08.23a3.62,3.62,0,0,0,.59.08,4.53,4.53,0,0,1,.62.07l.17,0s0,0,0-.08a13.39,13.39,0,0,1,.52-2.18,1.18,1.18,0,0,1,.85-.58A1.74,1.74,0,0,1,19.67,3,1.16,1.16,0,0,1,20,4.12a1.23,1.23,0,0,0,0,.2l.27-.16L20.54,4c0-.07-.05-.17-.07-.25A1.09,1.09,0,0,1,20.38,3a3.19,3.19,0,0,1,.21-.48A5.05,5.05,0,0,0,20.83,2a1.64,1.64,0,0,0-.76-.19,5.24,5.24,0,0,1-2.47,0,.8.8,0,0,1-.42-.34l-.32,0a2.52,2.52,0,0,0-.81.24,1.81,1.81,0,0,1-.49.2,1.46,1.46,0,0,0-.14.38,1.86,1.86,0,0,1-.25.6s-.54.76-1.11.73a.57.57,0,0,1-.36-.13,4.91,4.91,0,0,0-.51.15c-.15,0-.29.09-.4.11a2.4,2.4,0,0,0-.31.87A1.54,1.54,0,0,1,11.64,6a.63.63,0,0,1-.71-.26s-.35-.05-.86-.08l-.26,0A2.3,2.3,0,0,0,9,6a.31.31,0,0,0,0,.11A1.47,1.47,0,0,1,9.86,5.78ZM8.6,6.43Zm4.68-.26Zm-1.52-1Zm1.77-1.77Z"/></g></svg>