<svg xmlns="http://www.w3.org/2000/svg" viewBox="0 0 4736.23 818.91"><defs><style>.cls-1{fill:#fff;}.cls-2{fill:none;}</style></defs><g id="Layer_2" data-name="Layer 2"><g id="card_photography" data-name="card photography"><g id="tagline_photography" data-name="tagline photography"><path class="cls-1" d="M3299.63,739.71V566.46h34.46v21.17h1.55a46.25,46.25,0,0,1,6.69-10.38,35.1,35.1,0,0,1,11.48-8.86q7.09-3.57,17.68-3.57a47.59,47.59,0,0,1,25.43,7.18q11.65,7.18,18.62,21.58t7,36q0,21.07-6.76,35.56t-18.38,21.9a47.17,47.17,0,0,1-26,7.43q-10.17,0-17.27-3.37a35.37,35.37,0,0,1-11.61-8.49,42.36,42.36,0,0,1-6.89-10.37h-1.06v67.42Zm34.21-110.25a56,56,0,0,0,3.12,19.61,28.73,28.73,0,0,0,9,13,24.48,24.48,0,0,0,28.79-.08,29.07,29.07,0,0,0,9-13.12,62.49,62.49,0,0,0,.05-38.6,28.67,28.67,0,0,0-9-13,22.61,22.61,0,0,0-14.51-4.68,23,23,0,0,0-14.4,4.51,28.14,28.14,0,0,0-9,12.8A55.36,55.36,0,0,0,3333.84,629.46Z"/><path class="cls-1" d="M3480.67,619.62v72.84h-34.94v-168h34V588.7h1.47A35.92,35.92,0,0,1,3495,571.18q9.51-6.36,23.87-6.36,13.13,0,22.92,5.71A39,39,0,0,1,3557,586.85q5.46,10.62,5.38,25.39v80.22h-35v-74q.08-11.64-5.87-18.13T3505,593.86a25.53,25.53,0,0,0-12.59,3,21.17,21.17,0,0,0-8.53,8.82A30,30,0,0,0,3480.67,619.62Z"/><path class="cls-1" d="M3646.87,694.93q-19.12,0-33-8.17A55.14,55.14,0,0,1,3592.4,664q-7.56-14.64-7.55-34,0-19.53,7.55-34.17a55.14,55.14,0,0,1,21.45-22.8q13.91-8.16,33-8.17t33,8.17a55.14,55.14,0,0,1,21.45,22.8q7.56,14.64,7.55,34.17,0,19.35-7.55,34a55.14,55.14,0,0,1-21.45,22.8Q3666,694.94,3646.87,694.93Zm.16-27.07a21.59,21.59,0,0,0,14.52-5,30.58,30.58,0,0,0,8.82-13.57,65.77,65.77,0,0,0,0-39.21,30.87,30.87,0,0,0-8.82-13.62,21.47,21.47,0,0,0-14.52-5,22.1,22.1,0,0,0-14.73,5,30.38,30.38,0,0,0-8.94,13.62,65.77,65.77,0,0,0,0,39.21,30.1,30.1,0,0,0,8.94,13.57A22.23,22.23,0,0,0,3647,667.86Z"/><path class="cls-1" d="M3798.7,566.46v26.25h-75.87V566.46Zm-58.65-30.18H3775V653.75a15.7,15.7,0,0,0,1.47,7.5,8.09,8.09,0,0,0,4.15,3.73,16.38,16.38,0,0,0,6.19,1.07,27.29,27.29,0,0,0,4.92-.45l3.77-.7,5.5,26c-1.75.54-4.21,1.19-7.38,1.92a62,62,0,0,1-11.57,1.36q-12.63.49-22.11-3.37a30.91,30.91,0,0,1-14.72-12q-5.25-8.13-5.17-20.51Z"/><path class="cls-1" d="M3877,694.93q-19.11,0-33-8.17a55.14,55.14,0,0,1-21.45-22.8q-7.56-14.64-7.55-34,0-19.53,7.55-34.17A55.14,55.14,0,0,1,3844,573q13.91-8.16,33-8.17t33,8.17a55.14,55.14,0,0,1,21.45,22.8q7.54,14.64,7.55,34.17,0,19.35-7.55,34a55.14,55.14,0,0,1-21.45,22.8Q3896.16,694.94,3877,694.93Zm.17-27.07a21.63,21.63,0,0,0,14.52-5,30.58,30.58,0,0,0,8.82-13.57,65.77,65.77,0,0,0,0-39.21,30.87,30.87,0,0,0-8.82-13.62,21.51,21.51,0,0,0-14.52-5,22.1,22.1,0,0,0-14.73,5,30.38,30.38,0,0,0-8.94,13.62,65.77,65.77,0,0,0,0,39.21,30.1,30.1,0,0,0,8.94,13.57A22.23,22.23,0,0,0,3877.21,667.86Z"/><path class="cls-1" d="M4018.63,741.52q-17,0-29.08-4.59t-19.24-12.39a37.54,37.54,0,0,1-9.27-17.31l32.32-4.35a20.2,20.2,0,0,0,4.68,6.52,24.08,24.08,0,0,0,8.49,5.05,37.28,37.28,0,0,0,12.92,2q11.4,0,18.83-5.42t7.42-17.8V670.15h-1.48a33.28,33.28,0,0,1-6.89,9.93,34.69,34.69,0,0,1-11.81,7.63,45.4,45.4,0,0,1-17.23,2.95,51.28,51.28,0,0,1-25.8-6.6q-11.61-6.6-18.45-20.27t-6.85-34.57q0-21.4,7-35.77T3982.74,572a47.69,47.69,0,0,1,25.47-7.14q10.59,0,17.72,3.57a35.1,35.1,0,0,1,11.53,8.86,48.94,48.94,0,0,1,6.76,10.38h1.32V566.46h34.69V693.7q0,15.75-7.87,26.37t-21.78,16Q4036.68,741.51,4018.63,741.52Zm.74-77.11a23.87,23.87,0,0,0,14.31-4.22,26.73,26.73,0,0,0,9-12.15q3.15-7.9,3.15-19a54,54,0,0,0-3.11-19.23,28.12,28.12,0,0,0-9-12.68,25.06,25.06,0,0,0-28.87.13,28.3,28.3,0,0,0-8.94,12.84,54.26,54.26,0,0,0-3,18.94,52,52,0,0,0,3.08,18.83,26.64,26.64,0,0,0,8.94,12.22Q4010.76,664.41,4019.37,664.41Z"/><path class="cls-1" d="M4108.12,692.46v-126H4142v22h1.32q3.43-11.73,11.56-17.76a30.56,30.56,0,0,1,18.71-6,52.66,52.66,0,0,1,5.66.33,40.57,40.57,0,0,1,5.33.9v31a45.59,45.59,0,0,0-6.81-1.31,60,60,0,0,0-8-.58,28,28,0,0,0-13.74,3.32,24.66,24.66,0,0,0-9.51,9.23,26.25,26.25,0,0,0-3.49,13.62v71.28Z"/><path class="cls-1" d="M4234.94,694.84a52,52,0,0,1-21.49-4.22,34,34,0,0,1-14.89-12.55q-5.45-8.33-5.45-20.8,0-10.5,3.85-17.63a31.22,31.22,0,0,1,10.5-11.49,51,51,0,0,1,15.14-6.56,114.61,114.61,0,0,1,17.84-3.12q11-1.14,17.72-2.17t9.76-3.08a6.85,6.85,0,0,0,3-6.07v-.49q0-7.78-4.88-12.06t-13.83-4.26q-9.43,0-15,4.14a19.4,19.4,0,0,0-7.38,10.38l-32.32-2.63a44.22,44.22,0,0,1,9.68-19.89,46.82,46.82,0,0,1,18.66-13q11.45-4.56,26.54-4.56a80.7,80.7,0,0,1,20.14,2.47,53.18,53.18,0,0,1,17.14,7.62,37.47,37.47,0,0,1,11.85,13.25q4.35,8.08,4.35,19.32v85h-33.14V675h-1a35.13,35.13,0,0,1-8.12,10.38,36.77,36.77,0,0,1-12.23,7A49.71,49.71,0,0,1,4234.94,694.84Zm10-24.11a29.09,29.09,0,0,0,13.62-3.08,23.71,23.71,0,0,0,9.27-8.33,21.55,21.55,0,0,0,3.36-11.89V634.06a18,18,0,0,1-4.47,1.93q-2.83.85-6.36,1.55t-7.05,1.24c-2.35.35-4.48.67-6.4.94a43.41,43.41,0,0,0-10.75,2.87,17.32,17.32,0,0,0-7.13,5.29,13.13,13.13,0,0,0-2.54,8.24q0,7.14,5.2,10.87T4245,670.73Z"/><path class="cls-1" d="M4333.05,739.71V566.46h34.45v21.17h1.56a46.25,46.25,0,0,1,6.69-10.38,35.1,35.1,0,0,1,11.48-8.86q7.1-3.57,17.68-3.57a47.59,47.59,0,0,1,25.43,7.18q11.65,7.18,18.62,21.58t7,36q0,21.07-6.76,35.56t-18.38,21.9a47.17,47.17,0,0,1-26,7.43q-10.17,0-17.27-3.37a35.37,35.37,0,0,1-11.61-8.49,42.36,42.36,0,0,1-6.89-10.37H4368v67.42Zm34.21-110.25a56,56,0,0,0,3.12,19.61,28.73,28.73,0,0,0,9,13,24.48,24.48,0,0,0,28.79-.08,29.07,29.07,0,0,0,9-13.12,62.49,62.49,0,0,0,.05-38.6,28.67,28.67,0,0,0-8.95-13,22.62,22.62,0,0,0-14.52-4.68,23,23,0,0,0-14.39,4.51,28.14,28.14,0,0,0-9,12.8A55.36,55.36,0,0,0,4367.26,629.46Z"/><path class="cls-1" d="M4514.09,619.62v72.84h-34.94v-168h34V588.7h1.47a35.92,35.92,0,0,1,13.79-17.52q9.51-6.36,23.87-6.36,13.13,0,22.92,5.71a39,39,0,0,1,15.26,16.32q5.46,10.62,5.38,25.39v80.22h-34.95v-74q.07-11.64-5.87-18.13t-16.61-6.48a25.53,25.53,0,0,0-12.59,3,21.17,21.17,0,0,0-8.53,8.82A30,30,0,0,0,4514.09,619.62Z"/><path class="cls-1" d="M4640.34,739.47a70.57,70.57,0,0,1-12.43-1,50.63,50.63,0,0,1-9.56-2.5l7.88-26.17q9.27,2.88,15.62,1.52t10-9.88l2.05-5.34-45.2-129.61h36.75L4671.59,659h1.31l26.34-92.54,37,.17-49,139.45a58.82,58.82,0,0,1-9.56,17.6,40.72,40.72,0,0,1-15.21,11.65Q4653.3,739.47,4640.34,739.47Z"/></g><g id="name"><path class="cls-1" d="M1357.22,623.54q-44.1,0-75.53-11.93t-50-32.17q-18.54-20.25-24.08-45l83.95-11.29a52.23,52.23,0,0,0,12.14,16.94q8.31,8,22.06,13.1t33.56,5.12q29.61,0,48.89-14.07t19.29-46.23V438.18h-3.84A86.26,86.26,0,0,1,1405.8,464q-11.92,12.14-30.68,19.81t-44.74,7.67q-36.87,0-67-17.15t-47.94-52.63q-17.79-35.48-17.79-89.8,0-55.62,18.11-92.9T1264,183.13a124,124,0,0,1,66.16-18.53q27.48,0,46,9.27t29.93,23a126.9,126.9,0,0,1,17.58,27h3.41v-55h90.13V499.33q0,40.91-20.46,68.5t-56.57,41.65Q1404.11,623.55,1357.22,623.54Zm1.92-200.28q21.94,0,37.18-11t23.44-31.54q8.21-20.55,8.2-49.32t-8.09-50q-8.1-21.19-23.44-32.91t-37.29-11.72q-22.37,0-37.71,12t-23.23,33.34q-7.87,21.32-7.88,49.22,0,28.33,8,48.9t23.23,31.75Q1336.77,423.26,1359.14,423.26Z"/><path class="cls-1" d="M1680.45,59.77V496.13h-90.77V59.77Z"/><path class="cls-1" d="M1900.75,502.52q-49.65,0-85.76-21.2t-55.72-59.23q-19.61-38-19.6-88.32,0-50.7,19.6-88.74T1815,185.8q36.12-21.21,85.76-21.2t85.76,21.2Q2022.63,207,2042.23,245t19.6,88.74q0,50.3-19.6,88.32t-55.72,59.23Q1950.39,502.53,1900.75,502.52Zm.43-70.31q22.58,0,37.71-12.89t22.91-35.26q7.77-22.38,7.77-50.93t-7.77-50.92q-7.79-22.36-22.91-35.37t-37.71-13q-22.8,0-38.25,13t-23.22,35.37q-7.79,22.37-7.78,50.92t7.78,50.93q7.77,22.37,23.22,35.26T1901.18,432.21Z"/><path class="cls-1" d="M2268.93,502.52q-49.65,0-85.76-21.2t-55.72-59.23q-19.6-38-19.6-88.32,0-50.7,19.6-88.74t55.72-59.23q36.12-21.21,85.76-21.2t85.76,21.2Q2390.81,207,2410.41,245t19.6,88.74q0,50.3-19.6,88.32t-55.72,59.23Q2318.57,502.53,2268.93,502.52Zm.43-70.31q22.57,0,37.71-12.89t22.9-35.26q7.79-22.38,7.78-50.93T2330,282.21q-7.77-22.36-22.9-35.37t-37.71-13q-22.8,0-38.25,13t-23.22,35.37q-7.79,22.37-7.78,50.92t7.78,50.93q7.77,22.37,23.22,35.26T2269.36,432.21Z"/><path class="cls-1" d="M2489.24,496.13V168.86h86.51V226.6h3.83q10.23-28.77,34.09-45.38t57.11-16.62q33.66,0,57.31,16.72t31.54,45.28h3.4q10-28.12,36.33-45.06t62.32-16.94q45.81,0,74.47,29.08T2964.81,276v220.1h-90.56V293.93q0-27.27-14.48-40.91t-36.22-13.64q-24.72,0-38.57,15.66t-13.85,41.23V496.13h-88V292q0-24.08-13.74-38.35t-36.11-14.28a50,50,0,0,0-27.17,7.57A53.31,53.31,0,0,0,2587,268q-7,13.53-7,31.64V496.13Z"/><path class="cls-1" d="M3082.21,126.67a49.08,49.08,0,0,1-34.73-13.53Q3033,99.61,3033,80.65q0-18.75,14.49-32.28A48.81,48.81,0,0,1,3082,34.84q20.46,0,34.84,13.53t14.38,32.28q0,19-14.38,32.49T3082.21,126.67ZM3036.4,496.13V168.86h90.76V496.13Z"/><path class="cls-1" d="M3347.47,502.52q-50.29,0-86.4-21.41a142.44,142.44,0,0,1-55.4-59.55q-19.29-38.15-19.28-87.79,0-50.28,19.49-88.31T3261.39,186q36-21.42,85.65-21.41,42.83,0,75,15.55T3473,223.83q18.74,28.13,20.66,66H3408q-3.63-24.5-19.07-39.52t-40.38-15q-21.09,0-36.75,11.39t-24.4,33.14q-8.73,21.74-8.73,52.62,0,31.32,8.63,53.27t24.39,33.45q15.76,11.51,36.86,11.51a60.52,60.52,0,0,0,28-6.39,54.65,54.65,0,0,0,20.67-18.65q8.21-12.24,10.76-29.51h85.65q-2.13,37.51-20.34,65.95t-50.18,44.42Q3391.15,502.53,3347.47,502.52Z"/><path class="cls-1" d="M3597.82,126.67a49.11,49.11,0,0,1-34.73-13.53q-14.49-13.53-14.49-32.49,0-18.75,14.49-32.28a48.85,48.85,0,0,1,34.52-13.53q20.46,0,34.84,13.53t14.38,32.28q0,19-14.38,32.49T3597.82,126.67ZM3552,496.13V168.86h90.77V496.13Z"/><path class="cls-1" d="M3863.09,502.52q-49.65,0-85.76-21.2t-55.72-59.23q-19.61-38-19.6-88.32,0-50.7,19.6-88.74t55.72-59.23q36.11-21.21,85.76-21.2t85.75,21.2Q3985,207,4004.56,245t19.61,88.74q0,50.3-19.61,88.32t-55.72,59.23Q3912.73,502.53,3863.09,502.52Zm.42-70.31q22.59,0,37.71-12.89t22.91-35.26q7.77-22.38,7.78-50.93t-7.78-50.92q-7.78-22.36-22.91-35.37t-37.71-13q-22.8,0-38.24,13T3802,282.21q-7.78,22.37-7.78,50.92t7.78,50.93q7.77,22.37,23.23,35.26T3863.51,432.21Z"/><path class="cls-1" d="M4293.27,356.78V168.86H4384V496.13h-87.14V436.68h-3.41a96.89,96.89,0,0,1-36.75,46.24q-25.68,17.47-62.54,17.47-32.82,0-57.74-14.91t-38.89-42.4q-14-27.49-14.16-65.84V168.86h90.76V361.05q.21,29,15.56,45.81t41.12,16.83a64.47,64.47,0,0,0,30.68-7.57,58.51,58.51,0,0,0,23.12-22.47Q4293.47,378.73,4293.27,356.78Z"/><path class="cls-1" d="M4728.77,262.18l-83.09,5.12a43.79,43.79,0,0,0-9.16-19.29,50.54,50.54,0,0,0-18.43-13.85q-11.42-5.22-27.17-5.22-21.09,0-35.58,8.85t-14.49,23.54q0,11.71,9.37,19.82t32.18,13l59.23,11.93q47.73,9.81,71.16,31.54t23.44,57.1q0,32.18-18.85,56.46T4665.81,489q-32.7,13.53-75.32,13.53-65,0-103.44-27.16t-45.07-74l89.28-4.69q4,19.81,19.6,30.15t39.85,10.33q23.85,0,38.45-9.27t14.81-24q-.21-12.35-10.44-20.35T4602,371.27L4545.32,360q-47.94-9.59-71.27-33.24t-23.33-60.3q0-31.53,17.15-54.33T4516.24,177q31.22-12.34,73.19-12.35,62,0,97.69,26.2T4728.77,262.18Z"/></g><path id="logo-fill" class="cls-2" d="M352.29,0C156.19,0,.48,142.05,0,353.69-.59,612,218.85,818.91,478.78,818.91S963.62,603.33,963.62,345.23c0-150.51-83.41-243.77-143.14-291.25a15.41,15.41,0,0,0-9.68-3.52c-10.51,0-19.73,11.22-14,22.66,33.1,66.34,67.8,181.1-1.83,298.24-52.5,88.32-153.62,129.37-251.1,129.37-43.87,0-87-8.31-124.63-24.37-94.88-40.48-167-182.1-55.66-288.43,32.88-31.41,67.83-42.53,100.81-42.53,45.45,0,87.17,21.1,114.74,39.31a15.39,15.39,0,0,0,8.55,2.65c9.81,0,18.45-9.66,14.85-20.52C583,107.91,527.75,9.51,376.21.7q-12-.7-23.92-.7Z"/><path id="logo-stroke" d="M352.29,30c7.33,0,14.79.22,22.18.65C433.92,34.1,482.32,53,518.31,86.84a203.75,203.75,0,0,1,39.19,51.27c-26.64-12.6-58.73-22.71-93.13-22.71-45.33,0-86.21,17.1-121.53,50.83-52.16,49.82-74.4,113-62.61,177.92C292.84,413.64,342.78,476.36,407.45,504c41.05,17.51,88.22,26.77,136.4,26.77,119.76,0,223.27-53.85,276.88-144,58.47-98.37,49.57-195.24,27.74-265.31A344.73,344.73,0,0,1,888.6,176.2c29.87,50.7,45,107.57,45,169A417.17,417.17,0,0,1,897,515.93c-23.43,52.62-56.82,100.2-99.26,141.4a474,474,0,0,1-68,54.76,469.11,469.11,0,0,1-77.26,41.45,445.86,445.86,0,0,1-173.73,35.37A453.81,453.81,0,0,1,301.35,753,456.2,456.2,0,0,1,156,655.19C74.5,573.47,29.74,466.42,30,353.76c.11-47.67,8.66-92.49,25.42-133.2A301.25,301.25,0,0,1,123.74,119C182.52,61.59,263.69,30,352.29,30m0-30C156.19,0,.48,142.05,0,353.69-.59,612,218.85,818.91,478.78,818.91S963.62,603.33,963.62,345.23c0-150.51-83.41-243.77-143.14-291.25a15.41,15.41,0,0,0-9.68-3.52c-10.51,0-19.73,11.22-14,22.66,33.1,66.34,67.8,181.1-1.83,298.24-52.5,88.32-153.62,129.37-251.1,129.37-43.87,0-87-8.31-124.63-24.37-94.88-40.48-167-182.1-55.66-288.43,32.88-31.41,67.83-42.53,100.81-42.53,45.45,0,87.17,21.1,114.74,39.31a15.39,15.39,0,0,0,8.55,2.65c9.81,0,18.45-9.66,14.85-20.52C583,107.91,527.75,9.51,376.21.7q-12-.7-23.92-.7Z"/></g></g></svg>