<svg id="Layer_1" data-name="Layer 1" xmlns="http://www.w3.org/2000/svg" viewBox="0 0 24 24"><path d="M22.75,8.44h0a.52.52,0,0,0-.06-.16l0,0A11.42,11.42,0,0,0,21,5.2l0-.06A.47.47,0,0,0,20.92,5L20.86,5A11.85,11.85,0,0,0,19.1,3.18l-.05,0s0,0,0,0A11.28,11.28,0,0,0,5.8,2.53l0,0h0a11.37,11.37,0,0,0-2,1.75l-.07.07a.26.26,0,0,0-.09.09l-.06.09A11.32,11.32,0,0,0,2.2,6.34l-.06.08a.31.31,0,0,0-.05.1v0a11.56,11.56,0,0,0-.94,2.23v.05L1.1,9a9.94,9.94,0,0,0-.29,1.36l0,.17v.07A11.19,11.19,0,0,0,.67,12,11.33,11.33,0,1,0,22.75,8.44Zm-9.06,5.71-1.93-1.21V11.19l2-1.26,1.76-.7,1.81.52L18.8,10a.53.53,0,0,0,.43-.14L20,9.06a.51.51,0,0,0,.14-.45.49.49,0,0,0-.28-.36,13.33,13.33,0,0,0-3-1.15c-.15,0-.86-.11-1.58-.23V6.42l1.92-.69a.51.51,0,0,0,.33-.43l.06-.7,1-.5,1.52,1.53a.61.61,0,0,0,.07.1l1.57,2.92,0,0L22.32,12l-.23.85-1.19-.64a.5.5,0,0,0-.74.44v1.13l-.74,1.68c-.3.5-.67,1.1-.8,1.25A16.12,16.12,0,0,0,17,18.5l-1.38,1-.85.29-.84-.93V14.57A.49.49,0,0,0,13.69,14.15ZM3.92,10.66a.52.52,0,0,0,.25.31l1.33.7,1,.69,1.37.75.19,1.12-.68,1.92a.46.46,0,0,0,0,.26l.13.76.51,2-.11.08L7.44,19l-.62-1.4-.08-.13L5.37,15.9a.49.49,0,0,0-.24-.15l-1.3-.36-.31-.73L4,12.91a.5.5,0,0,0,0-.34l-.94-2a.5.5,0,0,0-.36-.27l-.77-.14L2,9.34c0-.1.05-.2.08-.3L3,7l0-.08L4.27,5.18,4.39,5,6.21,3.48,7.77,4l.79.5a.52.52,0,0,0,.27.07h.86v.35l-1,1.3L7,7.76,5.36,8a.4.4,0,0,0-.21.09L3.83,9a.5.5,0,0,0-.21.54ZM12,22.33A10.34,10.34,0,0,1,1.67,12c0-.27,0-.54,0-.81l.48.09.75,1.56-.43,1.74a.58.58,0,0,0,0,.32L3,16a.51.51,0,0,0,.32.29l1.39.39L5.94,18l.65,1.46a.48.48,0,0,0,.18.22l.85.55a.53.53,0,0,0,.27.08.52.52,0,0,0,.29-.09l.68-.47a.49.49,0,0,0,.2-.53L8.47,17l-.1-.6.68-1.92a.69.69,0,0,0,0-.25L8.81,12.7a.48.48,0,0,0-.25-.35L7,11.52l-1-.71-1.19-.62L4.68,9.6,5.61,9l1.71-.24A.56.56,0,0,0,7.6,8.6L9.44,6.84l1.15-1.49a.57.57,0,0,0,.1-.31V4a.5.5,0,0,0-.5-.5H9l-.73-.45A.27.27,0,0,0,8.12,3l-.76-.23a10.28,10.28,0,0,1,10.37.63l-.83.42a.5.5,0,0,0-.27.4l-.06.66-2,.7a.5.5,0,0,0-.33.47V7.3a.49.49,0,0,0,.41.49c.3,0,1.8.3,2.13.3h0a18.22,18.22,0,0,1,1.93.77l-.07.08-1.14-.17-1.91-.55a.5.5,0,0,0-.32,0l-2,.8L11,10.49a.51.51,0,0,0-.23.43v2.29a.51.51,0,0,0,.23.43l1.94,1.21V19a.5.5,0,0,0,.12.34l1.2,1.32a.51.51,0,0,0,.37.16.45.45,0,0,0,.16,0L16,20.41l.13-.07,1.49-1.06.1-.09c.56-.68,1.25-1.49,1.44-1.67s.39-.36,1.14-1.64l.81-1.83a.65.65,0,0,0,0-.2v-.4l1,.53A10.35,10.35,0,0,1,12,22.33Z"/></svg>