<svg id="Layer_6" data-name="Layer 6" xmlns="http://www.w3.org/2000/svg" viewBox="0 0 24 24"><g id="Layer_20" data-name="Layer 20"><path d="M18.13,18.17l-.35,0a6.45,6.45,0,0,0-.73,0c-.62,0-1.41,0-1.67-.86a3.73,3.73,0,0,0-.47-.88,2.56,2.56,0,0,1-.31-.53,2.61,2.61,0,0,0-.61-.12,1.7,1.7,0,0,1-1.32-1.37.83.83,0,0,0-.46-.6,10.71,10.71,0,0,1-1.35-.22,14.09,14.09,0,0,0-1.4-.23,1.82,1.82,0,0,0-.44.25c-.15.1-.31.21-.52.33a4,4,0,0,0-.65.52,2.62,2.62,0,0,1-1.17.74l-.59.07a9.84,9.84,0,0,0-1.43.21,1.69,1.69,0,0,1-1.33.06,1.37,1.37,0,0,1-.82-.83,1.72,1.72,0,0,1-.12-1.07,5.4,5.4,0,0,0,.1-.69l0-.45c.08-.67.08-.71-.22-1.13a2.81,2.81,0,0,1-.59-2.05,1.16,1.16,0,0,0-.18-.47,1.26,1.26,0,0,1-.2-1A1.24,1.24,0,0,1,2,7.09l.5-.26A4.73,4.73,0,0,1,3.94,6.3,2.94,2.94,0,0,1,5,6.2c.19,0,.19,0,.35-.14a4.7,4.7,0,0,1,.47-.39c.18-.14.21-.17.35-.53l.1-.29a1.79,1.79,0,0,1,1-1.21,2.15,2.15,0,0,0,.36-.28A1.37,1.37,0,0,1,8.78,3a1.06,1.06,0,0,1,.83.28l.06,0c.22-.07.24-.14.3-.39a1.28,1.28,0,0,1,.23-.53h0a2,2,0,0,1,2.24-.53l.52.12c.59.13,1.09.24,1.3.66a.94.94,0,0,1-.06.85c-.1.21-.12.28-.07.38l.07.15c.22.47.27.57.53.68.45.18.49.15.69,0a1.22,1.22,0,0,0,.32-.84c0-.17,0-1.72.49-2.14a.88.88,0,0,1,.89-.3c.43.15.5.65.53.83a3.24,3.24,0,0,1,0,.82c0,.28,0,.32,0,.37l.22.23a2.36,2.36,0,0,1,.62.89,3.83,3.83,0,0,1,.15.58c0,.25.06.34.18.46a6.05,6.05,0,0,1,.49.58,4.32,4.32,0,0,0,.43.51,4.47,4.47,0,0,0,.41.35,2.47,2.47,0,0,1,.87,1,5.87,5.87,0,0,0,1.07,1.38,1.59,1.59,0,0,1,.48,1.8l0,.15a15.8,15.8,0,0,1-.57,2c-.08.22-.18.5-.27.77a7.87,7.87,0,0,1-.49,1.22c-.05.08-.14.2-.24.33a2.43,2.43,0,0,0-.42.62c.26.62-.4.95-.65,1.07l-.34.18a1.84,1.84,0,0,0-.2.19A1.57,1.57,0,0,1,18.13,18.17Zm-1-1.11a6.11,6.11,0,0,1,.72,0c.49,0,.57,0,.75-.21a2.3,2.3,0,0,1,.36-.31,2.55,2.55,0,0,1,.47-.27l.05,0a2.14,2.14,0,0,1,.66-1.38l.17-.21a10.63,10.63,0,0,0,.38-1c.1-.29.2-.59.29-.82A15.81,15.81,0,0,0,21.54,11l0-.16c.11-.47.09-.5-.2-.79a6.64,6.64,0,0,1-1.32-1.75,1.81,1.81,0,0,0-.54-.54c-.17-.14-.34-.28-.49-.43a4.54,4.54,0,0,1-.53-.63,5,5,0,0,0-.39-.46,1.73,1.73,0,0,1-.48-1c0-.11-.05-.24-.1-.38a1.11,1.11,0,0,0-.36-.5l-.27-.28L16.8,4A2,2,0,0,1,16,5.54a1.61,1.61,0,0,1-1.63,0,2,2,0,0,1-1.1-1.22l-.07-.14a1.39,1.39,0,0,1,0-1.2l-.46-.1c-.21,0-.42-.1-.61-.16A1.07,1.07,0,0,0,11,2.94l0,.13a1.43,1.43,0,0,1-1,1.16A.91.91,0,0,1,8.89,4H8.78c-.3,0-.3,0-.42.12a3.42,3.42,0,0,1-.53.42c-.39.24-.39.24-.52.64L7.2,5.5a1.77,1.77,0,0,1-.71,1,3.26,3.26,0,0,0-.38.31A1.29,1.29,0,0,1,5,7.26a2.11,2.11,0,0,0-.76.08A3.74,3.74,0,0,0,3,7.77L2.49,8a1.17,1.17,0,0,0-.14.09s.09.09.13.17a2,2,0,0,1,.3,1,1.8,1.8,0,0,0,.4,1.43,2.11,2.11,0,0,1,.41,1.87l0,.43c0,.38-.08.61-.1.77s0,.21.07.54a.29.29,0,0,0,.18.18.7.7,0,0,0,.46,0A5.9,5.9,0,0,1,6,14.16l.53-.07a3,3,0,0,0,.63-.48A5.5,5.5,0,0,1,8,13c.19-.11.34-.21.47-.3a2.23,2.23,0,0,1,.85-.41,5.79,5.79,0,0,1,1.79.23c.42.08,1,.2,1.15.2a1.77,1.77,0,0,1,1.51,1.51.85.85,0,0,0,.34.47c.33,0,1.54.14,1.54.9,0,0,.11.11.18.22A4.67,4.67,0,0,1,16.41,17c.09.11.43.11.63.11Zm-3.08-2.38ZM13.38,3.1ZM11,3Z"/><path d="M18.69,22.7H18.6c-.44-.06-.67-.47-.81-.78a2.9,2.9,0,0,0-.68-1,2.29,2.29,0,0,1-.3-.34A1.7,1.7,0,0,1,16.87,19a.68.68,0,0,1,.72-.33h0a1.21,1.21,0,0,1,.41.16,1.19,1.19,0,0,0,.7.21,2.14,2.14,0,0,0,.58-.11.77.77,0,0,1,1,.26c.23.35.2.61,0,1.24-.23,1-.31.84-.84,1.79l0,.05A1,1,0,0,1,18.69,22.7Zm-1-2.86a.67.67,0,0,0,0,.16,2.09,2.09,0,0,0,.15.15,3.91,3.91,0,0,1,.88,1.28,1.6,1.6,0,0,1,.28-.22c.07-.05.08-.22.27-1.05,0-.07,0-.13,0-.18a3.8,3.8,0,0,1-.57.09A2.17,2.17,0,0,1,17.7,19.84Z"/></g></svg>