<svg id="Layer_1" data-name="Layer 1" xmlns="http://www.w3.org/2000/svg" viewBox="0 0 24 24"><path d="M22.43,6.16,17.32,3.81h-.09l-.12,0L17,3.8H16.9L12,6.06,7.1,3.81H7l-.12,0-.12,0H6.68L1.57,6.16a.5.5,0,0,0-.29.46V19.73a.48.48,0,0,0,.23.42.5.5,0,0,0,.27.08.35.35,0,0,0,.2-.05l4.91-2.25,4.9,2.25a.47.47,0,0,0,.42,0l4.9-2.25L22,20.18a.41.41,0,0,0,.21.05.5.5,0,0,0,.27-.08.48.48,0,0,0,.23-.42V6.62A.5.5,0,0,0,22.43,6.16ZM2.28,6.94,6.39,5.05v12L2.28,19ZM7.39,5.05,11.5,6.94V19L7.39,17.06ZM12.5,6.94l4.11-1.89v12L12.5,19Zm9.22,12-4.11-1.89v-12l4.11,1.89Z"/></svg>