<svg xmlns="http://www.w3.org/2000/svg" viewBox="0 0 4754.44 884.97"><defs><style>.e1d3ab99-e8d8-4482-aae0-013c783a5078{font-size:260px;}.acd7e828-5415-4cb2-bfef-47c9fd7e881b,.e1d3ab99-e8d8-4482-aae0-013c783a5078{fill:#fff;font-family:Inter-Bold, Inter;font-weight:700;}.ab1e3294-019b-4909-8ded-3d823a5dafdb{letter-spacing:-0.01em;}.e8faaa75-feec-42ca-b195-f9c4faadb987{letter-spacing:-0.02em;}.fb03fbf7-3711-46b2-ae72-09caea67f5d3{letter-spacing:-0.02em;}.b23a9012-fa3a-40e7-901a-66bbba92a5d5{letter-spacing:-0.02em;}.acd7e828-5415-4cb2-bfef-47c9fd7e881b{font-size:600px;}.bc0b1b72-359f-4814-9447-6a8b5786d9f8{fill:#04838f;}</style></defs><g id="b26b5d61-14d8-450b-ae82-1ccd635f847d" data-name="Layer 2"><g id="ac0f1319-77d2-4419-9e05-df0dc18657ac" data-name="card"><text id="f086470c-ddf1-4276-867e-518274ff531b" data-name="tagline" class="e1d3ab99-e8d8-4482-aae0-013c783a5078" transform="translate(1159.79 801.67)">pho<tspan class="ab1e3294-019b-4909-8ded-3d823a5dafdb" x="486.29" y="0">t</tspan><tspan x="585.82" y="0">og</tspan><tspan class="e8faaa75-feec-42ca-b195-f9c4faadb987" x="909.99" y="0">r</tspan><tspan x="1012.29" y="0">ap</tspan><tspan class="fb03fbf7-3711-46b2-ae72-09caea67f5d3" x="1327.59" y="0">h</tspan><tspan x="1484.73" y="0">y &amp; t</tspan><tspan class="e8faaa75-feec-42ca-b195-f9c4faadb987" x="2033.91" y="0">r</tspan><tspan class="fb03fbf7-3711-46b2-ae72-09caea67f5d3" x="2136.21" y="0">a</tspan><tspan class="b23a9012-fa3a-40e7-901a-66bbba92a5d5" x="2281.9" y="0">v</tspan><tspan x="2429.54" y="0">el guides</tspan></text><text id="bbc412e5-6485-4388-98be-9fad13a6a4be" data-name="name" class="acd7e828-5415-4cb2-bfef-47c9fd7e881b" transform="translate(1159.79 518.18)">gloomicious</text><path id="e6489ed0-867c-4aba-8b40-204de8cba7e0" data-name="logo" class="bc0b1b72-359f-4814-9447-6a8b5786d9f8" d="M352.29,96.06c7.33,0,14.79.22,22.18.65,59.45,3.45,107.85,22.36,143.84,56.19a203.75,203.75,0,0,1,39.19,51.27c-26.64-12.6-58.73-22.71-93.13-22.71-45.33,0-86.21,17.1-121.53,50.83-52.16,49.82-74.4,113-62.61,177.92C292.84,479.7,342.78,542.42,407.45,570c41.05,17.51,88.22,26.77,136.4,26.77,119.76,0,223.27-53.85,276.88-144,58.47-98.37,49.57-195.24,27.74-265.31a344.73,344.73,0,0,1,40.13,54.82c29.87,50.7,45,107.57,45,169A417.17,417.17,0,0,1,897,582c-23.43,52.62-56.82,100.2-99.26,141.4a474,474,0,0,1-68,54.76,469.11,469.11,0,0,1-77.26,41.45A445.86,445.86,0,0,1,478.78,855a453.81,453.81,0,0,1-177.43-35.9A456.2,456.2,0,0,1,156,721.25C74.5,639.53,29.74,532.48,30,419.82c.11-47.67,8.66-92.49,25.42-133.2A301.25,301.25,0,0,1,123.74,185c58.78-57.36,140-88.95,228.55-88.95m0-30C156.19,66.05.48,208.11,0,419.75-.59,678,218.85,885,478.78,885S963.62,669.39,963.62,411.29c0-150.51-83.41-243.77-143.14-291.25a15.41,15.41,0,0,0-9.68-3.52c-10.51,0-19.73,11.22-14,22.66,33.1,66.34,67.8,181.1-1.83,298.24-52.5,88.32-153.62,129.37-251.1,129.37-43.87,0-87-8.31-124.63-24.37-94.88-40.48-167-182.1-55.66-288.43,32.88-31.41,67.83-42.53,100.81-42.53,45.45,0,87.17,21.1,114.74,39.31a15.39,15.39,0,0,0,8.55,2.65c9.81,0,18.45-9.66,14.85-20.52C583,174,527.75,75.57,376.21,66.76q-12-.7-23.92-.7Z"/></g></g></svg>