<svg id="Layer_1" data-name="Layer 1" xmlns="http://www.w3.org/2000/svg" viewBox="0 0 24 24"><path d="M18.88,2.54H5.12a.5.5,0,0,0-.5.5V21a.5.5,0,0,0,.5.5H18.88a.5.5,0,0,0,.5-.5V3A.5.5,0,0,0,18.88,2.54Zm-13.26,1H7.68V20.46H5.62ZM18.38,20.46H8.68V3.54h9.7Z"/><path d="M10.49,11.86A29.2,29.2,0,0,0,13,16.52a.52.52,0,0,0,.45.25h0a.56.56,0,0,0,.43-.21,30.9,30.9,0,0,0,2.46-4.7,4.13,4.13,0,0,0,.24-1.2,1.5,1.5,0,0,0,0-.3,3.17,3.17,0,0,0-1-2.19,3.12,3.12,0,0,0-2.28-.82,3.17,3.17,0,0,0-3,3.31A4.13,4.13,0,0,0,10.49,11.86Zm.84-1.24a2.06,2.06,0,0,1,4.12,0,3.07,3.07,0,0,1-.18.85,26.22,26.22,0,0,1-1.89,3.74,25.11,25.11,0,0,1-1.87-3.74A3.08,3.08,0,0,1,11.33,10.62Z"/><path d="M13.41,11.77a1.4,1.4,0,0,0,0-2.8,1.4,1.4,0,0,0,0,2.8Zm0-1.84a.43.43,0,0,1,.4.45.42.42,0,0,1-.42.42.42.42,0,0,1-.42-.42.45.45,0,0,1,.42-.45Z"/></svg>