<svg id="Layer_6" data-name="Layer 6" xmlns="http://www.w3.org/2000/svg" viewBox="0 0 24 24"><g id="Layer_14" data-name="Layer 14"><path d="M12.6,23.28a1.59,1.59,0,0,1-.88-.43,1.62,1.62,0,0,0-.31-.23,1.17,1.17,0,0,0-.47.28c-.49.66-1.91-.34-1.92-.35a2.12,2.12,0,0,0-1.31,0l-.43.09a1.74,1.74,0,0,1-1.35,0,.7.7,0,0,1-.31-.49l0-.15a1.57,1.57,0,0,1,.49-1.74,3.09,3.09,0,0,0,.74-1.52.25.25,0,0,0-.09-.13.29.29,0,0,0-.22,0,1.79,1.79,0,0,1-1.75-.26,2.31,2.31,0,0,0-.29-.2c-.38-.23-1-.58-.9-1.21a2.68,2.68,0,0,1,.09-.52,1.14,1.14,0,0,0,.05-.26,1.14,1.14,0,0,1-.35-.85,1.43,1.43,0,0,1,.35-1l.08-.07L3.72,14a2.31,2.31,0,0,1-.55-1.91,1.33,1.33,0,0,0,0-1,2,2,0,0,0-.09-.2A.81.81,0,0,1,3,10.13a1,1,0,0,1,.8-.42l.39-.05c.46,0,.49-.06.56-.24s.07-.17,0-.32a1.67,1.67,0,0,1-.16-.48,1.46,1.46,0,0,1,.48-1.47c.11-.1.14-.14.14-.15a2,2,0,0,0-.05-.42A2.58,2.58,0,0,0,5,6.16,1.27,1.27,0,0,1,5,5.1a.84.84,0,0,1,.56-.42c.74-.21,1.66-.34,2.11.1a.78.78,0,0,1,.63-.72h.06a1.37,1.37,0,0,0-.19-.17,1,1,0,0,1-.47-.69.63.63,0,0,1,.17-.5L8,2.61c-.19-.37-.51-1.3,0-1.75H8a1.21,1.21,0,0,1,1-.22,2.59,2.59,0,0,1,1.54.64l.27.33a5.9,5.9,0,0,1,.6.79,1.27,1.27,0,0,0,.72.26.75.75,0,0,1,.63.14,1,1,0,0,1,.33.8v.1a.34.34,0,0,0,.05.13,2.58,2.58,0,0,0,.65-.47A2.4,2.4,0,0,1,14.31,3a14.65,14.65,0,0,1,1.42-.5,1.71,1.71,0,0,0,.21-.24c.26-.32.5-.65.93-.63a.64.64,0,0,1,.51.3l.07.1a1.73,1.73,0,0,1,.37,1.26.81.81,0,0,0,.11.59l.13.29a2.32,2.32,0,0,0,.39.53A1.46,1.46,0,0,1,19,5.87a3.31,3.31,0,0,0-.06.55,3.53,3.53,0,0,1-.11.88c-.12.44-.07.6.06.75a3,3,0,0,1,.75,1.79,2.28,2.28,0,0,0,.09,1.08c.22.36.83,1.89.14,2.52A1.92,1.92,0,0,1,18.4,14a.75.75,0,0,1-.51-.32.67.67,0,0,0-.47.31,3.63,3.63,0,0,1-1.54,1.09l-.27.12a2.4,2.4,0,0,0-.34.22,1.78,1.78,0,0,1,.14.66c0,.35.05.49.21.6l.38.24a2.84,2.84,0,0,1,1.2,1.18,3.42,3.42,0,0,0,.39.57c.28.36.52.67.45,1a.63.63,0,0,1-.3.43,3.46,3.46,0,0,0-.31.23,3.32,3.32,0,0,1-1.24.72c-.09,0-.09.13,0,.29a2.4,2.4,0,0,0,.11.23c.18.35.37.71.19,1.07A.65.65,0,0,1,16,23a1.29,1.29,0,0,1-.91-.3c-.11-.08-.34-.24-.43-.22a4.7,4.7,0,0,1-1.18.49,2.72,2.72,0,0,0-.46.17A.67.67,0,0,1,12.6,23.28Zm-2.43-1,0,0Zm1.26-.64a.77.77,0,0,1,.25,0,1.9,1.9,0,0,1,.67.41l.22.17a3.8,3.8,0,0,1,.58-.21,4.11,4.11,0,0,0,.93-.38,1.09,1.09,0,0,1,1.13,0,1.24,1.24,0,0,1,0-1,1,1,0,0,1,.75-.55,2.64,2.64,0,0,0,.85-.53l.14-.11-.15-.19a4,4,0,0,1-.51-.78c-.13-.29-.39-.46-.83-.74l-.4-.26a1.62,1.62,0,0,1-.65-1.36,1.68,1.68,0,0,0,0-.3.84.84,0,0,1-.1-.68c.12-.44.57-.68.86-.84l.34-.17a2.66,2.66,0,0,0,1.11-.73,1.66,1.66,0,0,1,1.4-.75.88.88,0,0,1,.66.33,1.27,1.27,0,0,0,.51-.27,2.39,2.39,0,0,0-.31-1.25,3.11,3.11,0,0,1-.23-1.72,2.55,2.55,0,0,0-.51-1A1.69,1.69,0,0,1,17.83,7a3.53,3.53,0,0,0,.07-.67A5.51,5.51,0,0,1,18,5.66s-.18-.23-.29-.36a3.07,3.07,0,0,1-.54-.78L17,4.25a1.69,1.69,0,0,1-.21-1.07.76.76,0,0,0-.05-.4l-.05.06a1.3,1.3,0,0,1-.7.57c-.24.06-1,.33-1.31.45l-.33.26a3,3,0,0,1-1,.66,1,1,0,0,1-.84-.12,1.19,1.19,0,0,1-.5-.85V3.66a2,2,0,0,1-1.55-.78A7.49,7.49,0,0,0,10,2.25l-.31-.37a2.55,2.55,0,0,0-1-.26,1.59,1.59,0,0,0,.17.56.75.75,0,0,1,0,.95,1.68,1.68,0,0,1,.56.68,1,1,0,0,1,0,.77A1,1,0,0,1,8.67,5v.07a1.7,1.7,0,0,1-.13.85.7.7,0,0,1-.63.44c-.5,0-.77-.53-1-.92a6,6,0,0,0-1,.17L6,5.87a3.16,3.16,0,0,1,.14.55c.11.71.11,1-.41,1.47-.18.17-.21.26-.16.58a.8.8,0,0,0,.07.2,1.21,1.21,0,0,1,0,1.16,1.42,1.42,0,0,1-1.39.83l-.19,0v0a2.32,2.32,0,0,1,.07,1.61c-.08.36,0,.55.41,1.15s.45,1-.06,1.39l-.07.07c-.07.09-.09.39,0,.45a1.11,1.11,0,0,1,.23,1.21,1.81,1.81,0,0,0-.07.35s.29.2.43.29a2.17,2.17,0,0,1,.48.34c.06.06.24.14.8,0a1.24,1.24,0,0,1,1.12.27,1.14,1.14,0,0,1,.43,1,3.85,3.85,0,0,1-1.17,2.25c-.16.11-.16.29-.09.69a3.39,3.39,0,0,0,.48-.1l.45-.09a2.82,2.82,0,0,1,2.1.18,3.16,3.16,0,0,0,.74.37A1.86,1.86,0,0,1,11.43,21.62ZM6.61,22h0Zm11.22-8.41h0ZM16.55,2.44Zm-.74,0h0Z"/></g></svg>