<svg id="Layer_1" data-name="Layer 1" xmlns="http://www.w3.org/2000/svg" viewBox="0 0 24 24"><path d="M2,8.92a1.09,1.09,0,0,1-.78-.22A.64.64,0,0,1,1,8.29,1.37,1.37,0,0,0,.77,8.1a.94.94,0,0,1-.49-.74A.54.54,0,0,1,.42,7,1.12,1.12,0,0,1,1.1,5.5a1.15,1.15,0,0,1,1,.41l.19.15c.19.06.34,0,.56-.21a.69.69,0,0,1,.45-.2c.29,0,1.27.56,1.35,1,0,0,.15,1.08-.41,1.51a5.09,5.09,0,0,1-1.5.63A3.7,3.7,0,0,1,2,8.92ZM2,7.91a3.53,3.53,0,0,0,.65,0,5.19,5.19,0,0,0,1.06-.45,1.69,1.69,0,0,0,0-.45l-.33-.23A1.44,1.44,0,0,1,2,7H2a1.56,1.56,0,0,1-.5-.33l-.1-.09a.11.11,0,0,0,0,.08.89.89,0,0,1,0,.68,1.7,1.7,0,0,1,.53.57Z"/><path d="M13.29,12.69a.71.71,0,0,1-.72-.65l-.08-.31c-.05-.23-.1-.41-.14-.69a.83.83,0,0,1-.69.2h-.17a.88.88,0,0,1-.9-.59,3,3,0,0,1-.19-.6.92.92,0,0,0-.11-.33,1.36,1.36,0,0,1-.14-1.31V8.29a3.29,3.29,0,0,1,.48-.93l.12-.18a.76.76,0,0,1,.84-.3h0a1.33,1.33,0,0,1,.1-.34,3,3,0,0,1,.36-.91,1,1,0,0,0,0-.24,1.47,1.47,0,0,1,.31-.8l.22-.23c.18-.17.26-.25.26-.34V3.81a1.2,1.2,0,0,1,.66-1.24,1.49,1.49,0,0,0,.7-.59,2.33,2.33,0,0,1,1-.89L15.52,1A5.39,5.39,0,0,0,16.2.78,1.75,1.75,0,0,1,17.4.16a3.78,3.78,0,0,1,1,.2h0a1.47,1.47,0,0,1,.91,1l.06.2a.88.88,0,0,1-.25,1.07,1,1,0,0,0-.4.43,2.79,2.79,0,0,0,.1.39,1.77,1.77,0,0,1,.1.94,6.7,6.7,0,0,0,.14,1.34c.1.32.22.63.35.94a.24.24,0,0,0,.06.09.92.92,0,0,1,0,1.3l0,0c0,.05,0,.06-.06.17A.83.83,0,0,1,19,9a1.8,1.8,0,0,0-.2.19,1.47,1.47,0,0,1-1.32.57.58.58,0,0,0-.48.07l-.27.13a1,1,0,0,1-1,.06.82.82,0,0,1-.24-.25,1,1,0,0,1-.39.75.7.7,0,0,0-.34.63c.11,1.13-.52,1.38-.91,1.43l-.29.05Zm-.7-3.24.3.12c.32.18.36.55.4,1v.28a5.18,5.18,0,0,0,.14.66v.15l.29-.05s.07-.07,0-.34a1.68,1.68,0,0,1,.68-1.49V9.69a2,2,0,0,1-.1-.21A8.31,8.31,0,0,1,14,8.18,1.31,1.31,0,0,1,14.62,7a.68.68,0,0,0,.24-.47A2.35,2.35,0,0,1,16.44,5a1.13,1.13,0,0,1,1.11.77c.22.61-.21,1-.55,1.28-.08.06-.16.14-.25.22-.4.38-.37.52-.34.62a2.15,2.15,0,0,1,0,.8v.38L16.57,9a1.51,1.51,0,0,1,1.1-.16c.13,0,.22-.06.44-.29l.34-.31a1.23,1.23,0,0,1,.31-.75l-.06-.08a1.24,1.24,0,0,1-.17-.27c-.1-.23-.26-.67-.38-1a5.39,5.39,0,0,1-.14-2h0a2.53,2.53,0,0,1-.12-.36,3.75,3.75,0,0,1-.13-.58A1.6,1.6,0,0,1,18.46,2V1.85a1.19,1.19,0,0,0-.07-.23.47.47,0,0,0-.3-.33,2.64,2.64,0,0,0-.68-.13,1.35,1.35,0,0,0-.38.19c-.14.28-.56.44-1.2.63h-.15a1.42,1.42,0,0,0-.54.52,2.44,2.44,0,0,1-1.14,1,1.82,1.82,0,0,0,0,.33v.27a1.54,1.54,0,0,1-.56,1l-.17.17a.64.64,0,0,0-.07.27,1.32,1.32,0,0,1-.21.66,2.87,2.87,0,0,0-.23.64,1.45,1.45,0,0,1-.14.45.86.86,0,0,1-1,.61h0a2.66,2.66,0,0,0-.34.59v.14a1.55,1.55,0,0,0-.07.43,1.51,1.51,0,0,1,.32.73,2,2,0,0,0,.13.42h.24c.06-.06.14-.18.19-.24a1.26,1.26,0,0,1,.43-.43ZM15.4,7.62l-.07.06A3.31,3.31,0,0,0,15,8a6.85,6.85,0,0,0,.33,1.09v.1a.09.09,0,0,1,0,.07h0a4,4,0,0,1,0-.69,1.19,1.19,0,0,0,0-.46A1.35,1.35,0,0,1,15.4,7.62Zm-3.77.08Zm4.22-1.12a.33.33,0,0,1,0,.14l.23-.23.27-.25A1.55,1.55,0,0,0,16.62,6h-.18A4,4,0,0,0,15.85,6.58Z"/><path d="M13.62,23.84a.81.81,0,0,1-.22,0,.8.8,0,0,1-.48-.69.9.9,0,0,1,.3-.86s0-.05-.1-.12a.65.65,0,0,0-.37-.26,1.94,1.94,0,0,1-1-1.27c-.39.53-1.07.24-1.42.1a2.1,2.1,0,0,1-.23.65,1.43,1.43,0,0,1-.7.58.82.82,0,0,0-.25.16,1,1,0,0,0-.17.54.86.86,0,0,1-.06.38.92.92,0,0,1-.5.65,1.48,1.48,0,0,1-1.28-.15c-.09-.05-.17,0-.35,0A.7.7,0,0,1,6,23.4l-.1-.07a1.79,1.79,0,0,1-.75-.79,1,1,0,0,1,0-.82,2.94,2.94,0,0,1,0-.42v-.47c-.06-.63.44-1,.91-1.27a1,1,0,0,1,1.37.12,1,1,0,0,0,.19.16.36.36,0,0,0,.3-.08,3.09,3.09,0,0,0-.18-.59c0-.09-.08-.12-.26-.19a1.05,1.05,0,0,1-.63-.46.83.83,0,0,1,0-1.17,1,1,0,0,1,1.12-.24l.24.05a2,2,0,0,1,.37-.28.85.85,0,0,0,.29-.36,2.66,2.66,0,0,1,.46-.6c.15-.13.24-.23.33-.31a6.52,6.52,0,0,1,.55-.5,2.39,2.39,0,0,1,.59-.36l.1-.05a.51.51,0,0,0-.07-.24,1.24,1.24,0,0,0-.11-.3,1.24,1.24,0,0,1,.25-1.05c.07-.11.15-.24.24-.41a.91.91,0,0,1,.89-.59,1,1,0,0,1,.77.69l.06.28a.54.54,0,0,0,.06.25.65.65,0,0,1,0,.77.44.44,0,0,0-.08.25c0,.06.18.16.47.16a1.07,1.07,0,0,0,.52-.14,2.73,2.73,0,0,1,.68-.23,2,2,0,0,1,.92,0,.41.41,0,0,0,.22,0h.45a1.46,1.46,0,0,1-.49-1.33.38.38,0,0,0,0-.15,2.68,2.68,0,0,1,.46-1.45,2.34,2.34,0,0,1,1.57-.47,1,1,0,0,1,.77.85h0a1.11,1.11,0,0,1,.59.68.66.66,0,0,1-.12.49A2,2,0,0,1,19,13a1.62,1.62,0,0,1,.07.44l.2.24a1.71,1.71,0,0,1,.36.59l.34.26a2,2,0,0,1,.45.42,3.55,3.55,0,0,0,.47.09,10,10,0,0,1,2,.51,1.44,1.44,0,0,1,.81,1.51c-.06.58-.59.84-1.56,1.32-.43.21-.69.33-1,.23L21,18.56,21,18.45l-.41-.08-.3-.06a.62.62,0,0,1-.07.23,1.41,1.41,0,0,0,0,.29A3.4,3.4,0,0,1,19.85,20c-.22.48-.29.65-.51.75a1.73,1.73,0,0,0-.17.21,3.55,3.55,0,0,1-.23.31.64.64,0,0,1-.53.23,1,1,0,0,1-.69-.58h-.21V21l.06.35a.54.54,0,0,0,.08.28,1.77,1.77,0,0,1,.21.41.72.72,0,0,1,0,.67.84.84,0,0,1-.66.36h-.1a1.43,1.43,0,0,1-1.3-.33,1.6,1.6,0,0,1-.64-1.22,4.36,4.36,0,0,0-.29-.95s0-.07-.13-.15a2.37,2.37,0,0,1-.59-.78c-.1-.21-.13-.22-.32-.29l-.23-.09a2.51,2.51,0,0,0,.52.56,2.16,2.16,0,0,1,1,1.79.71.71,0,0,0,0,.29,1.63,1.63,0,0,1,0,.54,2.57,2.57,0,0,1-.9,1.13A.8.8,0,0,1,13.62,23.84Zm-7-3.45a2.41,2.41,0,0,0-.48.36,3,3,0,0,1,0,.6,1.22,1.22,0,0,0,0,.27.73.73,0,0,1-.07.46.86.86,0,0,0,.4.42l.13.08a2.07,2.07,0,0,1,.43-.1,1.19,1.19,0,0,1,.56.14.73.73,0,0,0,.4.13v-.26a1.83,1.83,0,0,1,.42-1.07A1.55,1.55,0,0,1,9,21a.46.46,0,0,0,.28-.21,1.5,1.5,0,0,0,.11-.36,1,1,0,0,1,.44-.77.68.68,0,0,1,.62,0l.29.11.29.12a1,1,0,0,1,.82-.45.88.88,0,0,1,.81.68,2,2,0,0,0,.43.79,1.64,1.64,0,0,1,.86.6,1.07,1.07,0,0,1,.15.22,1,1,0,0,1,0-.25,1.6,1.6,0,0,0-.59-.83s-1.07-.87-.94-1.51a1,1,0,0,1,.44-1,.77.77,0,0,1,.81.12,1.49,1.49,0,0,0,.36.17,1.35,1.35,0,0,1,.87.78,1.55,1.55,0,0,0,.38.5,1.28,1.28,0,0,1,.37.49,4.86,4.86,0,0,1,.37,1.34.67.67,0,0,0,.2.39,1.13,1.13,0,0,0,.42.22h0a1.36,1.36,0,0,1-.22-.65c0-.11,0-.21-.05-.32-.07-.43-.15-.91.26-1.16a1.91,1.91,0,0,1,1.6.13l.07.09a1.18,1.18,0,0,1,.18-.21l.14-.12a1.7,1.7,0,0,1,.14-.3,2.28,2.28,0,0,0,.19-.85,3.62,3.62,0,0,1,.06-.46.6.6,0,0,1-.14-.61.69.69,0,0,1,.59-.39,3.33,3.33,0,0,1,1.09.09l.42.08a.79.79,0,0,1,.39.13l.18-.09a5.54,5.54,0,0,0,1-.58s0-.34-.23-.43a9.65,9.65,0,0,0-1.74-.44,1.5,1.5,0,0,1-1.2-.53l-.23-.18a1.7,1.7,0,0,1-.7-.8l-.17-.22a1.41,1.41,0,0,1-.42-.86.81.81,0,0,0,0-.22,1.63,1.63,0,0,1,0-.76h-.07c-.21-.14-.48-.32-.48-.65v-.08a2.27,2.27,0,0,0-.62.16,3.57,3.57,0,0,0-.18.66v.32c0,.31,0,.41.14.51s.89.67.79,1.23a.63.63,0,0,1-.48.49,3.57,3.57,0,0,1-.8,0,4.51,4.51,0,0,0-.52,0,1.84,1.84,0,0,1-.52-.05,1.1,1.1,0,0,0-.51,0,1.42,1.42,0,0,0-.45.16,2.18,2.18,0,0,1-.9.23,1.55,1.55,0,0,1-1.18-.39,1.09,1.09,0,0,1-.34-.75h0a1.5,1.5,0,0,1,.17-.69,2.45,2.45,0,0,1-.08-.29c-.06.09-.1.18-.15.25a1.23,1.23,0,0,0-.14.25.2.2,0,0,0,.08.19,1.54,1.54,0,0,1,.13.79,1,1,0,0,1-.66.78,1.39,1.39,0,0,0-.37.22c-.25.2-.36.32-.5.45l-.35.33a1.78,1.78,0,0,0-.28.38,1.7,1.7,0,0,1-.63.7l-.21.17a.85.85,0,0,1-.69.26H8a1.14,1.14,0,0,1,.6.62,2,2,0,0,1,.18,1.38,1.13,1.13,0,0,1-.69.61,1.17,1.17,0,0,1-1,0,2.37,2.37,0,0,1-.39-.32m6.8-1.1Zm7.33-1Z"/><path d="M5.57,16.8a.65.65,0,0,1-.42-.19A1.18,1.18,0,0,1,5,15.2a1.41,1.41,0,0,1,.38-.49.44.44,0,0,0,.12-.15,1.09,1.09,0,0,1,.21-.27h0a1.81,1.81,0,0,1-.09-1.08A.83.83,0,0,1,5.68,13c-.61-.51-.86-.86-.88-1.23a2.65,2.65,0,0,1,.74-1.64,1,1,0,0,1,1.41,0,.89.89,0,0,1,.31.95v.15a.9.9,0,0,1,.38.52.7.7,0,0,1-.09.56.17.17,0,0,0,0,.1l.23.14a.87.87,0,0,1,.6.83.67.67,0,0,0,0,.2,1.23,1.23,0,0,1,.86.66.65.65,0,0,1-.06.62v.06A.91.91,0,0,1,8.63,16l-.22.09a1.69,1.69,0,0,1-1.23.08H7l-.3-.06-.17.11a1.81,1.81,0,0,0-.3.25A1,1,0,0,1,5.57,16.8Zm1.12-1.7a2.35,2.35,0,0,1,.53.09h.19a.75.75,0,0,0,.62,0l.14-.06v-.06a1.14,1.14,0,0,1,0-.52h0c-.51,0-.78-.37-.8-1.1h0a1.85,1.85,0,0,1-.5-.34h0a.88.88,0,0,1-.23.45,1.37,1.37,0,0,0,.09.49.78.78,0,0,1-.24,1,2.48,2.48,0,0,1-.19.26A1,1,0,0,1,6.69,15.1ZM5.8,11.72a3.2,3.2,0,0,0,.54.5l.15.13A1.06,1.06,0,0,1,6.58,12a.93.93,0,0,1-.33-.85v-.27h0l-.09.06a2.29,2.29,0,0,0-.35.82Z"/><path d="M3,16.21H2.85c-.3-.07-.45-.33-.58-.6A2,2,0,0,1,2,14.75c-.23-.61.31-1,.57-1.23l.1-.09h0l.18-.18a1.06,1.06,0,0,1,.85-.44c.23,0,.92,0,1.11.59a.92.92,0,0,1-.15,1.22l-.15.14v.37c-.07.45-.31.61-.75.74a.57.57,0,0,0-.21.13A.81.81,0,0,1,3,16.21Zm0-1.73a1,1,0,0,1,0,.25.56.56,0,0,0,.09.31,1.51,1.51,0,0,1,.29-.13h.07V14.6A1,1,0,0,1,4,13.92v-.1H3.8l-.11.11-.24.24-.17.14Z"/></svg>