<svg id="Layer_1" data-name="Layer 1" xmlns="http://www.w3.org/2000/svg" viewBox="0 0 24 24"><path d="M20.94,4.53a8.66,8.66,0,0,0-3.54.72L14.47,6.68C12.22,5.59,8.59,3.88,7.86,4a11.47,11.47,0,0,0-2.43.75.5.5,0,0,0-.07.89c2.72,1.64,4.24,2.53,5.11,3-2.7,1.3-5,2.39-5.65,2.64l-.28-.19c-1-.66-2.76-1.89-3.95-1-.19.14-.37.42-.19,1,.35,1,3.21,5.1,4.28,5.1.8,0,6.32-2.31,9-3.5-.36,2.12-1.05,6.69-.53,7.23a.6.6,0,0,0,.41.16.46.46,0,0,0,.21,0A4.76,4.76,0,0,0,15.6,18.5c.19-.41,1.53-5.93,2-7.94a55.22,55.22,0,0,0,5.88-4A.52.52,0,0,0,23.66,6C23.64,6,23.26,4.53,20.94,4.53ZM7.93,5a37.28,37.28,0,0,1,5.39,2.27l-1.74.84C11,7.77,8.86,6.54,6.76,5.28A5.7,5.7,0,0,1,7.93,5Zm9,4.85a.51.51,0,0,0-.24.41c-.69,2.89-1.82,7.48-2,7.85a2.87,2.87,0,0,1-.8.67c.06-1.72.71-6.32.82-6.73a.5.5,0,0,0-.08-.58.51.51,0,0,0-.36-.15.59.59,0,0,0-.22.05,98,98,0,0,1-9.3,3.81c-.64-.25-3-3.39-3.39-4.36.69-.2,2,.7,2.61,1.11a2,2,0,0,0,.73.4c.18,0,.44.06,13.13-6.15a7.79,7.79,0,0,1,3.1-.62A2.14,2.14,0,0,1,22.52,6,55,55,0,0,1,16.9,9.82Z"/></svg>