<svg id="Layer_1" data-name="Layer 1" xmlns="http://www.w3.org/2000/svg" viewBox="0 0 24 24"><path d="M10.05,23.73a1,1,0,0,1-.68-.28,1.07,1.07,0,0,0-.28-.19,1.43,1.43,0,0,1-.81-1.08,4.83,4.83,0,0,0-.22-.64,2.16,2.16,0,0,1-.2-1.3A1.46,1.46,0,0,1,8,19.73a4.12,4.12,0,0,0,.23-1.15V17.51a3.84,3.84,0,0,1,.15-1.43c0-.08,0-.13,0-.17a3.42,3.42,0,0,1,.2-1c.08-.28.14-.5.2-.68A1.84,1.84,0,0,0,9,13.1a1.4,1.4,0,0,0-.11-.45A1.23,1.23,0,0,1,9,11.52l.11-.19c.14-.22.14-.22.06-.62a2.81,2.81,0,0,1,0-.58l-.11-.08a1.89,1.89,0,0,0-.44-.19,1.36,1.36,0,0,1-.85-.69,3.75,3.75,0,0,1-.24-.44,3,3,0,0,0-.32-.63,2,2,0,0,0-.46-.63,1.31,1.31,0,0,1-.41-.71.74.74,0,0,1,0-.51V6a1.8,1.8,0,0,1,.22-1.28,2.16,2.16,0,0,0,.17-.34A2.82,2.82,0,0,0,7,3.47H6.79a1.41,1.41,0,0,1-1-.48,1.24,1.24,0,0,0-.32-.23A1.21,1.21,0,0,1,5,2.28a1.28,1.28,0,0,1-.25-1,.88.88,0,0,1,.4-.56L5.27.61A.83.83,0,0,1,5.89.24a.71.71,0,0,1,.55.29,1,1,0,0,1,.21.39,2.29,2.29,0,0,0,.21.23.88.88,0,0,0,.42.31,1.66,1.66,0,0,1,.55.31A2.09,2.09,0,0,1,8.12,2l.11-.13a1.58,1.58,0,0,1,.55-.51,1,1,0,0,1,1.33.28h0c.07.08.09.11.41.13a1.55,1.55,0,0,0,.43,0,1.85,1.85,0,0,1,.81,0H12a3.66,3.66,0,0,1,1.45.58,1.27,1.27,0,0,0,.36.2,2.3,2.3,0,0,1,.68.43,4.24,4.24,0,0,1,1,1.34,1.27,1.27,0,0,1,.06.28l.16.07a4.19,4.19,0,0,1,.76.39l.2.12h.08a1.94,1.94,0,0,1,1.08.23,1.72,1.72,0,0,0,.39.1,1.47,1.47,0,0,1,.94.45l.11.12a1,1,0,0,1,.32,1.25l-.09.22a1.91,1.91,0,0,1-.74,1,1,1,0,0,1-.32.18v.1a4,4,0,0,0,0,.69,2.52,2.52,0,0,1-.08.82l-.05.18a1.36,1.36,0,0,1-.72,1,1.31,1.31,0,0,1-.7.18.64.64,0,0,0-.37.13l-.11.06c-.53.32-.61.4-.61.69a2.14,2.14,0,0,1-.53,1.6l-.16.18a2.07,2.07,0,0,1-.9.7,1.61,1.61,0,0,1-.36.1.84.84,0,0,1-.07.35l-.08.21c-.15.41-.32.87-.9,1l-.28.06A.94.94,0,0,0,12,17a1.26,1.26,0,0,1-.58.31v.14A1.79,1.79,0,0,1,11.06,19h0a2,2,0,0,1,.06.35,1.59,1.59,0,0,0,.06.3.93.93,0,0,1-.31,1l-.3.28V21A5.71,5.71,0,0,0,11,22c.3.52.52.9.19,1.22A1.74,1.74,0,0,1,10.05,23.73ZM7.31,6.55h0c0,.08,0,.08.13.19a3.14,3.14,0,0,1,.65.89c.22.42.29.57.33.66l.21.38c.08.15.1.16.31.23a3,3,0,0,1,.63.29c.48.3.62.52.59,1a2.16,2.16,0,0,0,0,.36A1.44,1.44,0,0,1,10,11.84L9.9,12a.46.46,0,0,0-.08.19v.17a3.5,3.5,0,0,1,.13.56,2.84,2.84,0,0,1-.16,1.63c-.06.18-.12.39-.2.66a4.61,4.61,0,0,0-.16.64,1.49,1.49,0,0,1-.1.53,3.2,3.2,0,0,0-.1,1.11v1.17A5.06,5.06,0,0,1,9,20.05a2.48,2.48,0,0,1-.12.41,1.25,1.25,0,0,0,.15.71,4.4,4.4,0,0,1,.26.8c.06.27.12.3.33.42a2.49,2.49,0,0,1,.5.35.53.53,0,0,0,.17-.08l-.12-.19a7.16,7.16,0,0,1-.45-.87c-.25-.59-.19-.91.23-1.27a1.29,1.29,0,0,0,.21-.19l.08-.09c0-.15-.06-.29-.08-.44v-.29a.81.81,0,0,1,.32-.92c.12-.11.08-.46,0-.74v-.31a.82.82,0,0,1,.71-.9c.06,0,.15,0,.16-.06a1.88,1.88,0,0,1,1-.46h.24c.05,0,.09-.08.18-.35a.57.57,0,0,1-.25-.21l-.13-.19.06-.28c.13-.45.6-.49.91-.52a1.83,1.83,0,0,0,.52-.09,1.07,1.07,0,0,0,.49-.4,2.75,2.75,0,0,1,.22-.26c.12-.12.24-.31.24-.89a1.69,1.69,0,0,1,1.09-1.54l.1-.07a1.47,1.47,0,0,1,.88-.26.43.43,0,0,0,.22-.06c.19-.11.19-.11.25-.36l.06-.22a1.4,1.4,0,0,0,0-.5,6.17,6.17,0,0,1,0-.86c.06-.39.11-.77.6-.87a.26.26,0,0,0,.15-.07,1,1,0,0,0,.39-.55.64.64,0,0,1,.12-.27L18.56,7l-.2-.23A1.86,1.86,0,0,1,18,6.69a1.91,1.91,0,0,1-.7-.22,1.07,1.07,0,0,0-.56-.09h-.11A1.26,1.26,0,0,1,16,6.05a3.81,3.81,0,0,0-.57-.29c-.54-.2-.76-.45-.8-.88a3.15,3.15,0,0,0-.78-1,1.33,1.33,0,0,0-.41-.25,3.25,3.25,0,0,1-.57-.33,3,3,0,0,0-1.07-.4l-.21,0a1,1,0,0,0-.43,0,3.31,3.31,0,0,1-.63,0,2,2,0,0,1-1.21-.59A.82.82,0,0,0,9,2.52,2.62,2.62,0,0,1,8.6,3a.81.81,0,0,1-.6.18v.13a3.48,3.48,0,0,1-.4,1.48c-.09.19-.16.32-.22.42s-.13.23-.09.71A1.91,1.91,0,0,1,7.31,6.55Zm-1.59-5a.25.25,0,0,0,.11.17c.11.09,0,.06.16.12a2.36,2.36,0,0,1,.54.4.51.51,0,0,0,.41.2h.15L6.94,2.4a1.86,1.86,0,0,1-.8-.55c-.11-.12-.22-.24-.32-.37Z"/></svg>