<svg id="Layer_6" data-name="Layer 6" xmlns="http://www.w3.org/2000/svg" viewBox="0 0 24 24"><g id="Layer_12" data-name="Layer 12"><path d="M15.6,19.53a1.8,1.8,0,0,1-1.71-1.61c0-.24-.4-.63-1.1-1.14l-.17-.13c-.32-.27-.34-1-.3-1.52l-.05,0a4.39,4.39,0,0,1-.41,1.16,4,4,0,0,0-.24.59,1.94,1.94,0,0,1-1.52,1.7,5.39,5.39,0,0,1-.68,0,1.84,1.84,0,0,0-.94.06s-1.43.84-2.21.55a.78.78,0,0,1-.48-.49,5.84,5.84,0,0,0-.46-.77c-.46-.69-.71-1.09-.63-1.47.15-.75,0-1.1,0-1.13a2.57,2.57,0,0,0-1.6,0c0,.09-.12.3-.2.51A3.2,3.2,0,0,1,2.25,17,1.35,1.35,0,0,1,1,17.46a1,1,0,0,1-.63-.67,2.63,2.63,0,0,1,.86-2.42,3.93,3.93,0,0,0,.31-.85c.08-.48.4-1.43,1.07-1.61.06,0,.16-.05.14-.43,0-.8.72-1.25,1.09-1.46L4,10a5,5,0,0,0,1.4-1.16A1.27,1.27,0,0,0,5.46,8a1,1,0,0,1,.78-1.17A1.68,1.68,0,0,1,7.41,7l.23.09.26-.24A3.08,3.08,0,0,1,9.08,6,5.22,5.22,0,0,1,11,6.12l.22,0a11.22,11.22,0,0,0,1.62.07,2.05,2.05,0,0,1,.25-1.55.69.69,0,0,1,.55-.21,4.66,4.66,0,0,1,2,.84A12.32,12.32,0,0,0,17,5.6c1.7.29,2.26.43,2.41.9A5.35,5.35,0,0,1,19,9.11a1.06,1.06,0,0,0,0,.74l.58.15c.68.2,1.16.34,1.35.67a1.56,1.56,0,0,0,.64.1,1.42,1.42,0,0,1,1.08-.7h0a.78.78,0,0,1,.69.44,2,2,0,0,1,0,1.38,4,4,0,0,0-.13.74,1.66,1.66,0,0,0,.23.56,1.22,1.22,0,0,1,.23,1.1.78.78,0,0,1-.55.44,1.51,1.51,0,0,1-1.27-.4,1.33,1.33,0,0,0-.19-.14,1.85,1.85,0,0,0,0,1.21,1,1,0,0,1,.3,1.11c-.08.16-.32.51-1,.38a2,2,0,0,1-1.11-.79,1.6,1.6,0,0,0-.21-.23,2.38,2.38,0,0,0-.32.16,1.43,1.43,0,0,1-1.15.28.77.77,0,0,1-.47-.45,3.85,3.85,0,0,1-.22-1,.41.41,0,0,0,0-.11l-.25.13a3.44,3.44,0,0,1-.31,2,3.25,3.25,0,0,1-.35.39c-.23.21-.27.27-.26.36a2,2,0,0,0,.07.39,1.45,1.45,0,0,1-.06,1.24A.8.8,0,0,1,15.6,19.53Zm-2.27-3.59.05,0c.72.53,1.4,1.11,1.5,1.79a.89.89,0,0,0,.52.72c0-.09,0-.18-.06-.25a3.33,3.33,0,0,1-.1-.56,1.41,1.41,0,0,1,.57-1.16,1.84,1.84,0,0,0,.23-.25,3.06,3.06,0,0,0,.12-1.37c-.14-.71.7-1,1.14-1.22l.16-.06a.65.65,0,0,1,.53,0c.33.19.37.58.43,1.08a5,5,0,0,0,.09.58l.27-.14a2.15,2.15,0,0,1,.66-.29,1.15,1.15,0,0,1,1.11.59l0,0a3.42,3.42,0,0,1-.08-.6A2,2,0,0,1,21,13.42c.55-.56,1.15-.11,1.44.1l.06.05a2,2,0,0,1-.3-.94,4.18,4.18,0,0,1,.16-1,3.18,3.18,0,0,0,.08-.33h0c-.1.2-.39.51-1.18.43a1.59,1.59,0,0,1-1.14-.54c-.16-.07-.54-.19-.78-.26a2.69,2.69,0,0,1-1-.38,1.8,1.8,0,0,1-.19-1.92,6,6,0,0,0,.36-1.73,12.47,12.47,0,0,0-1.65-.34A4.92,4.92,0,0,1,15,6.11a4.25,4.25,0,0,0-1.21-.59,6.37,6.37,0,0,0,0,.8,1.19,1.19,0,0,1,0,.46c-.18.71-2.18.47-2.79.37l-.24,0A4.7,4.7,0,0,0,9.32,7a2.76,2.76,0,0,0-.74.55,1.93,1.93,0,0,1-.71.49A1.35,1.35,0,0,1,7,7.89a1.43,1.43,0,0,0-.48-.15.33.33,0,0,0-.12.06,2.22,2.22,0,0,1-.2,1.49,5.82,5.82,0,0,1-1.77,1.54h0l-.1.06c-.17.09-.61.35-.6.52a1.24,1.24,0,0,1-.87,1.46,1.76,1.76,0,0,0-.35.81c0,.33-.36,1.35-.84,1.58a2.24,2.24,0,0,0-.36,1.19,1.89,1.89,0,0,0,.24-.19A3.26,3.26,0,0,0,2,15.49a6.83,6.83,0,0,1,.31-.69,1.19,1.19,0,0,1,.8-.5,3.39,3.39,0,0,1,2.16.2c.65.42.61,1.41.46,2.17l.48.72a7.59,7.59,0,0,1,.53.88A3.78,3.78,0,0,0,8,17.79a2.51,2.51,0,0,1,1.54-.2,3.45,3.45,0,0,0,.54,0c.23,0,.56-.53.58-.72a2.8,2.8,0,0,1,.33-1,3.65,3.65,0,0,0,.32-.84,1.07,1.07,0,0,1,.79-.91c.24-.1.84-.3,1.18,0a.64.64,0,0,1,.13.61A3.93,3.93,0,0,0,13.33,15.94Zm3.81-1.22h0ZM21,10.81h0Z"/></g></svg>