<svg id="Layer_1" data-name="Layer 1" xmlns="http://www.w3.org/2000/svg" viewBox="0 0 24 24"><path d="M15.8,7.55l-5.49,2.52a.51.51,0,0,0-.24.24L7.53,15.78a.49.49,0,0,0,.45.71.49.49,0,0,0,.21,0l5.48-2.53a.53.53,0,0,0,.25-.24l2.55-5.46a.5.5,0,0,0-.67-.67Zm-5.12,3.83,1.92,1.93L9,15Zm2.63,1.23-1.92-1.93L15,9Z"/><path d="M18.26,5.62a8.91,8.91,0,0,0-12.52,0,1.14,1.14,0,0,0-.11.11,9,9,0,1,0,12.74,0m.76,6.77h.79a7.87,7.87,0,0,1-2,4.74l-.56-.56a.5.5,0,0,0-.71,0,.51.51,0,0,0,0,.71l.56.56a7.88,7.88,0,0,1-4.75,2v-.79a.5.5,0,0,0-1,0v.79a7.88,7.88,0,0,1-4.75-2l.56-.56a.51.51,0,0,0,0-.71.5.5,0,0,0-.71,0L6,17.24a7.87,7.87,0,0,1-2-4.74h.79a.5.5,0,1,0,0-1H4.08a7.88,7.88,0,0,1,2-4.75l.55.55A.5.5,0,0,0,7,7.44a.49.49,0,0,0,.35-.14.51.51,0,0,0,0-.71L6.76,6a7.87,7.87,0,0,1,4.74-2v.79a.5.5,0,1,0,1,0V4.08a7.87,7.87,0,0,1,4.74,2l-.55.55a.51.51,0,0,0,0,.71.49.49,0,0,0,.35.14.5.5,0,0,0,.36-.14L18,6.75a7.88,7.88,0,0,1,2,4.75h-.79a.5.5,0,0,0,0,1Z"/><path d="M12,.8A11.2,11.2,0,1,0,23.21,12,11.21,11.21,0,0,0,12,.8Zm0,21.4A10.2,10.2,0,1,1,22.21,12,10.22,10.22,0,0,1,12,22.2Z"/></svg>