<svg id="Layer_1" data-name="Layer 1" xmlns="http://www.w3.org/2000/svg" viewBox="0 0 24 24"><path d="M18.22,16.4a2.33,2.33,0,0,1-2-1.38l-8.65-.11a2.46,2.46,0,0,1-2.23,1.44,2.23,2.23,0,0,1-2.14-1.78l-1.62-.34A.51.51,0,0,1,1.24,14l-.45-.68a.57.57,0,0,1-.08-.28v-1a.5.5,0,0,1,.23-.42l.3-.19.14-1.09L.77,9.18a.52.52,0,0,1,0-.5.51.51,0,0,1,.46-.22l1.53.1a.52.52,0,0,1,.39.23l.45.71h.15L6.44,7.87a.49.49,0,0,1,.24-.08L10.2,7.6l3.2.32a.6.6,0,0,1,.19.06l3.77,2,2.48.5,2.55.8a.48.48,0,0,1,.3.26l.55,1.17a.54.54,0,0,1,.05.21v1.15a.51.51,0,0,1,0,.17l-.17.49a.5.5,0,0,1-.47.33H20.26A2.28,2.28,0,0,1,18.22,16.4Zm-11-2.5h0l9.31.12a.51.51,0,0,1,.47.34s.38,1,1.22,1a1.41,1.41,0,0,0,1.24-1,.5.5,0,0,1,.48-.35h2.32l0-.07v-.95l-.41-.88-2.29-.72L17.09,11,17,10.91l-3.76-2-3-.31-3.31.19L4.18,10.42a.5.5,0,0,1-.27.08H3.34a.5.5,0,0,1-.42-.23l-.46-.73-.4,0,.28.52a.52.52,0,0,1,.05.3L2.2,11.81a.51.51,0,0,1-.22.35l-.27.17v.58l.25.38,1.74.37a.49.49,0,0,1,.39.42c0,.13.21,1.27,1.23,1.27a1.51,1.51,0,0,0,1.41-1.08A.5.5,0,0,1,7.21,13.9Z"/></svg>