<svg id="Layer_6" data-name="Layer 6" xmlns="http://www.w3.org/2000/svg" viewBox="0 0 24 24"><g id="Layer_10" data-name="Layer 10"><path d="M16.21,8.27a.83.83,0,0,1-.58-.22,4.26,4.26,0,0,1-.56-2.67l0-.09c.27-.53.9-1.76,1.77-1.39a1.24,1.24,0,0,0,.55-.63,2.56,2.56,0,0,1,0-1.7A1.08,1.08,0,0,1,18.18,1a1,1,0,0,1,.8.13h0a2.86,2.86,0,0,1,.69.83,3.79,3.79,0,0,0,.58.74,2.05,2.05,0,0,0,1.44.65,1.28,1.28,0,0,1,1.16.82,1.06,1.06,0,0,1-.08,1.15c-.2.23-.54.28-1,.35-.26,0-.89.12-1,.26a2.51,2.51,0,0,0-.17.55,1.15,1.15,0,0,1-.62,1c-.59.21-1.17-.32-1.64-.75l-.23-.21a1,1,0,0,0-.38-.08,1.51,1.51,0,0,1,0,1,1.84,1.84,0,0,1-1.26.85ZM16,5.81a6.27,6.27,0,0,0,.33,1.45A1.55,1.55,0,0,0,16.84,7c0-.05-.12-.42-.16-.56a1.57,1.57,0,0,1-.07-.32l-.05-.34.35-.23a2.11,2.11,0,0,1,1.8.18L19,6a4,4,0,0,0,.57.47s0-.1,0-.15a3.89,3.89,0,0,1,.24-.77c.28-.6,1.1-.72,1.76-.81L22,4.64a.44.44,0,0,0-.11-.18.19.19,0,0,0-.16-.09,3,3,0,0,1-2.14-.93,5.13,5.13,0,0,1-.71-.91A2.88,2.88,0,0,0,18.43,2a1.52,1.52,0,0,0,0,1.1c.12.5-.34,1.12-.68,1.42a1.21,1.21,0,0,1-1.15.33,2.93,2.93,0,0,0-.58.89Zm.53-1ZM18.4,2h0Z"/><path d="M11.27,19.4a1.44,1.44,0,0,1-1.28-1,1.41,1.41,0,0,1-.07-.63,2.08,2.08,0,0,0-.55.12,3.48,3.48,0,0,1-1.1.43,2.83,2.83,0,0,0-.35.1,3.25,3.25,0,0,1-1.79.54,1.32,1.32,0,0,1-1-.93,1.35,1.35,0,0,1,1.09-1.43A6.28,6.28,0,0,0,7.36,16c.4-.25.62-.38.84-.35a7.14,7.14,0,0,0,1.27-.28,2.47,2.47,0,0,1,1.94-.21s.3-.28.35-.41c.1-.52.26-1.11.72-1.27a1.8,1.8,0,0,1,1.29.15,2.94,2.94,0,0,0,.54-.41,1.42,1.42,0,0,1,.37-.48,1.94,1.94,0,0,0,.41-.56,4.37,4.37,0,0,1,.75-2.69h0a3.59,3.59,0,0,1,1.73-1c.52,0,1.08.68,1.21,1.24a3.94,3.94,0,0,1-.26,2.26,5,5,0,0,0-.74,1.61,4.45,4.45,0,0,1-.19,1,3.27,3.27,0,0,0-.15.77A1.51,1.51,0,0,1,16.82,17a1.93,1.93,0,0,0-.35.29,2,2,0,0,1-1.68.68c-1.73-.18-2,.14-2,.14l-.3.41c-.31.43-.63.88-1.12.91Zm-1-2.66a1.44,1.44,0,0,1,.35,0c.23.06.49.27.36.87a.8.8,0,0,0,0,.4c.08.23.23.35.35.36s.24-.32.37-.5a5.55,5.55,0,0,1,.35-.46c.27-.32.85-.7,2.9-.49.37,0,.56-.12.9-.43a3.47,3.47,0,0,1,.47-.39c.24-.15.25-.25.18-.69a3.09,3.09,0,0,1,.18-1.18,3.94,3.94,0,0,0,.15-.75,5.26,5.26,0,0,1,1-2.24,4.58,4.58,0,0,0,.05-1.41,1,1,0,0,0-.28-.43,4,4,0,0,0-.9.63,3.69,3.69,0,0,0-.55,1.87c.13.59-.33,1.08-.66,1.44a2.91,2.91,0,0,0-.2.23,3,3,0,0,1-1.55,1.11l-.3,0-.31-.37h-.17a3.28,3.28,0,0,0-.14.54A1.81,1.81,0,0,1,11.83,16,.93.93,0,0,1,11,16a2,2,0,0,0-.86.06,2,2,0,0,1-.89.35,6.85,6.85,0,0,1-1,.18l-.31.19a6.21,6.21,0,0,1-1.48.75.46.46,0,0,0-.34.3s.12.07.3.12a4.5,4.5,0,0,0,1-.43A2.49,2.49,0,0,1,8,17.33a5.21,5.21,0,0,0,.76-.25A2.86,2.86,0,0,1,10.25,16.74Zm0-.79h0Zm2.88-2a0,0,0,0,0,0,0Zm4.36-4.55Z"/><path d="M2.75,23c-.65,0-.85-.2-.94-.29a.72.72,0,0,1-.08-.94,1.58,1.58,0,0,0,.18-.55c0-.16,0-.19-.25-.36a1.49,1.49,0,0,1-.56-.62,1.09,1.09,0,0,1,0-.85A1.74,1.74,0,0,1,2,18.55H2c.34-.13,1.51-.3,1.92.11,0,0,.14.1.25.18a2.43,2.43,0,0,1,.93.84A1.64,1.64,0,0,1,5,20.85a2.78,2.78,0,0,0-.09.3v.14c0,.41-.06,1.37-1,1.57A5.53,5.53,0,0,1,2.75,23Zm-.4-3.53a.78.78,0,0,0-.32.31.45.45,0,0,0,.21.26,1.27,1.27,0,0,1,.66,1.31,2.44,2.44,0,0,1-.18.66,5.72,5.72,0,0,0,1-.14c.14,0,.16-.46.17-.64s0-.15,0-.2A2.13,2.13,0,0,1,4,20.53a1.83,1.83,0,0,0,.13-.48c-.05-.05-.39-.27-.55-.38a3.28,3.28,0,0,1-.35-.25,2.46,2.46,0,0,0-.9.06Zm.84-.11Z"/><path d="M7.14,21.68H7.06a1,1,0,0,1-.78-.32,1.42,1.42,0,0,1,0-1.4,2.67,2.67,0,0,1,1.91-1.08,2,2,0,0,0,.35,0,2.19,2.19,0,0,1,.68.09l.19,0c.34.08.73.17.81.56l.07.31-.3.28a.86.86,0,0,1-.8.69,2.83,2.83,0,0,0-1.08.47A1.33,1.33,0,0,1,7.14,21.68Zm0-1a.83.83,0,0,0,.31,0,3.46,3.46,0,0,1,1.45-.72l-.32,0a2.8,2.8,0,0,1-.51,0,3,3,0,0,0-.88.58A1.14,1.14,0,0,0,7.09,20.68Zm-.13,0Z"/></g></svg>