<svg id="Layer_1" data-name="Layer 1" xmlns="http://www.w3.org/2000/svg" viewBox="0 0 24 24"><path d="M19.43,11.56l-3.8-1.41.95-2a.52.52,0,0,0-.09-.57.54.54,0,0,0-.57-.1l-2,.94L12.49,4.57A.5.5,0,0,0,12,4.24h0a.5.5,0,0,0-.47.33l-1.41,3.8-2-.95a.5.5,0,0,0-.56.1.53.53,0,0,0-.11.57l.94,2-3.81,1.4a.49.49,0,0,0,0,.93l3.8,1.41-.94,2a.49.49,0,0,0,.1.56.51.51,0,0,0,.36.15.54.54,0,0,0,.21-.05l2-.93,1.39,3.8a.5.5,0,0,0,.47.33h0a.5.5,0,0,0,.47-.33l1.4-3.8,2,.95a.52.52,0,0,0,.21,0,.49.49,0,0,0,.45-.71l-.93-2,3.81-1.39a.48.48,0,0,0,.33-.46A.52.52,0,0,0,19.43,11.56ZM15.1,8.93l-.4.87-.35-.13-.13-.34Zm-5.31.38-.13.35-.34.12-.4-.87Zm-.88,5.77.41-.86.33.12.13.35Zm6.17,0-.88-.41.12-.33.36-.13Zm-.28-2h0l-1,.37a.51.51,0,0,0-.3.29l-.36,1h0l-1.12,3-1.1-3h0l-.36-1a.52.52,0,0,0-.3-.3l-1-.36h0L6.19,12l4-1.48a.49.49,0,0,0,.29-.29l1.5-4,1.48,4a.48.48,0,0,0,.29.3l4,1.5Z"/><path d="M19.9,3.9a11.3,11.3,0,0,0-15.84,0l-.13.15a11.33,11.33,0,1,0,16.14,0Zm1.24,8.56h1.15a10.24,10.24,0,0,1-2.65,6.42l-.83-.82a.51.51,0,0,0-.71,0h0a.51.51,0,0,0,0,.71l.83.82a10.18,10.18,0,0,1-6.44,2.67V21.11a.5.5,0,0,0-1,0v1.15a10.18,10.18,0,0,1-6.44-2.67l.83-.82a.5.5,0,1,0-.71-.71h0l-.82.82a10.2,10.2,0,0,1-2.66-6.42H2.84a.5.5,0,0,0,.5-.5.5.5,0,0,0-.5-.5H1.69A10.29,10.29,0,0,1,4.36,5l.81.81A.45.45,0,0,0,5.52,6a.49.49,0,0,0,.36-.15.51.51,0,0,0,0-.71l-.81-.8a10.28,10.28,0,0,1,6.42-2.64V2.81a.5.5,0,1,0,1,0V1.66a10.2,10.2,0,0,1,6.42,2.66l-.81.8a.51.51,0,0,0,0,.71.49.49,0,0,0,.36.15.47.47,0,0,0,.35-.15L19.62,5a10.23,10.23,0,0,1,2.67,6.44H21.14a.5.5,0,0,0-.5.5A.5.5,0,0,0,21.14,12.46Z"/></svg>