<svg xmlns="http://www.w3.org/2000/svg" viewBox="0 0 24 24"><g id="Layer_16" data-name="Layer 16"><path d="M12.55,23.44a.81.81,0,0,1-.74-.5l-.13-.25a2,2,0,0,1-.33-1.27,1.88,1.88,0,0,0-.29-.73c-.07-.13-.14-.27-.2-.4a2.52,2.52,0,0,1-.21-.68,1.73,1.73,0,0,0-.2-.53,3.31,3.31,0,0,1-.6-1.63,1.16,1.16,0,0,0-.08-.32,1,1,0,0,1,.27-1.2l.15-.15c.25-.24.25-.24.14-.77-.05-.2-.08-.36-.11-.51-.1-.51-.11-.58-.28-.75a.38.38,0,0,0-.2-.1A.93.93,0,0,1,9,12.92,4.38,4.38,0,0,1,9,11.5h0a1.8,1.8,0,0,1-1.17-.6h0a1.76,1.76,0,0,0-.4.12,2,2,0,0,1-1.17.11,1,1,0,0,0-.76.22.94.94,0,0,1-.36.18,1.54,1.54,0,0,1-1.42-.7.74.74,0,0,0-.32-.22,1.33,1.33,0,0,1-.79-.88.5.5,0,0,0-.24-.31,1.11,1.11,0,0,1-.54-.66A2.69,2.69,0,0,1,1.74,7l.05-.13a2.36,2.36,0,0,1,0-.4.88.88,0,0,0-.08-.27,1.22,1.22,0,0,1,.36-1.51,1.54,1.54,0,0,0,.39-.56,1.42,1.42,0,0,1,.62-.73l.24-.13c.35-.19.44-.24.5-.49A3.27,3.27,0,0,1,5.42,1a1.24,1.24,0,0,1,1.1,0L7.09.82A3.91,3.91,0,0,1,8.34.57c.16,0,.32,0,.48,0,.57,0,1.21,0,1.48.49a1.42,1.42,0,0,1,.14.49.47.47,0,0,0,.2.36,2.15,2.15,0,0,0,1.18.5l.1,0s0-.06.06-.09a1.13,1.13,0,0,1,.94-.44h.18a2.7,2.7,0,0,1,1.57.47c.13.09.25.08.49.06a1.49,1.49,0,0,1,1.22.31,3.85,3.85,0,0,1,1,2l.07.24c.07.25.12.51.18.77A3.45,3.45,0,0,0,18,6.85,11.26,11.26,0,0,0,19,8.11a4.64,4.64,0,0,0,.81.61h0a3.93,3.93,0,0,1,1.08-.2,1,1,0,0,1,1,.54.93.93,0,0,1-.08,1c-.06.08-.11.19-.18.31a3.19,3.19,0,0,1-1,1.3,2.67,2.67,0,0,0-1.14.95,2.56,2.56,0,0,1-.62.79,1.84,1.84,0,0,0-.34.39,2.57,2.57,0,0,1,0,.51,2.87,2.87,0,0,0,.16,1l.15.31a1.23,1.23,0,0,1,0,1.46,1.83,1.83,0,0,1-.84.57,1.21,1.21,0,0,0-.35.19,2.22,2.22,0,0,1-.24.3c-.11.13-.11.13-.13.22a1.18,1.18,0,0,0,.06.28,1.42,1.42,0,0,1,.06.85.87.87,0,0,1-.75.52,2.26,2.26,0,0,1-.51,1.3,2.45,2.45,0,0,0-.2.4,1.68,1.68,0,0,1-.88,1.05l-.29.11a1.4,1.4,0,0,1-.64.15,1.53,1.53,0,0,1-.71-.13,1.13,1.13,0,0,1-.88.63Zm-1.83-6.71s0,0,0,.05a2.2,2.2,0,0,1,.14.61,2.23,2.23,0,0,0,.45,1.15,2.53,2.53,0,0,1,.32.85,1.72,1.72,0,0,0,.14.46l.18.35a2.24,2.24,0,0,1,.39,1.37,1.28,1.28,0,0,0,.23.63v0A.7.7,0,0,1,13,21.8a1.08,1.08,0,0,1,.85,0c.09,0,.18.11.29.08a.67.67,0,0,0,.31-.07l.35-.14c.08,0,.21-.34.28-.49a2.35,2.35,0,0,1,.35-.64,1.3,1.3,0,0,0,.28-.87.82.82,0,0,1,.75-.77.31.31,0,0,1,0-.08,1.47,1.47,0,0,1-.09-.77,1.31,1.31,0,0,1,.36-.69,1.83,1.83,0,0,0,.19-.24,1.78,1.78,0,0,1,.79-.54,1,1,0,0,0,.41-.23c0-.07-.08-.24-.14-.36s-.12-.24-.18-.38a3.56,3.56,0,0,1-.24-1.32c0-.15,0-.3,0-.44a1.55,1.55,0,0,1,.65-1.25,2.14,2.14,0,0,0,.39-.45A3.39,3.39,0,0,1,20,10.76a2.47,2.47,0,0,0,.7-.91c.05-.1.1-.2.15-.28a2.83,2.83,0,0,0-.75.15,1.59,1.59,0,0,1-.36.07c-.46,0-1.49-.94-1.5-.95A13,13,0,0,1,17.1,7.45a4.13,4.13,0,0,1-.51-1.52c-.05-.24-.1-.47-.16-.69L16.36,5a3.1,3.1,0,0,0-.67-1.46c-.09-.08-.17-.08-.44-.06a1.6,1.6,0,0,1-1.16-.23,1.77,1.77,0,0,0-1-.3h-.2l-.13.13a1.05,1.05,0,0,1-1,.39l-.11,0A3.27,3.27,0,0,1,9.9,2.65a1.48,1.48,0,0,1-.49-1V1.61a5,5,0,0,0-.55,0c-.19,0-.38,0-.56,0a4.46,4.46,0,0,0-.89.2A2,2,0,0,1,6.13,2c-.15-.06-.19-.05-.22,0h0A2.49,2.49,0,0,0,4.81,3a1.68,1.68,0,0,1-1,1.19l-.21.11c-.08,0-.1.09-.19.28a2.47,2.47,0,0,1-.65.89c-.15.13-.15.13-.06.37a1.84,1.84,0,0,1,.13.63,1.75,1.75,0,0,0,0,.29,1.24,1.24,0,0,1-.12.63,1.72,1.72,0,0,0,0,1c0,.06,0,.06.11.11a1.46,1.46,0,0,1,.67.85c.07.19.09.2.24.28a1.59,1.59,0,0,1,.67.48,1.25,1.25,0,0,0,.41.34,2,2,0,0,1,1.48-.39,1.08,1.08,0,0,0,.67,0,2.59,2.59,0,0,1,.55-.17l.28-.06a.69.69,0,0,1,.62.05L8.6,10l.05.3h0s.08.08.5.17.85.25.84.86a1.7,1.7,0,0,1,0,.21,4.52,4.52,0,0,0,0,1.09,1.32,1.32,0,0,1,.66.36,2,2,0,0,1,.57,1.3c0,.14.06.3.1.48.21,1,0,1.31-.43,1.74l-.14.13-.06.07Z"/><path d="M20.31,20.25a.82.82,0,0,1-.43-.13,1.23,1.23,0,0,0-.23-.09,1,1,0,0,1-.75-1,2.44,2.44,0,0,0,0-.44,1.23,1.23,0,0,1,.13-1,1.2,1.2,0,0,1,.46-.4,1,1,0,0,0,0-.38,1.92,1.92,0,0,1,0-.79,1,1,0,0,1,.65-.66h0a1.11,1.11,0,0,1,.57-.58,1.43,1.43,0,0,1,1.08-.09h0c.71.32.73,1.49.58,2a2.8,2.8,0,0,1-.35.69,1.59,1.59,0,0,0-.29.59,2.45,2.45,0,0,1-.32,1.35C21,20,20.68,20.25,20.31,20.25ZM19.93,19h0a2.13,2.13,0,0,1,.31.12,2.52,2.52,0,0,0,.18-.27l.08-.13a1.68,1.68,0,0,0,.14-.78,2.17,2.17,0,0,1,.45-1.14,2.31,2.31,0,0,0,.23-.42,1.47,1.47,0,0,0,0-.76.52.52,0,0,0-.25.1.84.84,0,0,1-.58.56l-.1.05a1.38,1.38,0,0,1,.06.3,3,3,0,0,1,0,.63.93.93,0,0,1-.55.81q-.09,0-.09.06a1,1,0,0,0,0,.22,3.42,3.42,0,0,1,.06.62Zm.18-3.59Z"/></g></svg>