<svg id="Layer_1" data-name="Layer 1" xmlns="http://www.w3.org/2000/svg" viewBox="0 0 24 24"><path d="M18,7.71a5.92,5.92,0,0,0-4-.46c.82-.5,1.84-1.11,2.38-1.37,1-.46,3.9-1.4,3.93-1.41a.5.5,0,0,0,.08-.92,6.25,6.25,0,0,0-5.18-.15,5.85,5.85,0,0,0-2.72,2.8A5.83,5.83,0,0,0,10.4,2.73a6.3,6.3,0,0,0-5.09-1,.51.51,0,0,0-.12.92S7.86,4.23,8.72,4.9c.49.38,1.4,1.25,2.1,1.94a5.76,5.76,0,0,0-4-.34,6.24,6.24,0,0,0-3.77,3.56.5.5,0,0,0,.12.54.48.48,0,0,0,.34.13.52.52,0,0,0,.21,0S6.55,9.44,7.59,9.13C8.32,8.92,10,8.62,11,8.45l-.14.39A27.63,27.63,0,0,0,9,19.29a17.71,17.71,0,0,0-5,2.22.5.5,0,0,0-.14.69.52.52,0,0,0,.7.14,17.31,17.31,0,0,1,4.91-2.13S10.56,20,10.93,20s1-.07,1.33-.07a14.27,14.27,0,0,1,7.2,2.46.5.5,0,1,0,.57-.83,16.77,16.77,0,0,0-7.17-2.6c-.26-1.22-1.07-5.62.23-9.36l.05-.13a5.85,5.85,0,0,0,.2-.7c.86.34,2.65,1,3.37,1.42,1,.51,3.46,2.28,3.49,2.3a.48.48,0,0,0,.29.09.48.48,0,0,0,.26-.07A.52.52,0,0,0,21,12,6.31,6.31,0,0,0,18,7.71ZM15.61,4.3a4.4,4.4,0,0,1,1.88-.4,5.48,5.48,0,0,1,1,.1c-.92.31-2,.71-2.6,1a27.51,27.51,0,0,0-2.41,1.38A4.77,4.77,0,0,1,15.61,4.3ZM7,2.58a4.71,4.71,0,0,1,2.79.94A4.7,4.7,0,0,1,11.38,6c-.69-.67-1.55-1.49-2.05-1.88S7.83,3.08,7,2.58Zm.31,5.59c-.6.18-1.7.62-2.59,1A4.72,4.72,0,0,1,7.1,7.46a3.91,3.91,0,0,1,1.2-.17A5.29,5.29,0,0,1,10,7.6C9.08,7.77,7.91,8,7.31,8.17Zm4.44,1.08a.93.93,0,0,0,.05-.14,3.31,3.31,0,0,1,.36-.8.42.42,0,0,1,.2.07c.05.1-.1.51-.17.7l0,.14a19.56,19.56,0,0,0-.31,9.66,11.26,11.26,0,0,0-1.85.19A27,27,0,0,1,11.75,9.25Zm5.43,0c-.56-.3-1.65-.75-2.56-1.11a4.81,4.81,0,0,1,2.91.45,4.71,4.71,0,0,1,2,2.15C18.72,10.21,17.73,9.55,17.18,9.26Z"/></svg>