<svg id="Layer_1" data-name="Layer 1" xmlns="http://www.w3.org/2000/svg" viewBox="0 0 24 24"><path d="M23.24,12.72l-.55-1.17a.48.48,0,0,0-.3-.26l-2.55-.8L17.36,10,13.59,8a.6.6,0,0,0-.19-.06L10.2,7.6l-3.52.19a.49.49,0,0,0-.24.08L3.77,9.5H3.62l-.45-.71a.52.52,0,0,0-.39-.23l-1.53-.1a.51.51,0,0,0-.46.22.52.52,0,0,0,0,.5l.61,1.18-.14,1.09-.3.19a.5.5,0,0,0-.23.42v1a.57.57,0,0,0,.08.28l.45.68a.51.51,0,0,0,.32.21l1.81.38a2,2,0,0,0,3.85.29h0L16.5,15a1.95,1.95,0,0,0,3.72,0h0l2.4,0a.5.5,0,0,0,.47-.33l.17-.49a.51.51,0,0,0,0-.17V12.93A.54.54,0,0,0,23.24,12.72ZM5.32,15.4a1,1,0,1,1,0-1.93,1,1,0,0,1,0,1.93Zm13.05,0a1,1,0,1,1,0-1.93,1,1,0,0,1,0,1.93ZM22.29,14l0,.07-2,0a2,2,0,0,0-3.84,0L7.2,13.9h0a2,2,0,0,0-3.67-.28h0L2,13.29l-.25-.38v-.58L2,12.16a.51.51,0,0,0,.22-.35l.19-1.47a.52.52,0,0,0-.05-.3l-.28-.52.4,0,.46.73a.5.5,0,0,0,.42.23h.57a.5.5,0,0,0,.27-.08L6.86,8.79l3.31-.19,3,.31,3.76,2,.13.05,2.5.49,2.29.72.41.88Z"/></svg>