<svg id="Layer_6" data-name="Layer 6" xmlns="http://www.w3.org/2000/svg" viewBox="0 0 24 24"><g id="Layer_24" data-name="Layer 24"><path d="M8,23.28l-.18,0a1.58,1.58,0,0,1-.92-.78,1.39,1.39,0,0,1-.18-.37l-.11,0L6.52,22a1.48,1.48,0,0,0-.71-.11,1,1,0,0,1-1.08-.62L4.58,21a1.33,1.33,0,0,1-.22-.66c0-.09,0-.22-.06-.42a4.06,4.06,0,0,1,.19-2.22c.07-.23.15-.43.22-.61.19-.46.23-.59.12-.78s-.1-.14-.15-.17c-.29-.17-.46-.37-.6-1L4,14.71a8.66,8.66,0,0,1-.17-1,4,4,0,0,1,0-.6,1.37,1.37,0,0,0-.19-1,3.59,3.59,0,0,0-.47-.62,2.25,2.25,0,0,1-.49-.72,1.38,1.38,0,0,0-.19-.28,1.17,1.17,0,0,1-.21-1.4,3,3,0,0,0,.15-.51,1.4,1.4,0,0,1,.83-1.15,2.6,2.6,0,0,1,.66-.2c.13,0,.17,0,.4-.29a2.77,2.77,0,0,0,.4-.6,1.53,1.53,0,0,1,.64-.69l.1,0,.09-.05s0-.12-.09-.24a3.51,3.51,0,0,0-.35-.67,2.91,2.91,0,0,1-.31-.59,2.26,2.26,0,0,0-.23-.38A2.27,2.27,0,0,1,4,2.43a1.53,1.53,0,0,1,.43-1.14A1.7,1.7,0,0,1,5.6.73h0a1.51,1.51,0,0,1,1.18.33c.09.06.19.14.36.24A4.86,4.86,0,0,1,8.07,2a4.09,4.09,0,0,0,.44.37l.25.19a3.6,3.6,0,0,0,.85.49,1.35,1.35,0,0,0,.64.13,1.71,1.71,0,0,1,.81.19,4.39,4.39,0,0,0,.63.27,5.31,5.31,0,0,1,1.17.57,7.24,7.24,0,0,0,.81.44,7,7,0,0,1,.68.36,7.52,7.52,0,0,1,.69.51,9.78,9.78,0,0,0,1,.72l.25.15c.63.38,1.12.68,1.22,1.27a.83.83,0,0,1-.05.53l0,.19,0,.12a2.8,2.8,0,0,0,.3.88l.32.09a3.94,3.94,0,0,0,.44.11c.55.09.75.33.79.92a2.12,2.12,0,0,1-.07.6s0,.06.12.17a2,2,0,0,0,.53.35,1.16,1.16,0,0,1,.61.58,2,2,0,0,1,.33.18c.43.25,1.23.72.83,1.4a1,1,0,0,0-.09.19c-.14.32-.27.51-.88,1a2.42,2.42,0,0,0-.52.56,2.18,2.18,0,0,1-1.17.91,9.09,9.09,0,0,0-1.79.8.37.37,0,0,0-.18.17c-.21.34-.46.54-1.2.59a1.87,1.87,0,0,1-1-.18c-.07,0-.15,0-.39.11-.44.25-.76.47-1,.64a4.33,4.33,0,0,1-.74.44,3.3,3.3,0,0,1-.4.16,1.65,1.65,0,0,0-.6.32,4.71,4.71,0,0,1-.53.33.89.89,0,0,0-.41.4,2.54,2.54,0,0,0-.27.71,2.44,2.44,0,0,1-.46,1,6.32,6.32,0,0,1-1.34,1.12A1.13,1.13,0,0,1,8,23.28Zm-.25-1.4a1.84,1.84,0,0,0,.29.37,7,7,0,0,0,1.16-1,1.49,1.49,0,0,0,.24-.62,3.11,3.11,0,0,1,.42-1,1.75,1.75,0,0,1,.78-.74l.41-.26a2.74,2.74,0,0,1,.89-.47l.29-.11a5.22,5.22,0,0,0,.59-.36c.28-.19.62-.42,1.1-.69a1.29,1.29,0,0,1,1.32-.15.86.86,0,0,0,.53.09,1.42,1.42,0,0,0,.37-.06,1.21,1.21,0,0,1,.57-.57,10.42,10.42,0,0,1,1.94-.87,1.19,1.19,0,0,0,.68-.54,3.22,3.22,0,0,1,.74-.78c.46-.34.49-.41.54-.53a.36.36,0,0,1,0-.09l-.35-.21a1.64,1.64,0,0,1-.76-.67l-.12,0a3.26,3.26,0,0,1-.74-.5,1.06,1.06,0,0,1-.45-1.21,1.09,1.09,0,0,0,0-.25,3.71,3.71,0,0,1-.5-.13,1.68,1.68,0,0,0-.36-.08l-.35,0L17,10a3.69,3.69,0,0,1-.46-1.24l0-.12a1.2,1.2,0,0,1,0-.8,2.68,2.68,0,0,0-.73-.55l-.25-.16a9.18,9.18,0,0,1-1.08-.79,6.53,6.53,0,0,0-.58-.43,6.54,6.54,0,0,0-.6-.32,6,6,0,0,1-1-.54,4.56,4.56,0,0,0-.93-.43,7.41,7.41,0,0,1-.76-.33.68.68,0,0,0-.34-.06,2.55,2.55,0,0,1-1-.22,4.56,4.56,0,0,1-1-.61L7.9,3.23a5,5,0,0,1-.54-.46,3.79,3.79,0,0,0-.74-.57,3.89,3.89,0,0,1-.46-.31C6,1.76,6,1.75,5.63,1.77h0A.74.74,0,0,0,5.22,2a.52.52,0,0,0-.15.4,1.25,1.25,0,0,0,.32.73,2.7,2.7,0,0,1,.34.59A2.94,2.94,0,0,0,6,4.12,4.43,4.43,0,0,1,6.39,5c.38.93.12,1.29-.47,1.6a.54.54,0,0,0-.31.32,4.28,4.28,0,0,1-.53.77,1.51,1.51,0,0,1-1,.65,1.21,1.21,0,0,0-.37.11c-.19.09-.19.12-.26.43a3.9,3.9,0,0,1-.22.7.69.69,0,0,0-.05.19l.1.13a2.3,2.3,0,0,1,.35.53,1.49,1.49,0,0,0,.3.44,3.69,3.69,0,0,1,.59.77,2.38,2.38,0,0,1,.35,1.62,1.78,1.78,0,0,0,0,.4,4.34,4.34,0,0,0,.15.85l.1.46a2.28,2.28,0,0,0,.1.34,1.21,1.21,0,0,1,.55.56,1.74,1.74,0,0,1-.07,1.67c-.06.16-.13.33-.19.52a3.15,3.15,0,0,0-.15,1.76c0,.21,0,.36.06.46a1.23,1.23,0,0,0,0,.13s0,.07.07.13l.16.27a.31.31,0,0,0,.05.09h.06a2.49,2.49,0,0,1,1.15.19L7,21.1C7.45,21.27,7.88,21.44,7.79,21.88Z"/></g></svg>