<svg id="Layer_1" data-name="Layer 1" xmlns="http://www.w3.org/2000/svg" viewBox="0 0 24 24"><path d="M21.87,3A1.19,1.19,0,0,0,21,2.61a1.88,1.88,0,0,0-1.15.59L8.29,13.71a2,2,0,0,0-.73,1.35,1.78,1.78,0,0,0,.06.51,2.54,2.54,0,0,0-2.45.56,2.83,2.83,0,0,0-1,1.76,1.45,1.45,0,0,1-.11.39,7.67,7.67,0,0,1-1.86.28.5.5,0,0,0-.43.29.54.54,0,0,0,.06.52,5.31,5.31,0,0,0,4,2A4.42,4.42,0,0,0,7.7,21a3.16,3.16,0,0,0,2-2.72,2.79,2.79,0,0,0-.14-1h.21a2,2,0,0,0,1.33-.7L21.62,5a2,2,0,0,0,.6-1.22A1.16,1.16,0,0,0,21.87,3ZM7.28,20.05a3.61,3.61,0,0,1-3.89-.59,3.55,3.55,0,0,0,1.25-.34,1.43,1.43,0,0,0,.56-1,1.89,1.89,0,0,1,.63-1.22,1.85,1.85,0,0,1,2.36,0,1.47,1.47,0,0,1,.53,1.31A2.12,2.12,0,0,1,7.28,20.05ZM20.91,4.35,10.36,15.94a1.09,1.09,0,0,1-.63.35A1,1,0,0,1,9,15.92l-.06-.06a1,1,0,0,1-.37-.73,1.07,1.07,0,0,1,.38-.66L20.55,3.9A.94.94,0,0,1,21,3.61s.07,0,.14.08.06.08.06.11A1,1,0,0,1,20.91,4.35Z"/></svg>