<svg id="Layer_1" data-name="Layer 1" xmlns="http://www.w3.org/2000/svg" viewBox="0 0 24 24"><path d="M18.66,8.5a6.6,6.6,0,0,0-4.79-.43c1-.59,2.29-1.4,3-1.72,1.1-.51,4.36-1.56,4.39-1.57a.53.53,0,0,0,.35-.44.49.49,0,0,0-.27-.48,6.92,6.92,0,0,0-5.73-.17A6.51,6.51,0,0,0,12.5,7a6.56,6.56,0,0,0-2.32-4A7,7,0,0,0,4.55,1.84a.49.49,0,0,0-.36.42.48.48,0,0,0,.24.5s3,1.75,3.94,2.5c.61.47,1.8,1.62,2.6,2.4a6.58,6.58,0,0,0-4.74-.51,7,7,0,0,0-4.17,3.93.51.51,0,0,0,.13.55.48.48,0,0,0,.34.13.45.45,0,0,0,.2,0S5.9,10.32,7.07,10c.84-.25,2.82-.6,3.88-.78-.08.19-.14.37-.19.53C8.47,14.85,8.68,21.57,8.69,21.86a.5.5,0,0,0,.5.48h3.32a.49.49,0,0,0,.39-.19.51.51,0,0,0,.1-.43c0-.06-1.54-6.36.16-11.24l.05-.15a3.63,3.63,0,0,0,.24-.83c.94.36,3,1.17,3.83,1.6,1.07.58,3.87,2.56,3.9,2.58a.5.5,0,0,0,.29.09.48.48,0,0,0,.26-.07.52.52,0,0,0,.23-.51A6.93,6.93,0,0,0,18.66,8.5ZM16,4.59a4.93,4.93,0,0,1,2.12-.46,6.38,6.38,0,0,1,1.38.16c-1.06.36-2.43.84-3.1,1.16S14.49,6.51,13.54,7.1A5.5,5.5,0,0,1,16,4.59ZM6.21,2.66A5.45,5.45,0,0,1,9.57,3.72a5.42,5.42,0,0,1,1.85,3C10.62,5.93,9.57,4.93,9,4.47S7.17,3.24,6.21,2.66ZM6.79,9c-.72.21-2.06.76-3.09,1.19a5.46,5.46,0,0,1,2.82-2.1,4.58,4.58,0,0,1,1.35-.19A5.91,5.91,0,0,1,10,8.35C8.93,8.54,7.5,8.81,6.79,9Zm5.48,1,0,.16c-1.5,4.29-.69,9.42-.33,11.18H9.68c0-1.63.14-7.06,2-11.2l.05-.15a3.6,3.6,0,0,1,.43-.94c.2,0,.29.08.3.11S12.36,9.77,12.27,10Zm5.48.22c-.66-.35-2-.9-3-1.3a5.41,5.41,0,0,1,3.48.46A5.44,5.44,0,0,1,20.53,12C19.61,11.38,18.41,10.57,17.75,10.22Z"/></svg>