<svg id="Layer_1" data-name="Layer 1" xmlns="http://www.w3.org/2000/svg" viewBox="0 0 24 24"><path d="M23.09,16.7l-8.18-10a.52.52,0,0,0-.77,0l-4.06,5L7.94,9a.5.5,0,0,0-.77,0L.91,16.7a.49.49,0,0,0-.06.53.5.5,0,0,0,.45.28H22.7a.49.49,0,0,0,.45-.28A.48.48,0,0,0,23.09,16.7ZM14.52,7.78l1.65,2-.46.48-.83-.8a.49.49,0,0,0-.69,0l-.82.8-.48-.49Zm-7,2.35,1.72,2.11-.55.57L7.9,12a.51.51,0,0,0-.69,0l-.83.8-.55-.56ZM2.35,16.51,5.2,13l.81.84a.53.53,0,0,0,.36.15.5.5,0,0,0,.35-.14l.83-.81.84.81a.5.5,0,0,0,.35.14h0a.49.49,0,0,0,.35-.15L9.92,13l.82,1,2,2.48Zm11.7,0-3.27-4,0-.08,1.53-1.87.74.76a.47.47,0,0,0,.35.15.45.45,0,0,0,.35-.14l.84-.81.83.81a.5.5,0,0,0,.35.14h0a.49.49,0,0,0,.36-.15l.72-.75,4.85,5.94Z"/></svg>