<svg id="Layer_1" data-name="Layer 1" xmlns="http://www.w3.org/2000/svg" viewBox="0 0 24 24"><path d="M2.1,7.14A3.21,3.21,0,0,0,4.38,8.57,4.24,4.24,0,0,0,6,11a6.81,6.81,0,0,0-.2,5,8.49,8.49,0,0,0,8,5.64,5.8,5.8,0,0,0,.59,0,8,8,0,0,0,7.16-4.13,7.58,7.58,0,0,0,.65-5.75h0a.87.87,0,0,0-1.49-.25,5.69,5.69,0,0,1-5.92,1.6,5.48,5.48,0,0,1-3-2A4.79,4.79,0,1,0,6,3.46,4.59,4.59,0,0,0,4.66,5.23a5.88,5.88,0,0,1-2.31-.79.56.56,0,0,0-.66.11C1.26,5,1.67,6.53,2.1,7.14Zm3.14.22a7.46,7.46,0,0,1,.1-1.05A3.38,3.38,0,0,1,6.61,4.2,3.3,3.3,0,0,1,7,3.9,3.8,3.8,0,1,1,11,10.42a.5.5,0,0,0-.22.58c.28,1,1.2,2.17,3.84,3a6.48,6.48,0,0,0,6.82-1.76A6.79,6.79,0,0,1,20.72,17a7.13,7.13,0,0,1-6.78,3.52,7.52,7.52,0,0,1-7.12-5,5.94,5.94,0,0,1,.33-4.44.54.54,0,0,0-.2-.67A3.34,3.34,0,0,1,5.24,7.36ZM3,6.68a2.57,2.57,0,0,1-.4-1,7.59,7.59,0,0,0,1.76.52A8,8,0,0,0,4.2,7.58,2.27,2.27,0,0,1,3,6.64Z"/><path d="M6.66,6.14a.5.5,0,0,0,.5.5.51.51,0,0,0,.5-.44A.35.35,0,0,1,8,6c.21,0,.31.3.31.3a.51.51,0,0,0,.6.34A.52.52,0,0,0,9.31,6,1.37,1.37,0,0,0,8,5,1.32,1.32,0,0,0,6.66,6.14Z"/><path d="M13.05,18.64c-2.92-.55-3.24-3.55-3-5.05a.49.49,0,0,1,.22-.34.5.5,0,0,1,.69.14,5.55,5.55,0,0,0,2.8,1.9,7.88,7.88,0,0,0,3.77-.07.52.52,0,0,1,.51.15.56.56,0,0,1,.12.53A4.69,4.69,0,0,1,14,18.73,5.36,5.36,0,0,1,13.05,18.64Zm.44-2.39A6.92,6.92,0,0,1,11,14.9a2.77,2.77,0,0,0,2.24,2.76,3.41,3.41,0,0,0,3.39-1.25A7.58,7.58,0,0,1,13.49,16.25Z"/></svg>