<svg id="Layer_1" data-name="Layer 1" xmlns="http://www.w3.org/2000/svg" viewBox="0 0 24 24"><path d="M12,6.82a.76.76,0,0,0,.75-.75V4.73a.75.75,0,1,0-1.5,0V6.07A.76.76,0,0,0,12,6.82Z"/><path d="M6.48,8.66A.74.74,0,0,0,7,8.88a.73.73,0,0,0,.53-.22.74.74,0,0,0,0-1.06L6.6,6.65a.77.77,0,0,0-1.07,0,.75.75,0,0,0,0,1.06Z"/><path d="M17,8.88a.74.74,0,0,0,.53-.22l.95-1a.75.75,0,0,0-1.06-1.06l-.95.95a.74.74,0,0,0,0,1.06A.71.71,0,0,0,17,8.88Z"/><path d="M18.3,13.12a.76.76,0,0,0,.75.75h1.34a.75.75,0,0,0,0-1.5H19.05A.76.76,0,0,0,18.3,13.12Z"/><path d="M3.61,13.87H5a.75.75,0,1,0,0-1.5H3.61a.75.75,0,0,0,0,1.5Z"/><path d="M21.85,15.73H17.53a5.94,5.94,0,1,0-11.06,0H2.15a.75.75,0,1,0,0,1.5h19.7a.75.75,0,0,0,0-1.5Zm-13.75,0a4.44,4.44,0,1,1,7.8,0Z"/><path d="M19,17.93H5a.75.75,0,1,0,0,1.5H19a.75.75,0,1,0,0-1.5Z"/></svg>