<svg id="Layer_1" data-name="Layer 1" xmlns="http://www.w3.org/2000/svg" viewBox="0 0 24 24"><path d="M21.66,19.07h0A20.11,20.11,0,0,1,16,17.85c-2.47-1.1-3.62-3.1-3.08-5.34A3.18,3.18,0,0,1,14.8,10a4.7,4.7,0,0,1,3.5.46c-.67-1.47-2.16-3.71-5-3.71h0c-3.36,0-4.14,1.68-6,5.72l-.56,1.22A12.38,12.38,0,0,1,2.37,19a.49.49,0,0,1-.68-.17.51.51,0,0,1,.17-.69,11.58,11.58,0,0,0,4-4.86l.57-1.21C8.28,8,9.32,5.78,13.32,5.77h0c4.86,0,6.39,5.64,6.4,5.7A.5.5,0,0,1,19,12c-.63-.45-2.56-1.51-3.81-1a2.25,2.25,0,0,0-1.27,1.78c-.42,1.77.5,3.3,2.51,4.19a19.48,19.48,0,0,0,5.3,1.14.5.5,0,0,1,0,1Z"/></svg>