<svg id="Layer_1" data-name="Layer 1" xmlns="http://www.w3.org/2000/svg" viewBox="0 0 24 24"><path d="M21.13,20.7l-2.21-3.84h1a.48.48,0,0,0,.43-.25.5.5,0,0,0,0-.5l-2.3-4h1.17a.5.5,0,0,0,.43-.25.5.5,0,0,0,0-.5L15.82,4.71a.5.5,0,0,0-.43-.25.49.49,0,0,0-.43.25L13.69,6.89,10.28,1a.51.51,0,0,0-.86,0L4.67,9.21a.5.5,0,0,0,0,.5A.5.5,0,0,0,5.1,10H6.74L3.81,15.05a.5.5,0,0,0,.43.75H5.7L2.87,20.7a.5.5,0,0,0,0,.5.5.5,0,0,0,.43.25H9.35v1.32a.5.5,0,0,0,1,0V21.45h4.53v1.32a.51.51,0,0,0,.5.5.5.5,0,0,0,.5-.5V21.45H20.7a.5.5,0,0,0,.43-.25A.5.5,0,0,0,21.13,20.7ZM7,15.55a.5.5,0,0,0-.44-.75H5.1L8,9.71a.5.5,0,0,0,0-.5A.48.48,0,0,0,7.61,9H6L9.85,2.23,13.73,9H12.09a.48.48,0,0,0-.43.25.5.5,0,0,0,0,.5l.35.6h0L14.6,14.8H13.14a.5.5,0,0,0-.44.25.51.51,0,0,0-.06.25.57.57,0,0,0,.06.25l1.49,2.56,1.34,2.34H4.17Zm9.69,4.9-1.51-2.62L14,15.8h1.46a.49.49,0,0,0,.43-.25A.47.47,0,0,0,16,15.3a.43.43,0,0,0-.07-.25l-2.87-5,.06-.1H14.6A.5.5,0,0,0,15,9.71a.5.5,0,0,0,0-.5l-.76-1.32L15.39,6l3,5.17H17.21a.5.5,0,0,0-.44.75l2.3,4h-1a.5.5,0,0,0-.43.25.5.5,0,0,0,0,.5l2.21,3.84Z"/></svg>